<svg xmlns="http://www.w3.org/2000/svg" width="1182.854" height="783.9" viewBox="0 0 1182.854 783.9">
  <path id="Path_36" data-name="Path 36" d="M1302.392,369.333c-5.925-54.776-41.149-119.12-96.639-176.531-51.54-53.323-112.839-93.362-163.974-107.1C890.787,45.133,828.284,113.252,730.8,237.145c-7.654,9.725-15.12,19.411-22.339,28.777C665.2,322.038,627.85,370.5,574.823,398.334c-58.123,30.51-129.562,32.034-224.816,4.791-59.061-16.894-108.168-11.189-145.943,16.954-80.438,59.923-82.609,203.1-82.637,205.806-5.4,104.243,12.053,174.253,51.874,208.087,18.8,15.976,42.341,23.905,71.316,23.9a209.038,209.038,0,0,0,43.091-4.934c22.444-4.749,44.978-24.437,68.837-45.28,47.715-41.695,101.8-88.953,178.127-43.224,44.646,26.744,91.471,33.145,135.394,18.518C723.987,765,771.69,716.015,797.675,651.912c8.681-21.412,18.851-37.232,30.472-48.981q4.346-1.718,8.792-3.414,5.559-2.019,11.288-4,9.7-3.185,19.855-6.239,7.866-2.2,16.04-4.335,7.637-1.829,15.582-3.618,7.253-1.475,14.771-2.936,7.075-1.214,14.4-2.438c1.8-.257,3.6-.516,5.428-.777,2.8-.4,5.632-.805,8.493-1.214q6.667-.795,13.572-1.636,6.4-.624,13.01-1.309,6.354-.5,12.9-1.076,6.141-.382,12.454-.851,6.051-.288,12.266-.675c58.292-2.047,127.05-10.956,207.344-52.389C1278.733,482.795,1309.182,432.069,1302.392,369.333ZM1011,502.481c9.387-20.852,1.754-48.014-19.451-69.2-11.188-11.178-31.043-25.49-62.11-30.186-28.931-4.379-60.191.731-92.891,15.177-53.982,23.852-84.881,45.477-110.234,65.292Q723.2,486,720.2,488.36c-35.344,27.79-60.881,47.867-136.351,53.7-18.027,1.39-36.239,4.726-55.523,8.258-13.256,2.427-26.8,4.9-41.321,6.991-.613.037-1.241.072-1.857.109,6.641-1.712,13.145-3.514,19.565-5.3,23.368-6.5,45.438-12.633,70.238-13.248,80.443-2,107.56-24.877,145.086-56.539q3.838-3.234,7.824-6.577c29.951-25.025,61.378-46.215,117.388-68.281,47.053-18.536,112.59-22.61,155.4,21.569,20.936,21.6,28.625,48.852,19.581,69.417-5.463,12.418-16.365,21.333-31.734,26.381C1001.59,518.4,1007.954,509.245,1011,502.481Zm-32.823,24.061c9.915-4.731,17.281-11.756,21.489-20.882,9.25-20.072,1.636-46.906-18.947-66.778-13.34-12.873-63.716-51.489-152.08-7.8-52.028,25.726-81.119,46.613-104.5,63.4-46.479,33.374-71.592,51.4-214.357,61.371,6.418-1.117,12.717-2.262,18.94-3.4,19.226-3.521,37.382-6.845,55.3-8.231,76.131-5.885,101.883-26.133,137.527-54.158q3-2.36,6.106-4.791c29.173-22.8,59-42.585,109.776-65.017,46.261-20.438,110.636-27.35,152.579,14.557,20.561,20.547,28.023,46.763,19.007,66.789C1003.628,513.571,993.025,521.991,978.175,526.541Zm44.051-27.211c9.4-21.37,1.543-49.546-20.006-71.784-11.42-11.784-31.705-27.109-63.49-33.212-29.449-5.651-61.178-1.909-94.276,11.131-56.285,22.175-87.874,43.476-117.988,68.637q-4,3.342-7.831,6.584c-37.189,31.375-64.059,54.043-143.736,56.025-25.072.625-47.267,6.794-70.768,13.329-10.01,2.783-20.225,5.6-30.855,8.046l-1.543.083c-1.41.074-2.793.164-4.187.247,6.086-2.126,12.069-4.381,17.973-6.614,24.4-9.223,49.648-18.8,80.38-18.273q3.112.049,6.125.049c80.534,0,110.078-26.358,147.245-59.512q4.308-3.841,8.795-7.814c31.382-27.662,64.652-50.416,125.015-71.552,72.84-25.5,129.429-2.026,158.093,28.456,21.352,22.7,29.28,51.038,20.2,72.191-5.714,13.308-17.494,22.962-34.227,28.435C1008.949,518.285,1017.511,510.057,1022.226,499.33Zm11.142-3.13c9.422-21.942,1.331-51.191-20.608-74.522-16.721-17.78-39.155-30.311-64.877-36.245-29.958-6.905-62.1-4.474-95.523,7.229-60.695,21.252-94.162,44.144-125.733,71.973-3,2.649-5.93,5.258-8.806,7.823-37.738,33.665-67.494,60.317-151.885,58.91-31.143-.5-56.6,9.117-81.187,18.414-8.367,3.165-16.883,6.38-25.639,9.191q-4.092.295-8.089.639c5.523-2.466,11.044-5.124,16.679-7.847,25.829-12.476,52.53-25.36,89.157-23.582,90.119,4.432,121.81-25.164,161.93-62.623q4.639-4.334,9.476-8.8c34.057-31.382,68.13-54.846,132.645-74.83,73.821-22.867,131.409,3.2,160.682,35.215,22.137,24.211,30.125,52.99,20.847,75.11-5.951,14.185-18.619,24.542-36.671,30.478C1018.905,516.8,1028.36,507.864,1033.368,496.2Zm11.072-3.116c9.608-22.9,1.466-52.56-21.245-77.4-29.726-32.509-88.139-58.993-162.931-35.823-64.91,20.107-99.195,43.721-133.479,75.307q-4.852,4.473-9.485,8.816c-39.741,37.11-71.123,66.421-160.338,62.042-37.152-1.832-64.136,11.2-90.212,23.794-7.673,3.706-15.141,7.3-22.664,10.428l-.906.088c5.082-2.852,10.177-5.984,15.361-9.177,23.8-14.655,50.773-31.246,89.277-28.322,95.147,7.292,128.447-25.011,170.608-65.9q4.911-4.764,10.031-9.681c36.948-35.335,71.748-59.444,140.278-78.108,74.732-20.345,133.3,8.286,163.2,41.866,22.616,25.4,30.865,55.35,21.519,78.152-6.209,15.152-19.823,26.323-39.355,32.745C1028.725,515.518,1039.121,505.768,1044.44,493.084Zm11.023-3.1c9.659-23.57,1.264-54.378-21.907-80.4-30.33-34.068-89.719-63.129-165.392-42.518-68.978,18.786-104.012,43.057-141.215,78.635q-5.134,4.913-10.038,9.693c-41.771,40.506-74.755,72.5-168.928,65.292-39.206-3.021-66.5,13.806-90.583,28.638-6.72,4.136-13.291,8.173-19.862,11.606q-5.455.6-10.712,1.288c4.891-3.225,9.873-6.852,15.076-10.641,24.777-18.037,52.827-38.484,96.883-34.084,100.226,10.026,135.129-24.953,179.329-69.23q5.162-5.17,10.538-10.5c39.083-38.588,75.815-64.275,147.918-81.391,75.559-17.937,135.12,13.25,165.654,48.424,23.118,26.628,31.627,57.781,22.207,81.3-5.031,12.559-16.823,27.591-44.069,35.842C1037.534,515.093,1049.619,504.246,1055.463,489.982Zm10.986-3.084c9.722-24.276,1.069-56.278-22.581-83.519-30.955-35.657-91.3-67.28-167.806-49.116-72.6,17.236-109.586,43.1-148.945,81.96q-5.392,5.326-10.544,10.512c-22.346,22.386-41.646,41.718-68.109,54.58C619.4,515.442,584.612,519.9,539,515.338c-44.857-4.5-73.291,16.221-98.381,34.489-6.6,4.8-12.836,9.334-18.963,13.1q-5.876.843-11.486,1.8c4.963-3.72,10.022-7.981,15.326-12.462,24.317-20.54,54.588-46.1,104.258-40.129,105.3,12.656,141.835-24.958,188.065-72.586q5.4-5.559,11.016-11.291c42.3-42.928,79.621-69.137,155.565-84.678,76.375-15.626,136.907,18.118,168.087,54.91,23.984,28.3,32.544,59.9,22.895,84.539-6.889,17.595-22.385,30.4-45.352,37.785C1051.75,511.972,1061.829,498.43,1066.449,486.9Zm-641.37,77.773c-.955.146-1.9.3-2.84.444l.116-.069C423.266,564.914,424.17,564.8,425.079,564.671Zm-8.567,1.247c-.139.074-.276.143-.414.217-3.674.636-7.243,1.3-10.67,1.987.218-.148.435-.285.653-.435Q411.3,566.733,416.511,565.918Zm660.9-82.1c9.943-25.386,1.248-57.807-23.257-86.72-31.585-37.267-92.874-71.455-170.185-55.634-76.493,15.652-114.077,42.049-156.678,85.284q-5.639,5.725-11.028,11.3c-45.812,47.193-81.993,84.476-186.246,71.941-50.606-6.079-81.284,19.816-105.919,40.626-6.566,5.545-12.747,10.759-18.8,14.971q-6.242,1.152-12.111,2.457c5.2-4.293,10.5-9.4,16.1-14.812,24.937-24.1,55.973-54.082,111.449-46.441,110.429,15.233,148.552-25.009,196.8-75.945,3.76-3.97,7.58-8,11.5-12.08,45.659-47.473,83.438-74.115,163.208-87.967,77.257-13.422,140.134,24.662,170.515,61.344,24.5,29.585,33.313,62.424,23.571,87.845-7.224,18.851-23.994,32.615-48.961,40.538C1061.623,511,1072.555,496.209,1077.407,483.822ZM299.151,647.052c.946-1.474,1.963-2.984,3.023-4.518,0,.042-.009.081-.016.123Q300.551,644.9,299.151,647.052Zm.46,9.984c-.158,5.635,1.308,11.324,4.506,17.412,9.49,18.062,38.46,29.369,80.318,32.219-43.7-1.758-69.262-9.986-79.244-25.224C299.46,672.7,297.743,665.162,299.611,657.036Zm-14.836,23.026c.4,11.337,6.845,19.017,16.407,27.061,15.7,13.209,46.242,11.381,84.921,9.059,5.284-.317,10.816-.645,16.5-.948-9.631.74-18.882,1.647-27.6,2.512-32.853,3.262-58.8,5.836-73.3-4.247-9.188-6.385-18.284-13.646-19.737-25.9-1.592-13.41,6.092-31.935,23.826-56.89a48.83,48.83,0,0,0-2.275,6.063C290.361,654.653,284.375,668.706,284.775,680.062Zm101.2,33.961c-38.2,2.292-68.356,4.1-83.389-8.552-9.118-7.671-15.268-14.942-15.638-25.485-.284-8.073,3.042-17.861,10.154-29.638-4.866,8.194-7.391,15.434-7.726,21.923-.6,11.647,6,20.031,12.531,26.7,16.1,16.424,51.693,15.767,96.892,14.308C394.4,713.517,390.113,713.774,385.972,714.023Zm-82.516-16.57c-6.518-6.646-12.471-14.285-11.915-25.071a36.4,36.4,0,0,1,2.819-11.64,32.929,32.929,0,0,0-.751,3.667c-1.622,11.442,3.971,20.114,9.025,26.39,14.283,17.743,48.968,20.743,91.98,20.447C351.9,712.582,318.432,712.73,303.456,697.453Zm.871-8.006c-7.2-8.939-9.759-16.336-8.567-24.736a30.924,30.924,0,0,1,1.176-5.006c-.911,7.518,1.171,14.886,6.434,22.92,12.847,19.61,48.1,25.506,85.653,26.483C349.2,709.105,317.442,705.735,304.328,689.447Zm1.715-16c-3.423-6.514-4.78-12.522-4.134-18.5a43.567,43.567,0,0,0,2.965,11.324c9.594,23.292,44.237,35.171,81.417,38.373C344.312,702.078,315.325,691.113,306.043,673.446Zm.844-8a41.163,41.163,0,0,1-3.072-17.757,41.423,41.423,0,0,0,1.829,10.4c6.759,21.664,35.372,37.987,71.862,43.6C341.415,697.155,314.538,684.023,306.886,665.449Zm-.922-18.259c.139.909.253,1.818.455,2.725,4.917,22.011,30.458,40.068,62.77,47.906-31.345-6.667-55.6-21.553-61.471-40.371A39.186,39.186,0,0,1,305.964,647.19Zm2.577,2.258a37.569,37.569,0,0,1-.695-4.386c5.6,23.8,33.767,44.142,67.082,51.845C340.955,690.044,313.55,671.882,308.54,649.448Zm.816-8.009c-.009-.056-.007-.111-.016-.167a54.284,54.284,0,0,0,8.958,18.138c10.577,14.4,27.521,25.791,46.4,32.469C335.564,682.452,312.5,663.24,309.356,641.44Zm.778-9.653a421.767,421.767,0,0,1,28.448-32.039c3.339-2.087,7-4.162,11-6.216-16.788,14.736-29.828,27.6-39.425,38.93C310.151,632.237,310.141,632.011,310.134,631.786ZM352.1,583.138c-.827.81-1.661,1.622-2.475,2.42a127.006,127.006,0,0,0-13.9,7.643q1.311-1.509,2.651-3.04A122.275,122.275,0,0,1,352.1,583.138Zm-9.576,2.327c.142-.16.279-.312.421-.474.23-.018.455-.069.685-.1C343.264,585.083,342.89,585.273,342.528,585.465Zm20.1-3.13c-.237.2-.465.393-.7.592q-6.382,2.547-11.816,5.2c.283-.28.558-.555.841-.835Q356.314,584.765,362.627,582.335Zm-7.226.615c.146-.141.286-.28.434-.423.279-.021.553-.076.832-.106C356.244,582.6,355.814,582.775,355.4,582.951Zm-10.672,7.465-1,1.006a114.534,114.534,0,0,0-14.383,9.239c.246-.289.49-.581.739-.872A104.264,104.264,0,0,1,344.728,590.416Zm-16.191,7.842a69.223,69.223,0,0,0-11.748,11.384,59.837,59.837,0,0,1,14.92-15.1Q330.1,596.417,328.537,598.258Zm1.271,7.514q-11.289,12.027-19.62,22.36c.007-.1.023-.194.03-.291a50.389,50.389,0,0,1,2.47-4.525c.579-.937,1.22-1.895,1.905-2.864A81.739,81.739,0,0,1,329.808,605.771Zm27.256-15.851q4.29-1.957,9.05-3.868c-13.977,10.239-25.78,19.584-35.558,28.176-.239.178-.486.361-.723.541Q341.569,603.243,357.064,589.92Zm16.841-6.838q3.5-1.263,7.247-2.5-15.315,9.306-27.674,17.7Q362.883,591,373.906,583.082Zm-5.256-2.956c.081-.028.17-.056.251-.086.328-.023.653-.076.981-.113-.6.21-1.173.428-1.761.643C368.3,580.42,368.471,580.274,368.65,580.126Zm-.163-2.228c.876-.557,1.754-1.154,2.633-1.8,3.92-1.224,7.93-2.355,12-3.405q-1.209.746-2.419,1.395-6.413,1.839-12.1,3.8C368.566,577.889,368.527,577.9,368.487,577.9Zm21.458-.074c1.587-.472,3.188-.942,4.835-1.4q-8.727,4.348-16.607,8.529Q383.841,581.452,389.946,577.824Zm-2.056-5.7c.425-.3.848-.6,1.273-.916q5.566-1.308,11.223-2.431c-.353.211-.7.423-1.057.627Q393.358,570.713,387.889,572.122Zm700.462-91.361c10.022-26.156,1.081-59.8-23.926-89.991-30.751-37.13-94.394-75.67-172.565-62.1-80.364,13.956-118.416,40.788-164.4,88.6q-5.89,6.121-11.511,12.089c-47.82,50.485-85.569,90.357-194.925,75.288-56.512-7.8-87.983,22.608-113.262,47.031-6.862,6.628-13.268,12.806-19.535,17.511q-6.584,1.572-12.675,3.336c5.567-4.856,11.307-11.12,17.655-18.062,24.1-26.351,57.091-62.445,118.492-53.023a323.369,323.369,0,0,0,48.984,4.067c79.251,0,114.147-37.635,156.546-83.371q5.873-6.34,11.987-12.867C777.341,358.155,816.982,330,900.069,318.02c46.6-6.725,94.322,4.754,134.351,32.321,35.846,24.687,60.416,58.917,65.728,91.567,6.16,37.871-14.3,65.9-56.6,78.83C1071.184,510.515,1083.207,494.183,1088.351,480.761Zm.95,14.271c11.827-14.514,16.319-33,12.991-53.469-5.4-33.219-30.314-67.985-66.639-93-40.477-27.88-88.738-39.49-135.893-32.682C816.032,327.957,776.1,356.311,727.63,407.8q-6.141,6.523-12,12.878c-49.82,53.744-89.175,96.2-203.6,78.633-62.542-9.6-96,26.989-120.43,53.705-7.893,8.631-14.825,16.2-21.556,21.187q-7.63,2.422-14.367,5.168c6.813-5.256,13.7-13.7,21.6-23.406,24.451-30.031,57.948-71.171,125.4-59.863,120.707,20.2,161.988-25.187,214.239-82.656,4.08-4.488,8.228-9.05,12.487-13.66,51.744-56.023,91.654-84.463,178.5-94.551,98.918-11.479,192.044,63.106,203.19,132.535,6.39,39.8-15.708,69.514-61.02,83.123C1067.037,514.875,1080.179,506.224,1089.3,495.032Zm23.938-57.6c-5.5-34.253-31.027-70.6-68.284-97.232-41.174-29.434-89.94-42.613-137.3-37.112C820.121,313.254,779.916,341.9,727.8,398.321q-6.392,6.923-12.5,13.672c-51.807,56.981-92.728,101.983-212.268,81.976-68.728-11.492-102.659,30.191-127.447,60.634-12.6,15.471-22.551,27.695-33.216,28.261l-.453.023-.3.338c-1.668,1.871-3.293,3.713-4.894,5.538-12.011,7.312-20.462,15.786-25.009,25.33a39.122,39.122,0,0,0-3,8.962c-21.384,28.726-30.69,49.756-28.906,64.795,1.559,13.146,11.058,20.757,20.652,27.424,8.154,5.668,19.528,7.532,33.479,7.532,11.994,0,25.89-1.379,41.281-2.905,10.026-.995,20.734-2.059,31.947-2.838-14.062,1.291-27.351,3.2-39.722,4.994-29.28,4.252-52.411,7.613-66.622-.521-11.279-6.454-21.614-13.32-24.193-26.26-4.2-21.072,12.782-55.341,53.429-107.82,10.4-.937,19.69-13.678,31.408-29.742,24.7-33.855,58.511-80.222,132.19-66.96,125.851,22.64,168.7-25.3,222.936-85.994,4.247-4.751,8.562-9.584,13-14.465,54.384-59.893,96.111-89.811,186.155-97.845,100.433-8.969,195.013,69.9,206.308,141.173,6.68,42.16-17.592,73.805-66.853,87.921C1098.631,507.017,1119.613,477.106,1113.239,437.429Zm10.958-4.143c-11.439-72.179-107.048-152.057-208.65-142.991-90.765,8.1-132.8,38.229-187.573,98.546q-6.654,7.332-13.007,14.479c-53.784,60.192-96.269,107.739-220.926,85.3-75-13.491-110.71,35.437-134.335,67.819C348.139,572.3,339,584.822,329.437,585.333l-.5.023-.3.393C287.361,638.976,270.157,673.914,274.5,695.7c2.756,13.831,13.512,21,25.244,27.715,6.7,3.838,15.15,5.249,25.13,5.249,12.155,0,26.58-2.094,42.887-4.465,12.845-1.865,26.691-3.852,41.353-5.135-16.814,1.857-32.486,4.9-47.02,7.74-26.852,5.24-48.059,9.378-62.147,2.785-13.588-6.364-25.148-12.751-28.961-26.526-6.009-21.7,8.667-57.654,46.186-113.14,9.406-.972,17.9-13.91,28.6-30.2,23.429-35.685,58.843-89.621,138.866-74.31,23.461,4.485,44.132,6.551,62.6,6.551,84.675-.007,122.875-43.413,169.017-95.872q6.626-7.53,13.519-15.282c58.25-65.149,100.054-95.212,193.807-101.141,47.248-2.989,96.462,13.109,138.633,45.317,38.735,29.587,65.205,68.651,70.8,104.5,7.075,45.269-18.812,78.117-72.947,92.855C1107.628,507.3,1130.873,475.422,1124.2,433.286Zm10.967-4.145C1123.6,355.127,1026.587,271,923.445,277.5c-93.939,5.941-137.82,37.579-195.294,101.861-4.617,5.163-9.111,10.273-13.53,15.3-55.753,63.375-99.787,113.432-229.577,88.617C403.555,467.7,367.7,522.363,343.95,558.529c-10.57,16.1-18.919,28.819-27.449,29.272l-.541.028-.3.446c-38.114,56.291-52.976,92.948-46.772,115.356,4.055,14.643,16.567,21.557,30.133,27.91,5.5,2.577,11.95,3.6,19.291,3.6,12.31,0,27.133-2.892,44.2-6.223,16.1-3.141,33.592-6.547,52.474-8.289-20.966,2.394-40.163,7.125-56.721,11.213-25.188,6.223-45.08,11.138-59.189,5.792-15.531-5.88-28.808-11.948-33.992-26.67-7.779-22.108,5.04-60.9,39.195-118.59,8.458-.988,15.812-13.394,25.9-30.413,23.454-39.56,58.894-99.349,145.437-81.909,136.182,27.438,182.119-25.55,240.293-92.633q6.884-7.939,14.051-16.112C791,302.072,834.581,270.56,931.42,266.873c46.737-1.777,97.791,16.274,140.06,49.534,39.727,31.259,66.836,71.978,72.524,108.923,4.217,27.4-.242,76.493-77.511,97.447-.92.25-1.813.5-2.728.747C1116.227,508.158,1142.189,474.076,1135.165,429.14ZM413.618,695.478c-34.285,4.638-74.509-11.4-93.567-37.343a49.9,49.9,0,0,1-9.373-20.945c1.694-2,3.516-4.037,5.5-6.135,7.754-7.955,18.2-16.591,31.466-26.022,15.224-9.709,34.417-20.128,57.8-31.428,1.641-.409,3.318-.812,5.014-1.212a63.267,63.267,0,0,0,12.585-2.831c3.293-.629,6.641-1.247,10.119-1.837,3.406-.578,6.75-1.3,10.068-2.08.946-.127,1.866-.259,2.825-.384,6.134-.789,12.067-1.809,17.868-2.959q12.133-1.214,23.32-2.838c163.563-9.674,188.986-27.919,238.162-63.231C748.724,479.5,777.736,458.665,829.6,433.02c87.079-43.057,136.516-5.212,149.6,7.414,19.923,19.233,27.349,45.081,18.484,64.321-5.509,11.95-16.349,20.035-31.5,23.959q-1.722.115-3.434.252c-.349.007-.681.03-1.032.032-4.605.049-9.134.257-13.6.592-.309,0-.623-.012-.932-.012-4.306,0-8.546.164-12.733.453q-6.891-.115-13.577.338c-66.711-1.7-117.93,43.059-163.342,82.788-19.885,17.391-38.607,33.753-57.249,45.509a189.235,189.235,0,0,1-20.741,6.017c-3.913.812-7.828,1.5-11.75,1.948-2.066.236-4.124.5-6.176.794l-.179.009c-3.753.157-7.461.421-11.137.752q-5.594-.042-11.051.176c-3.794-.2-7.521-.287-11.2-.3-3.646-.349-7.24-.618-10.772-.775q-5.814-.8-11.416-1.261-5.507-.954-10.8-1.568c-49.941-10.421-85.643,2.112-120.33,14.3C455.515,685.512,435.653,692.491,413.618,695.478ZM764.2,614.543c40.461-33.605,85.388-70.9,141.277-80.174-53.984,12.425-97.856,46.98-137.543,78.265-8.867,6.991-17.5,13.8-25.985,20.167C749.24,626.968,756.638,620.826,764.2,614.543Zm-31.94,23.119c8.851-7.268,17.729-15.027,26.707-22.881,38.907-34.033,82.091-71.774,135.51-80.454C843,546.322,800.907,581.239,762.81,612.882,752.356,621.566,742.22,629.98,732.261,637.662Zm37.024-23.332c42.122-33.207,88.985-70.118,147.56-80.012-56.756,12.913-102.585,47.152-143.984,78.115-7.284,5.445-14.411,10.778-21.424,15.867C757.3,623.778,763.24,619.1,769.286,614.33Zm4.88-.169c43.8-32.761,92.586-69.218,153.948-79.9-59.645,13.558-107.457,47.452-150.6,78.048q-8.1,5.743-15.961,11.259Q767.787,618.945,774.165,614.161Zm4.6-.093c45.663-32.377,96.585-68.45,161.144-79.97-62.993,14.3-113.057,47.9-158.161,78.207q-4.691,3.151-9.294,6.232Q775.6,616.317,778.768,614.069ZM952.555,533.71C885.473,548.86,832.783,582.361,785.4,612.5c-.362.234-.725.463-1.088.694C831.77,581.315,884.789,546,952.555,533.71Zm12.129-.3c-67.078,15.349-120.016,45.673-167.406,74.111C844.5,577.637,897.481,546.093,964.684,533.414Zm13.3-.6c-66.608,15.388-119.524,42.43-166.628,68.843C858.345,573.883,911.288,545.772,977.985,532.81ZM641.617,676.171c1.125.134,2.245.229,3.365.315l-.1.037c-1.211-.044-2.426-.13-3.646-.238C641.359,676.245,641.49,676.208,641.617,676.171Zm-2.128-2.489.172-.039c.639.111,1.271.19,1.908.284l-.1.032Q640.478,673.835,639.489,673.682Zm-5.3,1.224c.815.18,1.629.338,2.44.488-.23.072-.458.146-.688.217-.867-.143-1.741-.319-2.612-.495Zm-.883-2.42.395-.062c.272.06.541.116.813.176-.125.03-.249.062-.374.09C633.864,672.627,633.585,672.553,633.306,672.486Zm-3.636,1.293c-.323.081-.644.164-.967.248-.565-.153-1.129-.305-1.7-.472l1.092-.2c.3.086.595.16.9.247C629.221,673.671,629.444,673.717,629.669,673.779Zm-6.381-1.747c-.216.042-.427.088-.641.13-.258-.088-.509-.169-.765-.257l.621-.067C622.766,671.906,623.024,671.963,623.289,672.033ZM475.445,680.8c28.534-10.026,57.765-20.274,95.11-17.6-31.266.477-57.481,8.848-83.132,17.056-13.86,4.432-28.19,9.02-42.936,12.177-7.484,1.6-17.432,3.6-28.044,4.87-.4.049-.809.062-1.213.106C436.952,694.3,456.524,687.451,475.445,680.8Zm-30.5,13.75c14.85-3.181,29.233-7.784,43.142-12.235,28.45-9.105,57.6-18.421,93.606-16.776-29.772,1.2-55.45,8.844-80.573,16.334-17.9,5.339-34.805,10.377-53.094,13.241l-2.661.419c-8.43,1.328-17.146,2.7-26.1,3.6-.084.009-.165.012-.249.021C428.838,697.877,437.963,696.047,444.945,694.553Zm.76,3.121,2.663-.419c18.431-2.887,36.2-8.184,53.376-13.306,28.132-8.386,56.963-16.977,91.473-16.371-28.144,1.915-53.071,8.992-77.439,15.945-21.612,6.172-42.027,12-64.213,14.282-3.713.379-7.445.81-11.207,1.245-5.409.622-11,1.249-16.635,1.756C431.243,699.929,438.581,698.793,445.705,697.673Zm-5.1,3.523c3.753-.43,7.475-.858,11.183-1.242,22.374-2.3,42.88-8.154,64.587-14.352,27.286-7.789,55.267-15.737,87.681-16.323-26,2.676-49.632,9.3-72.738,15.8-25.611,7.213-49.8,14.021-76.219,15.411-5.825.305-11.8.81-17.573,1.3-2.863.243-5.767.465-8.667.687C432.832,702.073,436.771,701.641,440.607,701.2Zm-2.9,2.75c6.023-.509,11.713-.99,17.5-1.3,26.661-1.4,50.964-8.242,76.7-15.487,25.083-7.062,50.792-14.271,79.453-16.353.232.069.469.146.7.215-22.6,3.438-43.714,9.473-64.389,15.386-29.861,8.541-58.067,16.607-89.04,16.774-7.628.039-15.094.493-23,.972-.753.046-1.517.09-2.272.134C434.81,704.174,436.276,704.067,437.712,703.947Zm20.933,1.4c31.273-.164,59.619-8.272,89.628-16.857,21.977-6.283,44.451-12.7,68.649-15.964.486.157.983.331,1.471.493-18.512,3.854-36.255,9.144-53.654,14.34-34.317,10.246-66.725,19.95-102.575,18.52-7.417-.289-14.959-.088-22.365.2C446.2,705.7,452.385,705.381,458.645,705.346Zm3.434,2.695c36.2,1.418,68.786-8.309,103.282-18.615,18.5-5.522,37.384-11.15,57.151-15.029.713.25,1.424.449,2.135.676-14.388,3.8-28.432,8.272-42.238,12.677-38.934,12.42-75.715,24.153-116.717,20.824-5.356-.435-10.758-.578-16.154-.578-1.087,0-2.17.025-3.255.035C451.577,707.886,456.8,707.835,462.08,708.041Zm3.434,2.686c4.87.4,9.671.581,14.427.581,35.728,0,68.586-10.481,103.131-21.5,14.9-4.754,30.084-9.591,45.661-13.556.964.25,1.931.513,2.891.722-10.484,3.326-20.845,6.9-31.048,10.442-41.732,14.484-84.893,29.464-131.358,23.852-4.443-.537-8.848-.842-13.247-1.018C459.145,710.336,462.319,710.468,465.514,710.727Zm2.888,2.63c.184.021.367.037.551.06a172.143,172.143,0,0,0,20.622,1.221c39.164,0,75.961-12.767,111.716-25.178,11.444-3.972,23.08-8,34.868-11.65,1.3.2,2.593.349,3.885.474-7.024,2.593-14,5.258-20.9,7.9-46.282,17.72-94.136,36.055-146.413,27.785C471.288,713.739,469.845,713.54,468.4,713.357Zm6.987,3.158a171.1,171.1,0,0,0,23.7,1.663c42.554,0,82.249-15.2,120.844-29.975,8.411-3.22,16.948-6.477,25.539-9.593,1.708.037,3.406,0,5.1-.079q-6.19,2.613-12.513,5.321c-50.831,21.692-103.391,44.124-161.8,32.816C475.968,716.612,475.68,716.57,475.389,716.515Zm163.524-30.676c6.436-2.746,12.715-5.4,18.944-7.992,2.43-.352,4.849-.84,7.259-1.411-2.593,1.237-5.2,2.482-7.845,3.752-54.581,26.163-111.01,53.173-174.9,39.721C538.824,728.537,589.671,706.85,638.913,685.839Zm19.3-3.7c12.415-5.952,24.142-11.571,35.893-16.679.551-.241,1.108-.493,1.661-.736-6.185,3.269-12.415,6.642-18.947,10.181-55.708,30.2-118.692,64.312-188.911,48.262C550.263,733.839,607.481,706.452,658.215,682.135Zm19.646-5.332c7.875-4.27,15.317-8.3,22.753-12.191l4.322-2.258,2.391-1.249c-.448.275-.9.544-1.352.819q-4.517,2.776-9.143,5.638c-56.333,34.794-126.06,77.851-203.343,58.977C562.041,739.534,623.41,706.32,677.861,676.8ZM531.908,733.328c62.558,0,118.969-34.838,166.068-63.928q4.625-2.856,9.141-5.635,5.49-3.369,11.072-6.658c-1.954,1.337-3.9,2.677-5.837,4.048-51.263,36.374-127.845,90.694-212.979,68.91A163.675,163.675,0,0,0,531.908,733.328Zm7.331,3.921c69.608-.007,131-43.554,174.375-74.333q7.326-5.2,14.873-10.086c-3.281,2.45-6.536,4.955-9.752,7.557-60.323,48.806-132.45,94.963-213.337,73.289A162.543,162.543,0,0,0,539.24,737.249Zm180.867-75.184q8.912-7.211,18.18-13.639c-4.466,3.553-8.858,7.264-13.163,11.194-77.455,70.726-147.7,96.239-214.229,77.669C590.236,755.408,660.85,710.012,720.106,662.065Zm6.485-.854a250.3,250.3,0,0,1,20.457-16.783c-5.3,4.476-10.479,9.26-15.533,14.423-50.906,52.026-128.2,106.608-214.267,82.3C582.479,756.35,651.2,730.052,726.592,661.211Zm6.481-.851a218.368,218.368,0,0,1,22.565-20.075,202.581,202.581,0,0,0-17.722,17.8c-21.742,24.7-56.884,58.207-100.819,77.581-38.551,17-76.807,20.049-113.992,9.244C607.567,765.122,683,711.53,733.072,660.36Zm-95.1,77.282c44.295-19.533,79.685-53.268,101.572-78.133a196.255,196.255,0,0,1,24.709-23.635,187.751,187.751,0,0,0-19.939,21.442c-20.792,26.1-55.174,61.547-100.9,82.2-38.476,17.368-76.869,20.417-114.433,9.248C564.623,757.566,601.17,753.87,637.976,737.642Zm-103.993,14.78c36.276,9.415,73.27,5.793,110.332-10.942,46.124-20.824,80.766-56.532,101.7-82.82a181.411,181.411,0,0,1,26.271-26.927,178.145,178.145,0,0,0-21.563,24.81C702.756,722.775,622.35,779.466,533.983,752.422Zm218.5-94.613a170.164,170.164,0,0,1,27.846-30.329,170.032,170.032,0,0,0-23.2,28.291c-44.246,66.919-125.8,129.264-217.7,100.447C626.472,779.265,705.159,723.163,752.488,657.808Zm6.464-.847a162.318,162.318,0,0,1,28.954-33.5A164.961,164.961,0,0,0,763.553,655c-26.106,43.1-62.07,77.229-101.267,96.1-38.019,18.3-77.831,21.349-116.6,9.191C635.876,784.366,715.369,722.879,758.952,656.962Zm-95.721,96.082c39.571-19.05,75.861-53.474,102.18-96.931,9.192-15.175,19.237-27.176,30.177-36.816a160.5,160.5,0,0,0-25.62,34.926C745.162,698.8,708.2,735.518,668.55,754.976c-38.333,18.814-78.631,21.775-118.051,8.985C588.063,774.356,626.47,770.738,663.232,753.044Zm6.278,3.872c40.036-19.649,77.343-56.7,102.359-101.646,9.318-16.741,19.639-29.712,31.006-39.895-9.662,10.016-18.487,22.462-26.487,38.067-29.24,57.041-76.914,100.348-127.531,115.847-31.122,9.526-62.558,8.936-93.8-1.666C593.347,778.7,632.337,775.164,669.51,756.916ZM649.5,771.356c51.166-15.666,99.325-59.377,128.828-116.927,9.424-18.386,20.025-32.342,31.838-43.046-10.1,10.618-19.212,24.084-27.351,41.283-28.046,59.264-75.594,104.348-127.2,120.6-31.652,9.968-63.678,9.343-95.57-1.79A151.055,151.055,0,0,0,649.5,771.356Zm6.773,3.967c52.17-16.429,100.208-61.936,128.507-121.737,9.459-19.991,20.283-34.852,32.475-46.02-10.463,11.159-19.809,25.566-28.016,44.318-26.861,61.371-74.218,108.169-126.68,125.183-30.9,10.019-62.222,9.792-93.525-.5A149.534,149.534,0,0,0,656.27,775.323ZM795.661,651.1c-25.75,63.523-72.959,112.046-126.281,129.8-30.93,10.3-63.33,9.956-95.382-.671,29.942,8.585,60.193,8.3,89.229-1.11,53.046-17.2,100.9-64.446,128-126.375,9.122-20.843,19.69-36.247,31.687-47.725l.293-.118C812.825,616.435,803.631,631.442,795.661,651.1Zm66.167-72.926a103.992,103.992,0,0,0-14.251,6.806c-.862.426-1.708.886-2.558,1.335q-9.212,4.577-18.1,9.193c46.467-25.379,99.051-50.173,164.713-63.432C941.883,543.784,899.628,560.338,861.828,578.176Zm20.55-6.038c-1.469.31-2.93.634-4.373.985,37.612-16.8,79.73-31.963,129.083-42.273A800.928,800.928,0,0,0,882.378,572.138Zm12.75-2.221c-.906.125-1.805.259-2.7.4a790.52,790.52,0,0,1,129.067-40.568A1042.522,1042.522,0,0,0,895.127,569.918Zm8.732-1.039a1046.354,1046.354,0,0,1,134.33-40.936c-50.362,13.1-93.973,26.806-132.634,40.779C904.991,568.775,904.422,568.823,903.859,568.879Zm9.987-.823c41.279-14.636,88.134-28.962,142.693-42.557l.051-.014c-53.526,14.659-100.075,28.59-141.407,42.477C914.731,567.988,914.292,568.025,913.846,568.055Zm10.143-.534c-.251.012-.5.018-.755.03,42.013-13.915,89.345-27.91,143.833-42.687,58.471-15.855,86.559-51.32,79.084-99.86-5.767-37.473-33.179-78.7-73.324-110.293-42.671-33.575-94.285-51.8-141.493-50C833.7,268.43,789.8,300.161,728.323,369.883c-4.8,5.445-9.469,10.831-14.062,16.128-57.714,66.549-103.31,119.106-238.214,91.925-88.058-17.731-123.974,42.842-147.742,82.931-9.606,16.2-17.192,29-24.742,29.4l-.581.03-.3.5c-35.193,59.35-47.794,97.762-39.657,120.885,5.491,15.6,19.221,21.9,35.27,27.979a42.087,42.087,0,0,0,14.992,2.42c12.55,0,27.725-3.747,45.492-8.136,17.118-4.226,37.066-9.149,58.845-11.43-23.115,2.931-44.1,9.188-62.1,14.578-24.07,7.2-43.075,12.9-57.328,8.608-17.5-5.26-32.526-10.9-39.225-26.684-9.708-22.878.892-63.5,32.4-124.182,7.577-1.043,14.214-13.417,23.306-30.366,21.953-40.924,58.687-109.423,151.913-89.762,141.315,29.8,188.818-25.684,248.949-95.934q7.149-8.352,14.6-16.954c63.894-73.4,109.251-106.376,209.115-107.737,46.962-.652,98.523,18.937,141.505,53.707,40.724,32.948,68.481,75.341,74.248,113.4,7.312,48.253-20.4,84.109-78.029,100.966q-16.957,4.958-32.984,9.628C999.331,544.812,959.672,556.378,923.989,567.521Zm8.193-.271h-.009c33.7-10.421,70.884-21.271,112.437-33.388q16.037-4.678,32.981-9.63c79.344-23.2,83.91-74.717,79.567-103.36-5.844-38.579-33.89-81.478-75.027-114.76-43.37-35.086-95.384-54.813-142.9-54.191C838.531,253.294,792.838,286.5,728.5,360.4c-4.986,5.728-9.836,11.4-14.606,16.968-59.663,69.7-106.8,124.751-246.848,95.222-94.805-20-132.036,49.4-154.276,90.861-8.672,16.165-15.522,28.932-22.142,29.286l-.623.03-.286.55c-32.04,61.577-42.75,102.969-32.747,126.541,7.64,18,25.913,23.5,40.6,27.912a40.329,40.329,0,0,0,11.667,1.571c12.912,0,28.446-4.65,46.916-10.178,18.5-5.536,40.133-12.008,63.973-14.787-24.914,3.465-47.327,11.34-66.518,18.081-22.416,7.879-41.764,14.689-56.278,11.312-19.456-4.518-36.244-9.637-44.611-26.566C241,703.519,249.435,661.017,278.48,597.3c6.727-1.071,12.385-12.719,20.815-30.066,21.775-44.818,58.209-119.837,158.284-97.866,146.48,32.157,195.517-25.823,257.6-99.226,4.945-5.846,9.975-11.8,15.148-17.805C798.442,273.165,843.622,240.205,947.1,241.3c47.162.481,99.269,21.564,142.964,57.844,41.734,34.655,70.138,78.744,75.975,117.933,7.326,49.208-20.578,86.309-78.575,104.465-46.583,14.583-88.3,26.52-125.105,37.05Q946.779,563.045,932.182,567.25Zm15.134-2.1c5.138-1.474,10.333-2.961,15.642-4.481,36.817-10.532,78.549-22.471,125.159-37.066,59.138-18.513,87.574-56.458,80.072-106.844-5.914-39.7-34.6-84.291-76.732-119.277-44.072-36.594-96.678-57.86-144.335-58.346-52.188-.523-90.785,7.8-124.945,27.021-33.091,18.624-61.311,47.355-93.5,84.77q-7.762,9.022-15.159,17.819c-61.61,72.843-110.271,130.379-255.471,98.507C356.29,444.908,319.394,520.9,297.338,566.288c-7.768,15.987-13.9,28.615-19.646,28.921l-.658.035-.274.6c-29.54,64.663-38.044,107.945-25.992,132.322,9.5,19.223,30.639,24.135,46.068,27.718a38.794,38.794,0,0,0,8.788.939c13.656,0,30.151-5.8,48.705-12.316,19.83-6.968,43.124-15.122,69.011-18.333-26.759,3.923-50.662,13.514-71.037,21.722-22,8.858-40.993,16.51-55.834,13.956-20.606-3.542-39.945-8.219-50.12-26.33-13.784-24.528-7.494-68.94,19.237-135.769,5.935-1.147,10.956-12.559,18.41-29.5,20.083-45.636,57.467-130.6,164.567-106.231,30.014,6.827,56.052,9.933,79.037,9.931,93.132,0,135.845-51.045,187.194-112.43,5.128-6.133,10.347-12.369,15.715-18.673C801.628,259.292,848.5,224.963,954.939,228.5c105.631,3.544,210.439,104.389,222.148,184.463,7.338,50.177-20.766,88.515-79.135,107.952C1040.559,540.03,991.157,553.44,947.315,565.148Zm15.747-1.98c40.038-10.775,84.649-23.239,135.575-40.2,59.482-19.806,88.106-58.984,80.6-110.314-13.012-89-126.174-183.027-224.226-186.314-107.313-3.611-154.557,30.984-226.161,115.1-5.372,6.306-10.593,12.55-15.724,18.687C649.58,436.1,599.386,496.1,449.046,461.908c-108.879-24.764-146.705,61.26-167.039,107.471-6.894,15.663-12.338,28.037-17.25,28.3l-.695.037-.258.643c-27.186,67.8-33.518,113.013-19.353,138.219,10.644,18.941,30.5,23.771,51.649,27.405a38.456,38.456,0,0,0,6.5.527c14.237,0,31.243-6.847,50.52-14.611,21.21-8.541,46.254-18.606,74.318-22.1-28.8,4.233-54.31,15.744-75.963,25.55-21.784,9.862-40.584,18.372-55.859,16.584-21.538-2.54-43.577-6.637-55.711-25.98C223.982,718.569,228.162,672.2,252.686,602.2c5.17-1.182,9.364-11.721,16.114-28.675,19.711-49.52,56.415-141.7,170.745-114.855,31.594,7.416,58.917,10.785,82.981,10.782,95.363-.007,139.212-52.942,191.881-116.55q7.971-9.626,16.284-19.547c36.027-42.747,65.277-73.151,99.72-92.619,36.137-20.426,76.958-28.139,132.369-25.018,47.641,2.686,100.84,26.755,145.959,66.035,43.784,38.121,73.475,85.647,79.421,127.131,5.188,36.189-4.431,84.893-79.723,111.415C1053.379,539.695,1005.77,552.519,963.062,563.167Zm14.76-1.49c39.064-9.968,82.234-22.041,131.339-39.34,59.826-21.076,88.645-61.476,81.15-113.76-13.042-90.984-127.81-189.4-227.409-195.021-55.848-3.153-97.043,4.652-133.568,25.3-34.724,19.628-64.125,50.177-100.308,93.11-5.567,6.6-10.977,13.139-16.3,19.561-65.482,79.08-117.2,141.543-272.689,105.039C323.895,429.3,286.731,522.6,266.781,572.728c-6.051,15.2-10.83,27.2-14.962,27.419l-.727.037-.239.685c-24.949,71-29.133,118.176-12.794,144.226,12.64,20.156,35.237,24.38,57.3,26.98a37.907,37.907,0,0,0,4.5.257c14.927,0,32.484-7.946,52.516-17.019,22.2-10.051,48.452-21.932,78.1-25.779-30.263,4.613-56.9,17.944-79.458,29.258-21.735,10.9-40.517,20.322-56.247,19.219-23.245-1.617-47.132-4.92-61.357-25.525-18.119-26.242-16.033-74.608,6.381-147.844,4.466-1.277,8.1-11.393,13.911-27.57,9.132-25.421,22.929-63.833,49.665-92.1C335.22,451.281,378,440.633,430.53,453.321,592.494,492.441,646.118,427.07,714.012,344.3c5.5-6.708,11.1-13.535,16.865-20.433C805.355,234.679,853.3,193.676,970.621,202.925c47.906,3.778,101.667,29.33,147.5,70.1,45.489,40.471,75.066,88.509,81.14,131.795,5.177,36.881-4.559,86.746-80.334,114.857C1065.763,539.4,1019.519,551.874,977.822,561.678Zm15.937-1.6a1129.921,1129.921,0,0,0,125.923-38.373c77.127-28.611,87.014-79.517,81.728-117.182-6.146-43.786-35.976-92.3-81.844-133.111-46.177-41.082-100.4-66.831-148.776-70.645C852.447,191.446,804.174,232.713,729.2,322.482c-5.765,6.905-11.367,13.736-16.874,20.447-67.41,82.182-120.653,147.1-281.286,108.292C307.337,421.347,269.722,526.03,251.649,576.344c-5.031,14-9.373,26.091-12.768,26.272l-.757.042-.223.722c-22.8,74.263-24.858,123.434-6.288,150.333,14.773,21.4,40.263,24.875,63,26.457.892.063,1.789.09,2.7.09,15.726,0,33.862-9.093,54.681-19.536,22.943-11.506,50.116-25.136,80.973-29.379-31.4,5.038-58.868,20.109-82.121,32.869-21.812,11.971-40.691,22.307-56.928,21.881-23.815-.618-50.6-3.111-67.036-24.981-20.369-27.1-20.369-77.495.007-154.028,3.6-1.217,6.367-9.327,11.809-26.182,17.3-53.569,53.285-165.046,182.823-132.931,167.132,41.424,222.276-26.4,292.093-112.268,5.693-7,11.486-14.127,17.45-21.331,77.511-93.6,127.171-136.38,247.4-124.242,48.2,4.865,102.529,31.893,149.071,74.155s76.749,92.022,82.85,136.5c5.156,37.577-4.705,88.6-80.968,118.271A941.91,941.91,0,0,1,993.759,560.079Zm11.311-.4a932.169,932.169,0,0,0,125.131-38.6c77.583-30.184,87.6-82.23,82.335-120.577-6.172-44.973-36.62-95.2-83.541-137.807-46.879-42.567-101.667-69.8-150.314-74.707C857.434,175.748,807.395,218.789,729.382,313c-5.969,7.206-11.767,14.338-17.464,21.345-69.332,85.272-124.111,152.621-289.876,111.53-56.6-14.028-102.255-2.17-135.7,35.243-27.739,31.033-40.967,72.008-49.723,99.122-4.28,13.255-7.972,24.7-10.677,24.845l-.788.042-.2.759c-20.729,77.578-20.668,128.778.181,156.526,17.018,22.642,44.4,25.213,68.723,25.846.342.009.683.014,1.027.014,16.618,0,35.365-10.29,57-22.164,23.6-12.952,51.6-28.287,83.531-32.93-32.412,5.464-60.641,22.235-84.512,36.425-21.984,13.068-40.967,24.354-57.837,24.579-27.263.354-54.877-2.327-72.738-24.357-22.358-27.579-24.493-81.509-6.353-160.31,3-1.256,5.212-8.536,9.813-24.486,15.308-53.057,51.119-177.32,188.711-142.4C584.791,486.35,641.459,416.084,713.2,327.12c5.883-7.3,11.871-14.724,18.041-22.231C811.821,206.8,863.282,162.248,986.305,177.342c48.51,5.954,103.428,34.456,150.676,78.2,47.613,44.082,78.431,95.562,84.549,141.242,5.128,38.273-4.875,90.449-81.63,121.66A801.159,801.159,0,0,1,1005.071,559.674Zm135.652-39.231c78.038-31.731,88.188-84.918,82.962-123.948-6.183-46.168-37.245-98.12-85.223-142.538-47.576-44.047-102.938-72.753-151.889-78.763C862.448,159.965,810.655,204.8,729.559,303.52c-6.174,7.511-12.166,14.946-18.054,22.247-71.249,88.353-127.522,158.15-298.467,114.767-139.6-35.421-175.85,90.239-191.333,143.9-3.265,11.314-6.641,23.013-8.695,23.121l-.816.042-.186.8c-18.717,80.951-16.546,134.2,6.632,162.795,17.483,21.562,43.77,25.189,70.115,25.189,1.445,0,2.9-.009,4.345-.03,17.453-.234,36.669-11.657,58.92-24.884,25.327-15.055,53.229-31.622,85.539-36.517-32.719,5.723-60.832,23.681-86.4,40.008-22.23,14.2-41.43,26.457-58.927,27.322-48.926,2.411-67.11-10.606-78.447-23.669-24.672-28.423-28.947-84.493-12.71-166.667,2.391-1.261,4.1-7.486,7.926-22.464,9.118-35.666,28.088-109.886,83.5-142.461,30.163-17.734,67.5-21,110.987-9.732,37.756,9.79,70.1,14.206,98.356,14.2,104.546-.007,152.956-60.478,210.939-132.937,6.078-7.594,12.266-15.328,18.64-23.147,43.458-53.289,75.958-88.347,113.478-109.853,40.993-23.5,87.021-29.978,149.25-21,48.131,6.944,105.073,37.688,152.319,82.237,48.687,45.907,80.118,99.129,86.238,146.017,7.294,55.884-21.168,99.113-82.311,125.017a702.761,702.761,0,0,1-132.136,41.132A794.927,794.927,0,0,0,1140.723,520.443Zm10.521-.634c78.5-33.256,88.8-87.574,83.617-127.284-6.185-47.374-37.858-101.067-86.9-147.31-47.562-44.845-104.943-75.8-153.5-82.806-62.737-9.052-109.2-2.494-150.646,21.264C806,205.347,773.354,240.552,729.733,294.04q-9.564,11.732-18.654,23.161C637.916,408.626,580.126,480.845,404.034,435.19c-44.074-11.428-81.967-8.076-112.639,9.959-56.192,33.036-75.31,107.843-84.5,143.794-2.575,10.07-5.235,20.479-6.843,21.081l-.823.046-.165.826c-16.518,83.2-12.118,140.1,13.073,169.124,10.735,12.369,27.37,24.713,68.716,24.713q5.448,0,11.483-.3c18.078-.9,37.5-13.3,59.993-27.662,26.243-16.757,55.195-35.234,88.959-40.216-34.134,5.846-63.269,25.675-89.724,43.7-22.541,15.356-42.008,28.615-60.172,30.112-28.95,2.383-61.587,1.52-84.154-22.918-27.026-29.263-33.441-87.5-19.072-173.1,1.861-1.238,3.111-6.463,6.158-20.091,8.474-37.9,26.106-116.744,84.37-152,31.248-18.906,70.2-22.381,115.776-10.329C433.741,442.319,467.317,447,496.6,446.994c106.9,0,156.441-62.352,215.761-137.016,6.274-7.9,12.661-15.936,19.246-24.065,38.971-48.123,74.674-89.94,116.959-114.278,42.25-24.315,89.563-30.445,153.427-19.878,48.494,8.027,106.063,40.279,154,86.274,49.76,47.744,81.8,102.717,87.911,150.824,7.222,56.879-21.484,101.259-83.018,128.348a631.551,631.551,0,0,1-130.292,41.281A700.156,700.156,0,0,0,1151.244,519.81Zm10.519-.631c78.963-34.757,89.426-90.2,84.3-130.594-6.172-48.588-38.449-104.031-88.559-152.11-48.24-46.286-106.24-78.753-155.149-86.85-64.385-10.66-112.153-4.446-154.875,20.139-42.606,24.523-78.45,66.5-117.563,114.792-6.585,8.134-12.977,16.179-19.256,24.081-75.076,94.5-134.369,169.143-315.629,121.207-46.165-12.2-85.688-8.652-117.458,10.572-59.054,35.729-76.823,115.19-85.362,153.373-2.031,9.084-3.95,17.671-5.189,18.712l-.748.039-.146.854c-14.613,86.621-8.047,145.672,19.516,175.52,18.178,19.679,42.52,24.5,66.385,24.5,6.6,0,13.166-.37,19.548-.9,18.738-1.541,38.423-14.953,61.22-30.482,26.814-18.266,56.4-38.405,91.06-43.693C408.855,744.522,379.1,766,352.1,785.5c-22.9,16.545-42.678,30.834-61.538,32.953-28.636,3.216-64.722,3.611-89.861-22.11-29.412-30.1-37.972-90.519-25.443-179.608,1.378-1.2,2.261-5.533,4.522-17.313,7.106-37.012,23.745-123.682,85.042-161.851,32.335-20.132,72.924-23.834,120.635-10.986,40.784,10.981,75.577,15.92,105.88,15.918,109.246-.007,159.943-64.226,220.6-141.089,6.42-8.136,13.061-16.549,19.853-24.99,84.6-105.139,139.207-163.359,278.052-137.462,48.886,9.121,107.1,42.881,155.716,90.311,50.836,49.59,83.485,106.328,89.573,155.661,7.138,57.869-21.821,103.392-83.75,131.647a577.654,577.654,0,0,1-128.793,41.56A631.036,631.036,0,0,0,1161.763,519.178Zm10.516-.632c62.875-28.685,92.268-74.978,85-133.874-6.146-49.812-39.025-107.015-90.207-156.942-48.914-47.716-107.546-81.694-156.836-90.891-66.007-12.316-115.069-6.466-159.076,18.971C807.75,180.9,770.645,224.669,730.089,275.074c-6.8,8.448-13.44,16.866-19.864,25.007-76.983,97.56-137.79,174.616-324.2,124.422-48.317-13.012-89.484-9.232-122.356,11.24-62.1,38.667-78.865,125.988-86.022,163.274-1.448,7.541-2.816,14.678-3.708,15.959l-.632.032-.123.884c-12.738,90.079-4,151.3,25.962,181.961,18.879,19.32,43.616,24.3,66.941,24.3a222.1,222.1,0,0,0,24.721-1.548c19.43-2.184,39.422-16.628,62.57-33.351,26.786-19.353,56.308-40.644,90.869-46.758-34.889,7-64.559,29.612-91.529,50.191-22.323,17.033-43.407,33.117-62.984,35.861-29.979,4.2-67.919,5.575-95.554-21.261-31.829-30.922-42.538-93.547-31.836-186.145.895-1.034,1.473-4.307,3.039-14.113,5.709-35.729,20.873-130.633,85.448-172.05,33.446-21.456,75.708-25.4,125.614-11.735,42.245,11.569,78.227,16.764,109.518,16.764C597.313,438,649.085,372.167,711,293.416c6.776-8.619,13.781-17.532,20.964-26.478C819.324,157.307,875.658,96.712,1017.681,126.17c49.307,10.229,108.178,45.5,157.473,94.352,51.916,51.45,85.162,109.96,91.215,160.53,7.043,58.852-22.179,105.5-84.5,134.911A536.047,536.047,0,0,1,1054.2,557.937,579.109,579.109,0,0,0,1172.28,518.547Zm10.517-.629c63.248-29.844,92.9-77.259,85.732-137.122-6.111-51.045-39.585-110.02-91.843-161.8-49.583-49.136-108.856-84.627-158.563-94.937-67.64-14.03-118.016-8.568-163.331,17.7-44.434,25.765-82.683,71.325-124.524,123.835-7.185,8.95-14.195,17.868-20.973,26.489C630.476,392.329,568.219,471.513,377.022,419.159c-50.527-13.84-93.381-9.8-127.366,12C184.262,473.1,168.987,568.7,163.239,604.689c-.974,6.093-1.824,11.414-2.407,12.767l-.483.025-.1.907c-10.884,93.575.026,156.979,32.421,188.445,19.562,19.006,44.037,24.218,67.347,24.218a217.4,217.4,0,0,0,30.023-2.359c20.143-2.822,41.446-19.078,64-36.286,28.167-21.49,59.31-45.229,96.137-50.73-37.138,6.461-68.4,31.484-96.727,54.175-22.736,18.215-44.214,35.423-64.54,38.791-28.843,4.782-70.726,7.874-101.232-20.373-34.28-31.738-47.148-96.589-38.244-192.761.553-.946.871-3.491,1.733-10.357,4.273-34,17.278-137.458,85.5-182.634,34.571-22.892,78.566-27.137,130.77-12.619,43.756,12.17,80.952,17.629,113.264,17.627,113.808-.009,166.758-67.791,230.037-148.834,6.922-8.867,14.081-18.034,21.417-27.239,90.511-114.1,148.764-177.047,293.376-144.074,49.765,11.347,109.3,48.132,159.267,98.4,53,53.314,86.838,113.605,92.844,165.416,6.934,59.833-22.553,107.6-85.279,138.149a502.7,502.7,0,0,1-126.941,42.5A538.131,538.131,0,0,0,1182.8,517.917Zm10.516-.634c63.627-30.984,93.532-79.514,86.482-140.34-6.06-52.28-40.124-113.039-93.458-166.691-50.243-50.545-110.178-87.548-160.329-98.983C880.114,78,821.5,141.326,730.446,256.109c-7.34,9.209-14.5,18.381-21.428,27.253-41.267,52.852-76.907,98.495-127.387,124.885-55.357,28.935-123.232,30.7-213.613,5.566-52.839-14.692-97.436-10.354-132.557,12.9-69.051,45.724-82.149,149.926-86.452,184.167-.52,4.138-1.7,10-1.7,10-9.046,97.1,4.038,162.7,38.89,194.97,20.373,18.865,45.582,24.083,68.788,24.083a210.278,210.278,0,0,0,34.28-3.162c20.887-3.461,42.58-20.84,65.544-39.238,28.636-22.943,60.3-48.29,97.886-54.064-37.882,6.764-69.659,33.369-98.446,57.492-23.178,19.425-45.069,37.769-66.167,41.769-30.026,5.693-73.786,9.868-106.9-19.45-36.766-32.557-51.8-99.684-44.671-199.5a44.116,44.116,0,0,0,.662-5.825c10.3-119,51.944-171.079,85.069-193.816,35.723-24.523,81.545-29.094,136.175-13.586,45.166,12.67,83.524,18.354,116.8,18.351C591.788,428.9,645.9,359.166,710.575,275.811c7.031-9.063,14.3-18.437,21.753-27.847C826.03,129.351,886.2,64.017,1033.37,100.585c50.25,12.482,110.476,50.783,161.1,102.448,54.08,55.193,88.506,117.274,94.452,170.329,6.815,60.807-22.948,109.689-86.071,141.36-45.866,23.008-87.9,35.8-126.316,43.08A505.889,505.889,0,0,0,1193.313,517.283Zm20.032-3.183c-45.733,23.6-87.714,36.582-126.158,43.77a479.394,479.394,0,0,0,116.643-41.218c64.008-32.111,94.178-81.742,87.256-143.528-6-53.527-40.647-116.071-95.059-171.6-50.9-51.942-111.505-90.463-162.132-103.041C885.428,61.6,824.875,127.31,730.623,246.627c-7.459,9.417-14.734,18.793-21.767,27.861-42.264,54.475-78.766,101.521-130.519,128.632-56.729,29.714-126.418,31.417-219.323,5.348-55.288-15.686-101.718-11.014-138,13.887-60.711,41.674-80.274,129.266-86,195.412-.17,1.964-.576,4.652-.576,4.652l-.07.953c-7.222,100.665,8.047,168.469,45.373,201.526,21.115,18.7,46.363,24.079,69.776,24.079a210.242,210.242,0,0,0,38.972-4.12c21.656-4.106,43.758-22.629,67.159-42.24,27.707-23.216,58.2-48.766,94.141-56.366-35.969,8.506-66.427,35.1-94.678,59.782-23.636,20.653-45.963,40.161-67.849,44.79-48.9,10.34-85.725,4.3-112.548-18.5-39.285-33.378-56.482-102.8-51.112-206.354v-.049c.009-1.439,1.824-144.557,81.765-204.113,23.25-17.322,50.889-26,82.607-26q28.549,0,61.436,9.39c46.746,13.371,86.38,19.36,120.716,19.358,118.783,0,174.047-71.682,240.061-157.319,7.217-9.364,14.681-19.045,22.328-28.761,47.927-60.913,88.278-109.677,134.72-137.006,48.751-28.7,102.41-32.918,173.985-13.683,50.768,13.641,111.691,53.458,162.97,106.513,55.162,57.073,90.17,120.952,96.046,175.261C1306.919,431.338,1276.872,481.319,1213.345,514.1Z" transform="translate(-120.47 -73.975)" fill="#111"/>
</svg>
