<svg xmlns="http://www.w3.org/2000/svg" width="37.27" height="60" viewBox="0 0 37.27 60">
  <g id="app-development" transform="translate(-96.98 0)">
    <g id="Group_83" data-name="Group 83" transform="translate(96.98 0)">
      <path id="Path_252" data-name="Path 252" d="M97.859,33.979a.88.88,0,0,0,.879-.882V3.733A1.967,1.967,0,0,1,100.7,1.764h29.831a1.968,1.968,0,0,1,1.962,1.969v6.5a.879.879,0,1,0,1.758,0v-6.5A3.73,3.73,0,0,0,130.531,0H100.7a3.73,3.73,0,0,0-3.72,3.733V33.1A.88.88,0,0,0,97.859,33.979Z" transform="translate(-96.98 0)" fill="#fff"/>
      <path id="Path_253" data-name="Path 253" d="M134.25,115.358a.879.879,0,0,0-1.758,0v36.334H98.738V138.122a.879.879,0,0,0-1.758,0V157.3a3.722,3.722,0,0,0,3.72,3.716h23.2a.878.878,0,1,0,0-1.756H100.7a1.963,1.963,0,0,1-1.962-1.96v-3.853h33.755V157.3a1.963,1.963,0,0,1-1.962,1.96H128a.878.878,0,1,0,0,1.756h2.534a3.722,3.722,0,0,0,3.72-3.716Z" transform="translate(-96.98 -101.017)" fill="#fff"/>
      <path id="Path_254" data-name="Path 254" d="M230.218,291.432a3.436,3.436,0,1,0,3.436,3.436A3.44,3.44,0,0,0,230.218,291.432Zm0,5.108a1.672,1.672,0,1,1,1.672-1.672A1.674,1.674,0,0,1,230.218,296.54Z" transform="translate(-211.583 -257.295)" fill="#fff"/>
      <path id="Path_255" data-name="Path 255" d="M187.831,234.9a1.834,1.834,0,0,0,.238-2.158l-1.051-1.831a1.809,1.809,0,0,0-1.975-.872l-1.988.449a.077.077,0,0,1-.06-.016,8.488,8.488,0,0,0-1.562-.908.076.076,0,0,1-.043-.044l-.608-1.956a1.814,1.814,0,0,0-1.738-1.286h-2.1a1.814,1.814,0,0,0-1.738,1.286l-.608,1.956a.076.076,0,0,1-.044.044,8.5,8.5,0,0,0-1.562.908.075.075,0,0,1-.06.016l-1.988-.449a1.808,1.808,0,0,0-1.975.872l-1.051,1.831a1.834,1.834,0,0,0,.238,2.158l1.38,1.508a.078.078,0,0,1,.016.061,8.529,8.529,0,0,0,0,1.814.077.077,0,0,1-.016.061l-1.38,1.508a1.834,1.834,0,0,0-.238,2.158l1.051,1.831a1.809,1.809,0,0,0,1.975.872l1.988-.449a.078.078,0,0,1,.061.016,8.484,8.484,0,0,0,1.562.908.076.076,0,0,1,.044.044l.608,1.956a1.814,1.814,0,0,0,1.738,1.286h2.1a1.814,1.814,0,0,0,1.738-1.286l.608-1.956a.076.076,0,0,1,.043-.044,8.482,8.482,0,0,0,1.563-.908.075.075,0,0,1,.06-.016l1.988.449a1.808,1.808,0,0,0,1.975-.872l1.051-1.831a1.833,1.833,0,0,0-.238-2.158l-1.38-1.508a.078.078,0,0,1-.016-.061,8.529,8.529,0,0,0,0-1.814.077.077,0,0,1,.016-.061Zm-3.139,1.757a6.754,6.754,0,0,1,0,1.438,1.847,1.847,0,0,0,.47,1.444l1.38,1.508a.068.068,0,0,1,.009.081l-1.051,1.831a.068.068,0,0,1-.074.032l-1.988-.449a1.818,1.818,0,0,0-1.477.313,6.731,6.731,0,0,1-1.24.721,1.835,1.835,0,0,0-1.006,1.13l-.608,1.957a.068.068,0,0,1-.065.048h-2.1a.068.068,0,0,1-.065-.048l-.608-1.956a1.836,1.836,0,0,0-1.006-1.13,6.735,6.735,0,0,1-1.239-.72,1.828,1.828,0,0,0-1.082-.357,1.8,1.8,0,0,0-.4.044l-1.988.449a.067.067,0,0,1-.074-.032l-1.051-1.831a.068.068,0,0,1,.009-.081l1.381-1.508a1.848,1.848,0,0,0,.47-1.443,6.756,6.756,0,0,1,0-1.438,1.847,1.847,0,0,0-.47-1.444l-1.38-1.508a.068.068,0,0,1-.009-.081l1.051-1.831a.067.067,0,0,1,.074-.032l1.988.449a1.819,1.819,0,0,0,1.477-.313,6.739,6.739,0,0,1,1.239-.721,1.835,1.835,0,0,0,1.006-1.13l.608-1.957a.068.068,0,0,1,.065-.048h2.1a.068.068,0,0,1,.065.048l.608,1.956a1.835,1.835,0,0,0,1.006,1.13,6.733,6.733,0,0,1,1.239.721,1.821,1.821,0,0,0,1.477.313l1.988-.449a.068.068,0,0,1,.074.032l1.051,1.831a.068.068,0,0,1-.009.081l-1.381,1.508A1.847,1.847,0,0,0,184.692,236.654Z" transform="translate(-159.357 -199.813)" fill="#fff"/>
      <path id="Path_256" data-name="Path 256" d="M248.872,56.569h-4.54a.882.882,0,1,0,0,1.764h4.54a.882.882,0,1,0,0-1.764Z" transform="translate(-226.298 -49.916)" fill="#fff"/>
      <path id="Path_257" data-name="Path 257" d="M173.62,58.333h4.514a.882.882,0,1,0,0-1.764H173.62a.882.882,0,1,0,0,1.764Z" transform="translate(-163.866 -49.916)" fill="#fff"/>
      <path id="Path_258" data-name="Path 258" d="M173.62,90.659h10.231a.882.882,0,1,0,0-1.764H173.62a.882.882,0,0,0,0,1.764Z" transform="translate(-163.875 -78.479)" fill="#fff"/>
      <path id="Path_259" data-name="Path 259" d="M292.058,89.777a.882.882,0,0,0,.882.882h3.787a.882.882,0,0,0,0-1.764H292.94A.882.882,0,0,0,292.058,89.777Z" transform="translate(-269.211 -78.479)" fill="#fff"/>
      <path id="Path_260" data-name="Path 260" d="M173.62,122.984H177.9a.882.882,0,1,0,0-1.764H173.62a.882.882,0,0,0,0,1.764Z" transform="translate(-163.866 -107.016)" fill="#fff"/>
      <path id="Path_261" data-name="Path 261" d="M244.464,121.22h-2.153a.882.882,0,1,0,0,1.764h2.153a.882.882,0,1,0,0-1.764Z" transform="translate(-224.508 -107.016)" fill="#fff"/>
      <path id="Path_262" data-name="Path 262" d="M296.621,121.22h-3.8a.882.882,0,0,0,0,1.764h3.8a.882.882,0,0,0,0-1.764Z" transform="translate(-269.105 -107.016)" fill="#fff"/>
      <path id="Path_263" data-name="Path 263" d="M173.62,155.309h10.231a.882.882,0,0,0,0-1.764H173.62a.882.882,0,0,0,0,1.764Z" transform="translate(-163.875 -135.553)" fill="#fff"/>
      <path id="Path_264" data-name="Path 264" d="M296.714,153.545H292.94a.882.882,0,1,0,0,1.764h3.774a.882.882,0,1,0,0-1.764Z" transform="translate(-269.211 -135.553)" fill="#fff"/>
      <path id="Path_265" data-name="Path 265" d="M173.62,187.634H175.4a.882.882,0,0,0,0-1.764H173.62a.882.882,0,1,0,0,1.764Z" transform="translate(-163.863 -164.091)" fill="#fff"/>
      <path id="Path_266" data-name="Path 266" d="M233.32,185.87H221.1a.882.882,0,0,0,0,1.764H233.32a.882.882,0,1,0,0-1.764Z" transform="translate(-205.804 -164.091)" fill="#fff"/>
      <path id="Path_267" data-name="Path 267" d="M316.218,58.333a.882.882,0,1,0,0-1.764h-1.175a.882.882,0,1,0,0,1.764Z" transform="translate(-288.718 -49.916)" fill="#fff"/>
      <path id="Path_268" data-name="Path 268" d="M136.341,32.416a.882.882,0,0,0-1.183.394l-.713,1.426a.882.882,0,0,0,0,.789l.713,1.426a.882.882,0,0,0,1.578-.789l-.516-1.031.516-1.031A.882.882,0,0,0,136.341,32.416Z" transform="translate(-129.957 -28.521)" fill="#fff"/>
      <path id="Path_269" data-name="Path 269" d="M357.073,166.147a.881.881,0,0,0,1.183-.394l.713-1.426a.882.882,0,0,0,0-.789l-.713-1.426a.882.882,0,0,0-1.578.789l.516,1.031-.516,1.031A.882.882,0,0,0,357.073,166.147Z" transform="translate(-326.187 -142.69)" fill="#fff"/>
    </g>
  </g>
</svg>
