<svg xmlns="http://www.w3.org/2000/svg" xmlns:xlink="http://www.w3.org/1999/xlink" width="603.172" height="785.337" viewBox="0 0 603.172 785.337">
  <defs>
    <linearGradient id="linear-gradient" x1="0.5" x2="0.5" y2="1" gradientUnits="objectBoundingBox">
      <stop offset="0" stop-color="#ff9594"/>
      <stop offset="1" stop-color="#ff5b5a"/>
    </linearGradient>
  </defs>
  <g id="Group_87" data-name="Group 87" transform="translate(94.999 -1439.463)">
    <g id="Line_Illustration" data-name="Line Illustration" transform="translate(-94.999 1439.463)" opacity="0.2" style="mix-blend-mode: multiply;isolation: isolate">
      <g id="Group_73" data-name="Group 73" transform="translate(0 57.308)">
        <path id="Path_244" data-name="Path 244" d="M515.557,728.029c.032-.229.883-6.1,2.648-15.778s4.446-23.157,8.137-38.6,8.394-32.852,14.2-50.383A371,371,0,0,1,561.4,572.146a159.873,159.873,0,0,0,8.963-20.823,95.522,95.522,0,0,0,4.489-18.665,64.434,64.434,0,0,0,.056-16.821,55.427,55.427,0,0,0-4.336-15.29A62.707,62.707,0,0,0,558.2,482.579a100.62,100.62,0,0,0-20.194-15.8,183.626,183.626,0,0,0-28.193-13.731,334.548,334.548,0,0,0-36.362-11.768q-8.943-2.389-17.877-4.515t-17.807-4.073q-8.874-1.947-17.662-3.759t-17.443-3.571c-9.81-2-19.484-3.963-28.871-6s-18.487-4.14-27.15-6.409-16.888-4.7-24.524-7.394a159.691,159.691,0,0,1-20.994-8.955,86.345,86.345,0,0,1-17.745-12.039,55,55,0,0,1-11.632-14.426,50.539,50.539,0,0,1-5.672-17.092,70.571,70.571,0,0,1,.136-20.037q.535-3.869,1.149-7.966t1.285-8.384q.671-4.288,1.389-8.748t1.463-9.058c1.7-10.481,3.5-21.6,5.2-33.091s3.315-23.344,4.631-35.292,2.338-23.989,2.868-35.849a339.855,339.855,0,0,0-.088-34.762,200.648,200.648,0,0,0-5.031-35.715,115.247,115.247,0,0,0-10.541-28.114,77.257,77.257,0,0,0-16.145-20.685A72.664,72.664,0,0,0,230.551,61.92,294.857,294.857,0,0,0,200,51.823c-10.747-2.968-21.965-5.572-33.374-7.915s-23.008-4.424-34.518-6.346-22.932-3.685-33.985-5.391c-13.163-2.032-25.876-3.994-37.531-6.06S38.34,21.875,29.413,19.428,13.228,14.256,8.248,11.081.568,4.281.757.033L.01,0c-.2,4.416,2.381,8.148,7.22,11.4s11.939,6.011,20.788,8.489S47.467,24.554,59.3,26.659s24.909,4.123,38.706,6.252c11.043,1.7,22.454,3.466,33.954,5.386s23.087,4,34.483,6.338,22.6,4.94,33.33,7.9a294.078,294.078,0,0,1,30.5,10.078,71.863,71.863,0,0,1,21.647,13.32,76.645,76.645,0,0,1,16,20.541,114.665,114.665,0,0,1,10.451,27.933,199.938,199.938,0,0,1,4.992,35.5,339.159,339.159,0,0,1,.087,34.707c-.529,11.844-1.551,23.87-2.866,35.805s-2.924,23.779-4.628,35.257-3.5,22.59-5.2,33.062q-.744,4.6-1.463,9.061t-1.39,8.752q-.671,4.29-1.285,8.389t-1.149,7.972a71.494,71.494,0,0,0-.139,20.282,51.161,51.161,0,0,0,5.735,17.3,55.617,55.617,0,0,0,11.763,14.6,87.265,87.265,0,0,0,17.947,12.178,160.32,160.32,0,0,0,21.057,8.986c7.655,2.7,15.9,5.14,24.575,7.414s17.793,4.382,27.193,6.421,19.088,4.009,28.911,6.007q8.649,1.759,17.434,3.57t17.653,3.757q8.868,1.946,17.8,4.071T473.26,442a334.392,334.392,0,0,1,36.2,11.708,183.184,183.184,0,0,1,28.058,13.642A100.035,100.035,0,0,1,557.6,483.032a62.034,62.034,0,0,1,12.279,17.819,54.663,54.663,0,0,1,4.282,15.127,63.81,63.81,0,0,1-.071,16.661,94.937,94.937,0,0,1-4.465,18.506,159.263,159.263,0,0,1-8.9,20.663,371.648,371.648,0,0,0-20.886,51.2c-5.82,17.558-10.53,34.991-14.227,50.457s-6.381,28.966-8.15,38.656-2.62,15.571-2.653,15.8Z" fill="#48b774"/>
      </g>
      <g id="Group_74" data-name="Group 74" transform="translate(12.507 45.846)">
        <path id="Path_245" data-name="Path 245" d="M515.558,728.016c.022-.207.606-5.529,1.91-14.41s3.328-21.322,6.229-35.767,6.679-30.893,11.492-47.79a411.629,411.629,0,0,1,17.7-50.479c2.695-6.216,5.385-12.876,7.7-19.792a139.2,139.2,0,0,0,5.456-21.32,85.343,85.343,0,0,0,1-21.7,60.391,60.391,0,0,0-5.68-20.944,64.828,64.828,0,0,0-11.94-16.852,95.877,95.877,0,0,0-18.529-14.642,162.961,162.961,0,0,0-25.272-12.527,283.19,283.19,0,0,0-32.17-10.508q-8.943-2.389-17.877-4.515t-17.807-4.073q-8.874-1.947-17.662-3.759t-17.443-3.571c-9.809-2-19.483-3.963-28.87-6s-18.487-4.14-27.15-6.409-16.888-4.7-24.524-7.394a159.658,159.658,0,0,1-20.994-8.956,86.331,86.331,0,0,1-17.744-12.038,55,55,0,0,1-11.631-14.426,50.543,50.543,0,0,1-5.672-17.092,70.568,70.568,0,0,1,.135-20.036q.376-2.717.779-5.526t.827-5.708q.424-2.9.868-5.886t.9-6.061c3.091-20.759,6.576-44.17,8.852-68.095s3.342-48.362,1.594-71.173-6.312-43.995-15.295-61.412S242.353,78.084,222.926,70.34c-8.927-3.559-18.46-6.807-28.365-9.8s-20.179-5.744-30.59-8.3-20.958-4.925-31.406-7.164-20.8-4.349-30.811-6.391C88.1,35.9,74.909,33.206,62.819,30.458s-23.083-5.553-32.344-8.569S13.685,15.645,8.522,12.053.559,4.506.758.033L.011,0C-.2,4.632,2.475,8.682,7.491,12.334s12.376,6.906,21.55,9.945S49.2,28.144,61.474,30.938,87.3,36.5,101.6,39.413c10.007,2.04,20.348,4.149,30.788,6.386s20.977,4.6,31.378,7.157,20.665,5.3,30.557,8.291,19.411,6.236,28.323,9.789c19.289,7.689,32.592,21.277,41.5,38.627s13.431,38.462,15.154,61.2.65,47.1-1.625,70.959-5.751,47.2-8.832,67.9q-.458,3.074-.9,6.062t-.869,5.888q-.425,2.9-.828,5.71t-.779,5.528a71.49,71.49,0,0,0-.139,20.282,51.163,51.163,0,0,0,5.735,17.3,55.619,55.619,0,0,0,11.763,14.6,87.258,87.258,0,0,0,17.947,12.178,160.329,160.329,0,0,0,21.057,8.986c7.655,2.7,15.9,5.14,24.575,7.414s17.793,4.382,27.193,6.421,19.088,4.009,28.911,6.007q8.649,1.759,17.434,3.57t17.653,3.757q8.868,1.946,17.8,4.071T473.259,442a282.873,282.873,0,0,1,32.015,10.45A162.451,162.451,0,0,1,530.415,464.9a95.267,95.267,0,0,1,18.421,14.529,64.138,64.138,0,0,1,11.854,16.711,59.662,59.662,0,0,1,5.613,20.752,84.754,84.754,0,0,1-1.01,21.537,138.707,138.707,0,0,1-5.433,21.177c-2.3,6.872-4.979,13.492-7.657,19.671a412.345,412.345,0,0,0-17.729,50.558c-4.82,16.922-8.6,33.394-11.51,47.859s-4.932,26.923-6.238,35.816-1.891,14.222-1.913,14.43Z" fill="#48b774"/>
      </g>
      <g id="Group_75" data-name="Group 75" transform="translate(25.012 34.385)">
        <path id="Path_246" data-name="Path 246" d="M515.56,728c.012-.186.326-4.959,1.163-13.048s2.2-19.494,4.306-32.941,4.958-28.938,8.777-45.2a451,451,0,0,1,14.576-49.818c3.164-8.754,6.172-17.428,8.678-25.947a178.3,178.3,0,0,0,5.668-25.018,92.319,92.319,0,0,0,.582-23.645,62.116,62.116,0,0,0-6.579-21.827,64.537,64.537,0,0,0-11.343-15.4,90.781,90.781,0,0,0-16.9-13.287,146.768,146.768,0,0,0-22.6-11.265,245.829,245.829,0,0,0-28.434-9.328q-8.943-2.389-17.877-4.515t-17.807-4.073q-8.874-1.947-17.662-3.759t-17.443-3.572c-9.81-2-19.484-3.963-28.871-6s-18.487-4.14-27.15-6.408-16.888-4.7-24.524-7.394a159.646,159.646,0,0,1-20.994-8.955,86.333,86.333,0,0,1-17.745-12.038,54.994,54.994,0,0,1-11.632-14.426,50.539,50.539,0,0,1-5.672-17.092,70.566,70.566,0,0,1,.136-20.036q.165-1.2.334-2.408t.34-2.44q.171-1.228.346-2.472t.351-2.5c1.467-10.469,3.023-21.577,4.466-33.081s2.773-23.4,3.787-35.455,1.712-24.253,1.891-36.362a341.246,341.246,0,0,0-1.221-35.8q-.866-9.532-2.357-18.279t-3.6-16.671a148.343,148.343,0,0,0-4.82-15.008,117.327,117.327,0,0,0-6.03-13.289,96.909,96.909,0,0,0-8.567-13.353,85.9,85.9,0,0,0-10.282-11.222A82.237,82.237,0,0,0,228.9,85.614,85.686,85.686,0,0,0,215.3,78.76c-8.138-3.244-16.742-6.315-25.623-9.239s-18.039-5.7-27.283-8.351-18.574-5.18-27.8-7.608S116.248,48.8,107.42,46.551C93,42.869,79.068,39.313,66.3,35.751s-24.379-7.128-34.16-10.831S14.407,17.38,8.954,13.276.546,4.8.758.033L.011,0C-.208,4.919,2.759,9.408,8.239,13.605s13.472,8.1,23.3,11.858S53.049,32.82,65.888,36.409s26.847,7.165,41.348,10.868c8.822,2.252,17.938,4.58,27.158,7.006s18.544,4.953,27.78,7.6,18.386,5.422,27.258,8.342,17.466,5.988,25.592,9.227a83.6,83.6,0,0,1,23.916,14.4,86.76,86.76,0,0,1,18.024,21.862A123.9,123.9,0,0,1,269.2,145.222a207.952,207.952,0,0,1,6.559,37.337,340.454,340.454,0,0,1,1.219,35.745c-.179,12.092-.877,24.279-1.89,36.316s-2.342,23.925-3.784,35.418-3,22.591-4.462,33.05l-.351,2.5q-.174,1.244-.346,2.472t-.34,2.441q-.168,1.212-.333,2.409a71.48,71.48,0,0,0-.139,20.282,51.16,51.16,0,0,0,5.735,17.3,55.619,55.619,0,0,0,11.764,14.6,87.265,87.265,0,0,0,17.947,12.178,160.282,160.282,0,0,0,21.056,8.986c7.655,2.7,15.9,5.14,24.575,7.413s17.793,4.381,27.193,6.42,19.088,4.009,28.911,6.007q8.65,1.759,17.435,3.57t17.653,3.757q8.869,1.946,17.8,4.071T473.261,442a245.36,245.36,0,0,1,28.285,9.273,146.206,146.206,0,0,1,22.471,11.184,90.156,90.156,0,0,1,16.795,13.181A63.832,63.832,0,0,1,552.067,490.9a61.4,61.4,0,0,1,6.505,21.643,91.831,91.831,0,0,1-.6,23.489,178.009,178.009,0,0,1-5.651,24.882c-2.5,8.476-5.491,17.108-8.64,25.822a451.619,451.619,0,0,0-14.6,49.893c-3.824,16.284-6.68,31.8-8.79,45.264s-3.473,24.888-4.312,32.989-1.153,12.881-1.165,13.067Z" fill="#48b774"/>
      </g>
      <g id="Group_76" data-name="Group 76" transform="translate(37.517 22.922)">
        <path id="Path_247" data-name="Path 247" d="M515.562,727.98c0-.164.041-4.391.407-11.69s1.06-17.671,2.368-30.123,3.232-26.984,6.058-42.606a479.608,479.608,0,0,1,11.479-49.141q.447-1.525.9-3.051t.91-3.051q.457-1.525.917-3.049t.92-3.046c2.681-8.879,5.326-17.634,7.543-26.2a192.493,192.493,0,0,0,4.985-25.094,92.41,92.41,0,0,0,.09-23.612A61.4,61.4,0,0,0,545,485.553a62.532,62.532,0,0,0-10.64-13.915,85.341,85.341,0,0,0-15.387-11.965,133.386,133.386,0,0,0-20.259-10.093,217.489,217.489,0,0,0-25.257-8.3q-8.943-2.389-17.877-4.515t-17.807-4.073q-8.874-1.947-17.662-3.759t-17.442-3.572c-9.81-2-19.484-3.963-28.871-6s-18.487-4.14-27.15-6.409-16.888-4.7-24.524-7.394a159.687,159.687,0,0,1-20.994-8.955,86.334,86.334,0,0,1-17.745-12.038,54.994,54.994,0,0,1-11.632-14.426,50.539,50.539,0,0,1-5.672-17.092,70.564,70.564,0,0,1,.135-20.036c1.523-11.012,3.044-22.448,4.387-34.121s2.509-23.584,3.322-35.546,1.273-23.976,1.2-35.855a327.042,327.042,0,0,0-1.969-35.049q-1.093-9.588-2.818-18.4t-4.073-16.818a151.059,151.059,0,0,0-5.311-15.177,121.736,121.736,0,0,0-6.533-13.48,102.359,102.359,0,0,0-9.148-13.57,92.159,92.159,0,0,0-10.867-11.445,89.128,89.128,0,0,0-12.545-9.284,93.092,93.092,0,0,0-14.182-7.086c-7.034-2.8-14.31-5.521-21.751-8.169s-15.049-5.226-22.744-7.751-15.479-5-23.275-7.433-15.6-4.834-23.342-7.213C100.91,51.8,85.785,47.155,71.92,42.566S45.449,33.449,34.83,28.874s-19.252-9.2-25.173-13.968S.529,5.212.759.034L.012,0C-.224,5.323,3,10.358,8.941,15.22S23.558,24.77,34.226,29.4s23.332,9.192,37.263,13.81,29.127,9.287,44.861,14.122c7.737,2.378,15.54,4.775,23.331,7.21s15.571,4.905,23.262,7.429,15.293,5.1,22.729,7.746,14.705,5.361,21.731,8.162a91.084,91.084,0,0,1,25.055,14.84,92.517,92.517,0,0,1,19.111,22.267,127.57,127.57,0,0,1,13.281,29.876,207.961,207.961,0,0,1,7.565,37.67,326.4,326.4,0,0,1,1.963,34.99c.068,11.861-.392,23.858-1.2,35.805s-1.977,23.843-3.319,35.5-2.861,23.084-4.382,34.084a71.5,71.5,0,0,0-.139,20.282,51.163,51.163,0,0,0,5.735,17.3,55.614,55.614,0,0,0,11.763,14.6,87.25,87.25,0,0,0,17.947,12.177,160.3,160.3,0,0,0,21.056,8.986c7.655,2.7,15.9,5.14,24.575,7.414s17.793,4.382,27.193,6.421,19.088,4.01,28.911,6.008q8.65,1.759,17.434,3.57t17.653,3.757q8.868,1.946,17.8,4.071t17.863,4.512a216.941,216.941,0,0,1,25.113,8.245,132.792,132.792,0,0,1,20.135,10.016,84.708,84.708,0,0,1,15.282,11.864,61.827,61.827,0,0,1,10.553,13.788,60.662,60.662,0,0,1,7.059,21.572,91.98,91.98,0,0,1-.116,23.462,192.422,192.422,0,0,1-4.972,24.967c-2.209,8.531-4.842,17.248-7.511,26.087q-.46,1.523-.92,3.047t-.917,3.05q-.457,1.525-.91,3.052t-.9,3.052a480.355,480.355,0,0,0-11.5,49.217c-2.831,15.646-4.757,30.2-6.067,42.672s-2,22.858-2.371,30.169-.407,11.544-.408,11.709Z" fill="#48b774"/>
      </g>
      <g id="Group_77" data-name="Group 77" transform="translate(50.024 11.46)">
        <path id="Path_248" data-name="Path 248" d="M514.815,728l.747-.051c-.01-.143-.249-3.825-.358-10.336s-.091-15.85.415-27.307,1.5-25.032,3.338-40.013a485.689,485.689,0,0,1,8.408-48.454q.806-3.545,1.709-7.121t1.861-7.15q.958-3.574,1.951-7.128t1.98-7.058c2.38-8.451,4.726-16.786,6.677-24.938a184.625,184.625,0,0,0,4.3-23.85,88.758,88.758,0,0,0-.255-22.376,57.62,57.62,0,0,0-16.854-33.284,79.1,79.1,0,0,0-14.07-10.945,121.119,121.119,0,0,0-18.389-9.195,194.516,194.516,0,0,0-22.821-7.515q-8.943-2.389-17.876-4.516t-17.807-4.074q-8.874-1.948-17.663-3.759t-17.443-3.571c-9.81-2-19.484-3.963-28.871-6s-18.487-4.14-27.15-6.409-16.887-4.7-24.524-7.394a159.685,159.685,0,0,1-20.994-8.955,86.331,86.331,0,0,1-17.744-12.038,55,55,0,0,1-11.632-14.426,50.543,50.543,0,0,1-5.672-17.092,70.57,70.57,0,0,1,.135-20.036c1.246-9.012,2.54-19.105,3.661-29.91s2.069-22.322,2.624-34.18.716-24.058.264-36.229a295.362,295.362,0,0,0-3.419-36.058,191.755,191.755,0,0,0-9.1-35.65,130.246,130.246,0,0,0-14.622-28.782,101.216,101.216,0,0,0-20.082-21.825A98.855,98.855,0,0,0,200.057,95.6c-5.334-2.126-10.8-4.243-16.355-6.35s-11.2-4.2-16.881-6.286-11.412-4.154-17.136-6.209-11.445-4.1-17.118-6.119c-17.079-6.09-33.92-12.1-49.56-18.042S52.929,40.763,40.658,34.912,18.283,23.246,11.312,17.441.5,5.842.759.034L.013,0C-.252,5.946,3.6,11.849,10.595,17.741S27.732,29.515,40.049,35.418s26.811,11.826,42.512,17.8,32.608,12.006,49.754,18.12c5.671,2.022,11.391,4.062,17.113,6.116s11.448,4.124,17.13,6.207,11.322,4.178,16.874,6.284,11.016,4.223,16.346,6.348a98.065,98.065,0,0,1,25.307,14.684,100.555,100.555,0,0,1,19.947,21.7A129.587,129.587,0,0,1,259.56,161.3a190.971,190.971,0,0,1,9.046,35.457,294.713,294.713,0,0,1,3.41,35.989c.451,12.15.289,24.33-.266,36.169s-1.5,23.34-2.621,34.129-2.411,20.869-3.656,29.869a71.489,71.489,0,0,0-.139,20.282,51.162,51.162,0,0,0,5.735,17.3,55.621,55.621,0,0,0,11.763,14.6,87.267,87.267,0,0,0,17.946,12.178,160.324,160.324,0,0,0,21.057,8.986c7.655,2.7,15.9,5.14,24.575,7.414s17.792,4.382,27.193,6.421,19.087,4.01,28.91,6.008q8.65,1.759,17.435,3.57t17.653,3.757q8.869,1.946,17.8,4.071t17.863,4.512a193.951,193.951,0,0,1,22.678,7.463,120.52,120.52,0,0,1,18.265,9.119,78.455,78.455,0,0,1,13.965,10.846,56.859,56.859,0,0,1,16.684,32.977,88.324,88.324,0,0,1,.228,22.228,184.519,184.519,0,0,1-4.29,23.723c-1.943,8.113-4.279,16.409-6.648,24.821q-.987,3.507-1.981,7.065t-1.953,7.136q-.959,3.578-1.864,7.159t-1.712,7.134a486.486,486.486,0,0,0-8.421,48.535c-1.841,15.007-2.835,28.606-3.342,40.083s-.526,20.833-.415,27.355S514.805,727.861,514.815,728Z" fill="#48b774"/>
      </g>
      <g id="Group_78" data-name="Group 78" transform="translate(62.529)">
        <path id="Path_249" data-name="Path 249" d="M514.82,728.04l.738-.127c-.021-.121-.542-3.258-1.132-8.98s-1.251-14.029-1.551-24.491-.238-23.078.615-37.418a461.67,461.67,0,0,1,5.364-47.76c.567-3.432,1.245-6.893,2-10.367s1.6-6.963,2.495-10.451,1.838-6.976,2.8-10.449,1.955-6.932,2.935-10.361c2.353-8.234,4.674-16.353,6.611-24.29a181.856,181.856,0,0,0,4.308-23.192,86.236,86.236,0,0,0-.1-21.682,54.312,54.312,0,0,0-15.727-31.632,72.8,72.8,0,0,0-12.939-10.153,110.144,110.144,0,0,0-16.874-8.5,175.6,175.6,0,0,0-20.914-6.909q-8.943-2.389-17.877-4.515t-17.807-4.073q-8.874-1.947-17.662-3.759t-17.443-3.571c-9.809-2-19.483-3.963-28.87-6s-18.487-4.14-27.15-6.409-16.888-4.7-24.524-7.394a159.662,159.662,0,0,1-20.994-8.956,86.345,86.345,0,0,1-17.745-12.039,55,55,0,0,1-11.632-14.426,50.539,50.539,0,0,1-5.672-17.092,70.571,70.571,0,0,1,.136-20.037q2.7-19.51,4-37.585t1.22-34.636q-.086-16.562-1.563-31.572a254.67,254.67,0,0,0-4.346-28.392,181.908,181.908,0,0,0-10.52-33.709,131.271,131.271,0,0,0-15.732-27.428,108.482,108.482,0,0,0-20.88-21.061,109.574,109.574,0,0,0-25.964-14.609q-3.213-1.281-6.468-2.571t-6.544-2.59q-3.289-1.3-6.607-2.607l-6.657-2.623c-19.527-7.693-39.705-15.642-58.97-23.675S69.573,53.8,53.7,45.773,24.441,29.8,15.1,22.122.45,7.02.76.033L.013,0c-.316,7.121,5,14.647,14.367,22.414S37.179,38.188,53.1,46.27s34.321,16.237,53.642,24.3,39.56,16.037,59.145,23.752l6.657,2.623q3.317,1.307,6.606,2.607t6.543,2.59q3.254,1.29,6.467,2.571A106.847,106.847,0,0,1,238.7,140.175a130.6,130.6,0,0,1,15.636,27.278,181.144,181.144,0,0,1,10.461,33.53,253.972,253.972,0,0,1,4.334,28.327q1.473,14.968,1.558,31.507t-1.219,34.572q-1.3,18.033-4,37.52a71.486,71.486,0,0,0-.139,20.282,51.161,51.161,0,0,0,5.735,17.3,55.619,55.619,0,0,0,11.764,14.6,87.264,87.264,0,0,0,17.947,12.178,160.3,160.3,0,0,0,21.057,8.986c7.655,2.7,15.9,5.14,24.575,7.413s17.793,4.381,27.193,6.42,19.088,4.009,28.911,6.007q8.649,1.76,17.434,3.571t17.653,3.757q8.868,1.946,17.8,4.07T473.263,442a175.01,175.01,0,0,1,20.771,6.856,109.55,109.55,0,0,1,16.751,8.422,72.16,72.16,0,0,1,12.835,10.053,53.533,53.533,0,0,1,15.558,31.324,85.83,85.83,0,0,1,.074,21.533,181.864,181.864,0,0,1-4.3,23.066c-1.929,7.9-4.238,15.978-6.58,24.174-.981,3.434-1.971,6.9-2.94,10.376s-1.915,6.972-2.81,10.467-1.738,6.99-2.5,10.473-1.442,6.952-2.01,10.395A462.391,462.391,0,0,0,512.741,657c-.854,14.369-.914,27.012-.613,37.5s.964,18.81,1.556,24.545S514.8,727.918,514.82,728.04Z" fill="#48b774"/>
      </g>
    </g>
    <g id="Group_84" data-name="Group 84" transform="translate(-97.778 1519.025)" style="isolation: isolate">
      <path id="Path_243" data-name="Path 243" d="M410.74,265.545l-14.962-14.962,14.962-14.962L425.7,250.583Zm-13.9-14.962,13.9,13.9,13.9-13.9-13.9-13.9Z" fill="url(#linear-gradient)"/>
    </g>
  </g>
</svg>
