<svg xmlns="http://www.w3.org/2000/svg" width="51.914" height="60" viewBox="0 0 51.914 60">
  <g id="brain" transform="translate(-34.5 0)">
    <path id="Path_270" data-name="Path 270" d="M85.242,25.639a1.172,1.172,0,1,0,0-2.344H80.8v-3.19h4.439a1.172,1.172,0,1,0,0-2.344H80.8V15.844a1.172,1.172,0,0,0-.343-.828l-3.389-3.392a1.172,1.172,0,0,0-.829-.344H74.325V6.845a1.172,1.172,0,1,0-2.344,0v4.435H68.79V6.845a1.172,1.172,0,0,0-2.344,0v4.435H63.258v-4.2a7.084,7.084,0,0,0-13.9-1.922,10.571,10.571,0,0,0-9.482,10.515,10.613,10.613,0,0,0,.8,4.04,11.653,11.653,0,0,0,0,20.57,10.573,10.573,0,0,0,8.683,14.552,7.083,7.083,0,0,0,13.9-1.918v-4.2h3.188v4.439a1.172,1.172,0,0,0,2.344,0V48.716h3.191v4.439a1.172,1.172,0,1,0,2.344,0V48.716h1.918a1.172,1.172,0,0,0,.829-.343l3.389-3.388a1.172,1.172,0,0,0,.343-.829V42.235h4.439a1.172,1.172,0,1,0,0-2.344H80.8V36.7h4.439a1.172,1.172,0,0,0,0-2.344H80.8V31.17h4.439a1.172,1.172,0,1,0,0-2.344H80.8V25.639ZM56.176,57.656A4.76,4.76,0,0,1,51.8,54.734a10.4,10.4,0,0,0,5.586-2.956,1.172,1.172,0,0,0-1.675-1.64,8.034,8.034,0,0,1-2.4,1.685,7.949,7.949,0,0,1-3.007.723A8.229,8.229,0,0,1,43.268,40.3a1.172,1.172,0,0,0-.585-1.662,9.307,9.307,0,0,1,0-17.274,1.172,1.172,0,0,0,.586-1.661A8.231,8.231,0,0,1,50.305,7.45a8.032,8.032,0,0,1,5.4,2.409,1.172,1.172,0,1,0,1.678-1.636,10.325,10.325,0,0,0-3.1-2.182A10.437,10.437,0,0,0,51.8,5.263a4.739,4.739,0,0,1,9.115,1.818V21.449H57.266L54.157,18.34A4.159,4.159,0,1,0,52.5,20l3.454,3.453a1.248,1.248,0,0,0,.829.343h4.134v5.034H53.571a4.158,4.158,0,1,0,0,2.344h7.344V36.2H56.781c-.031,0-.058,0-.083,0a1.167,1.167,0,0,0-.746.339L52.5,40a4.157,4.157,0,0,0-6.149,3.651,4.158,4.158,0,1,0,7.808-2l3.11-3.112h3.648V52.919a4.743,4.743,0,0,1-4.738,4.738ZM52.321,16.348a1.814,1.814,0,1,1-.531-1.282A1.8,1.8,0,0,1,52.321,16.348ZM51.4,30a1.813,1.813,0,1,1-1.815-1.811A1.817,1.817,0,0,1,51.4,30Zm.924,13.655a1.794,1.794,0,0,1-.531,1.278,1.817,1.817,0,0,1-2.567,0,1.809,1.809,0,0,1,0-2.56,1.816,1.816,0,0,1,2.565,0h0A1.8,1.8,0,0,1,52.321,43.653Zm26.138.017-2.7,2.7h-12.5V42.9H73.814a1.172,1.172,0,0,0,1.172-1.172V35.257a1.172,1.172,0,1,0-2.344,0v5.3H63.258V19.444h9.384V24.73a1.172,1.172,0,1,0,2.344,0V18.272A1.172,1.172,0,0,0,73.814,17.1H63.258V13.625h12.5l2.7,2.7Z" transform="translate(0 0)" fill="#fff"/>
    <path id="Path_271" data-name="Path 271" d="M361.151,245.958a1.172,1.172,0,0,0-1.172,1.172v0a1.172,1.172,0,1,0,1.172-1.175Z" transform="translate(-287.337 -217.135)" fill="#fff"/>
  </g>
</svg>
