<svg xmlns="http://www.w3.org/2000/svg" width="31.88" height="25" viewBox="0 0 31.88 25">
  <path id="Icon_awesome-comments" data-name="Icon awesome-comments" d="M22.286,10.821c0-4.736-4.987-8.571-11.143-8.571S0,6.086,0,10.821A7.268,7.268,0,0,0,2.036,15.75,12.058,12.058,0,0,1,.118,18.67a.426.426,0,0,0-.08.466.42.42,0,0,0,.391.257A9.433,9.433,0,0,0,5.18,18.054a13.631,13.631,0,0,0,5.963,1.339C17.3,19.393,22.286,15.557,22.286,10.821Zm6.536,11.786a7.258,7.258,0,0,0,2.036-4.929c0-3.584-2.866-6.654-6.927-7.934A7.961,7.961,0,0,1,24,10.821c0,5.673-5.77,10.286-12.857,10.286a16.061,16.061,0,0,1-1.7-.1c1.688,3.08,5.652,5.245,10.27,5.245a13.557,13.557,0,0,0,5.963-1.339,9.433,9.433,0,0,0,4.752,1.339.422.422,0,0,0,.391-.257.429.429,0,0,0-.08-.466A11.93,11.93,0,0,1,28.821,22.607Z" transform="translate(0.512 -1.75)" fill="none" stroke="#ccc" stroke-width="1"/>
</svg>
