<svg xmlns="http://www.w3.org/2000/svg" width="36.501" height="31.69" viewBox="0 0 36.501 31.69">
  <g id="graphic-progression" transform="translate(0 -21.451)">
    <g id="Layer_5_45_" transform="translate(0 21.451)">
      <g id="Group_31" data-name="Group 31" transform="translate(0 0)">
        <g id="Group_28" data-name="Group 28" transform="translate(1.458 20.701)">
          <path id="Path_37" data-name="Path 37" d="M23.315,215.355a1.687,1.687,0,0,1-1.682,1.682H14.68A1.687,1.687,0,0,1,13,215.355v-7.626a1.687,1.687,0,0,1,1.682-1.682h6.953a1.687,1.687,0,0,1,1.682,1.682Z" transform="translate(-12.998 -206.047)" fill="#fff"/>
        </g>
        <g id="Group_29" data-name="Group 29" transform="translate(13.821 16.664)">
          <path id="Path_38" data-name="Path 38" d="M133.565,183.392a1.687,1.687,0,0,1-1.682,1.682H124.93a1.687,1.687,0,0,1-1.682-1.682V171.729a1.687,1.687,0,0,1,1.682-1.682h6.953a1.687,1.687,0,0,1,1.682,1.682Z" transform="translate(-123.248 -170.047)" fill="#fff"/>
        </g>
        <g id="Group_30" data-name="Group 30" transform="translate(26.185 12.178)">
          <path id="Path_39" data-name="Path 39" d="M243.815,147.877a1.687,1.687,0,0,1-1.682,1.682H235.18a1.687,1.687,0,0,1-1.682-1.682V131.729a1.687,1.687,0,0,1,1.682-1.682h6.953a1.687,1.687,0,0,1,1.682,1.682Z" transform="translate(-233.498 -130.047)" fill="#fff"/>
        </g>
        <path id="Path_40" data-name="Path 40" d="M35.046,21.483,27.49,23.321c-.6.145-.733.621-.3,1.057l1.612,1.575c.135.154-.025.36-.153.446A48.232,48.232,0,0,1,23.8,29.27C11.676,35.6,1.681,35.208,1.531,35.2a1.458,1.458,0,0,0-.149,2.912c.059,0,.3.014.7.014,2.591,0,11.9-.447,23.063-6.271a49.391,49.391,0,0,0,5.541-3.319c.151-.106.415-.29.658-.042l1.763,1.763c.436.436.909.3,1.052-.3l1.714-7.649C36.019,21.71,35.645,21.337,35.046,21.483Z" transform="translate(0 -21.451)" fill="#fff"/>
      </g>
    </g>
  </g>
</svg>
