<svg xmlns="http://www.w3.org/2000/svg" width="1115.102" height="739" viewBox="0 0 1115.102 739">
  <g id="Line_Illustration" data-name="Line Illustration" transform="translate(-120.47 -73.975)" opacity="0.02">
    <path id="Path_36" data-name="Path 36" d="M1234.694,352.415c-5.586-51.639-38.792-112.3-91.1-166.42C1095,135.726,1037.215,97.981,989.008,85.03,846.665,46.785,787.742,111,695.843,227.8c-7.215,9.168-14.254,18.3-21.06,27.129-40.781,52.9-76,98.587-125.985,124.828-54.793,28.762-122.141,30.2-211.939,4.516-55.678-15.926-101.973-10.548-137.584,15.983-75.831,56.491-77.877,191.466-77.9,194.018-5.091,98.273,11.362,164.272,48.9,196.168,17.723,15.06,39.915,22.536,67.231,22.534a197.07,197.07,0,0,0,40.623-4.652c21.158-4.477,42.4-23.038,64.894-42.687,44.982-39.306,95.966-83.858,167.925-40.748,42.089,25.212,86.232,31.246,127.639,17.457,50.831-16.923,95.8-63.105,120.3-123.537,8.184-20.185,17.772-35.1,28.726-46.176q4.1-1.619,8.289-3.219,5.241-1.9,10.642-3.771,9.141-3,18.718-5.881,7.416-2.071,15.121-4.087,7.2-1.724,14.69-3.411,6.838-1.39,13.925-2.767,6.67-1.145,13.577-2.3c1.7-.242,3.4-.486,5.117-.733,2.635-.375,5.31-.759,8.006-1.145q6.285-.749,12.795-1.542,6.036-.589,12.265-1.234,5.99-.471,12.162-1.014,5.789-.36,11.741-.8,5.7-.271,11.564-.637c54.954-1.93,119.773-10.328,195.468-49.388C1212.39,459.378,1241.095,411.558,1234.694,352.415Zm-274.7,125.521c8.85-19.658,1.654-45.264-18.337-65.236-10.547-10.538-29.265-24.03-58.552-28.457-27.274-4.128-56.743.689-87.57,14.308-50.89,22.486-80.019,42.872-103.92,61.553q-2.938,2.3-5.761,4.521c-33.32,26.2-57.394,45.125-128.541,50.627-16.994,1.311-34.163,4.455-52.342,7.785-12.5,2.288-25.265,4.621-38.954,6.59l-1.75.1c6.26-1.614,12.392-3.313,18.444-4.994,22.03-6.124,42.835-11.909,66.215-12.489,75.836-1.886,101.4-23.452,136.776-53.3q3.618-3.049,7.376-6.2c28.236-23.592,57.862-43.568,110.665-64.37,44.358-17.475,106.141-21.315,146.5,20.334,19.737,20.366,26.985,46.054,18.459,65.441-5.15,11.706-15.428,20.111-29.916,24.87C951.121,492.943,957.121,484.313,959.991,477.937Zm-30.943,22.682c9.347-4.46,16.291-11.083,20.258-19.686,8.72-18.923,1.542-44.22-17.861-62.953-12.576-12.136-60.066-48.54-143.369-7.354-49.048,24.253-76.473,43.943-98.512,59.767-43.817,31.462-67.492,48.455-202.079,57.856,6.05-1.053,11.989-2.133,17.855-3.208,18.124-3.319,35.241-6.453,52.13-7.759,71.77-5.548,96.047-24.636,129.65-51.056q2.829-2.224,5.757-4.516c27.5-21.5,55.624-40.146,103.489-61.293,43.611-19.267,104.3-25.783,143.84,13.724,19.384,19.37,26.418,44.085,17.918,62.963C953.042,488.392,943.047,496.33,929.047,500.619Zm41.528-25.653c8.859-20.146,1.455-46.708-18.86-67.672-10.766-11.109-29.889-25.557-59.853-31.31-27.763-5.328-57.674-1.8-88.876,10.494-53.061,20.9-82.841,40.986-111.23,64.706q-3.775,3.15-7.382,6.206c-35.059,29.578-60.39,50.948-135.5,52.816-23.635.589-44.559,6.4-66.714,12.566-9.437,2.623-19.066,5.282-29.088,7.585l-1.454.079c-1.33.07-2.633.155-3.947.233,5.737-2,11.377-4.13,16.944-6.235,23-8.695,46.8-17.725,75.776-17.226q2.934.046,5.774.046c75.921,0,103.773-24.848,138.811-56.1q4.061-3.621,8.291-7.367c29.585-26.078,60.949-47.528,117.854-67.454,68.668-24.043,122.016-1.91,149.038,26.826,20.129,21.4,27.6,48.115,19.042,68.056-5.386,12.546-16.492,21.646-32.266,26.806C958.059,492.836,966.131,485.079,970.575,474.967Zm10.5-2.951c8.883-20.685,1.255-48.259-19.428-70.254C945.888,385,924.739,373.187,900.49,367.594c-28.242-6.51-58.539-4.218-90.052,6.815-57.218,20.035-88.768,41.616-118.531,67.851-2.832,2.5-5.59,4.957-8.3,7.375C648.029,481.372,619.977,506.5,540.42,505.17c-29.359-.473-53.359,8.594-76.536,17.359-7.888,2.983-15.916,6.015-24.17,8.664q-3.858.278-7.625.6c5.207-2.325,10.412-4.83,15.724-7.4,24.35-11.761,49.521-23.908,84.05-22.231,84.957,4.178,114.833-23.723,152.655-59.036q4.373-4.086,8.933-8.3c32.106-29.584,64.228-51.7,125.048-70.544,69.593-21.557,123.882,3.014,151.478,33.2,20.869,22.824,28.4,49.955,19.653,70.808-5.61,13.373-17.553,23.136-34.571,28.732C967.445,491.434,976.358,483.012,981.079,472.016Zm10.438-2.938c9.058-21.592,1.382-49.55-20.028-72.967C943.465,365.465,888.4,340.5,817.89,362.34,756.7,381.3,724.377,403.557,692.056,433.333q-4.574,4.217-8.942,8.311c-37.464,34.984-67.049,62.617-151.154,58.489-35.024-1.727-60.463,10.557-85.045,22.432-7.233,3.494-14.273,6.885-21.366,9.831l-.854.083c4.791-2.689,9.594-5.642,14.481-8.651,22.44-13.815,47.865-29.456,84.164-26.7C613.038,504,644.43,473.549,684.177,435q4.63-4.491,9.457-9.126c34.831-33.311,67.638-56.04,132.243-73.634,70.451-19.18,125.663,7.811,153.848,39.468,21.32,23.949,29.1,52.18,20.286,73.676-5.853,14.284-18.687,24.815-37.1,30.869C976.7,490.228,986.5,481.036,991.517,469.078Zm10.392-2.924c9.106-22.22,1.192-51.264-20.652-75.8-28.593-32.116-84.58-59.514-155.918-40.083-65.028,17.71-98.054,40.591-133.126,74.131q-4.84,4.632-9.463,9.138C643.37,471.728,612.275,501.893,523.5,495.1c-36.961-2.848-62.69,13.015-85.4,27-6.335,3.9-12.53,7.7-18.724,10.941q-5.142.566-10.1,1.215c4.611-3.04,9.307-6.459,14.212-10.032,23.357-17,49.8-36.279,91.333-32.132,94.486,9.452,127.389-23.524,169.057-65.264q4.866-4.874,9.934-9.9c36.844-36.378,71.472-60.593,139.446-76.729,71.231-16.91,127.38,12.492,156.166,45.65,21.793,25.1,29.815,54.472,20.935,76.646-4.743,11.84-15.859,26.01-41.545,33.789C985.006,489.826,996.4,479.6,1001.908,466.154Zm10.357-2.907c9.165-22.885,1.008-53.054-21.288-78.735C961.8,350.9,904.91,321.086,832.783,338.21c-68.438,16.249-103.309,40.635-140.414,77.265q-5.083,5.021-9.941,9.909c-21.066,21.1-39.261,39.328-64.208,51.453-27.4,13.318-60.193,17.518-103.193,13.22-42.288-4.246-69.093,15.292-92.746,32.513-6.221,4.53-12.1,8.8-17.877,12.354q-5.54.795-10.828,1.7c4.679-3.507,9.448-7.524,14.449-11.748,22.924-19.363,51.462-43.456,98.286-37.83,99.265,11.931,133.711-23.529,177.293-68.429,3.4-3.494,6.845-7.048,10.385-10.644,39.876-40.469,75.06-65.177,146.655-79.827,72-14.731,129.065,17.08,158.459,51.765,22.611,26.677,30.68,56.471,21.583,79.7-6.495,16.587-21.1,28.662-42.754,35.621C998.408,486.885,1007.91,474.118,1012.265,463.247ZM407.631,536.565c-.9.137-1.79.279-2.677.419l.11-.065C405.922,536.794,406.775,536.683,407.631,536.565Zm-8.077,1.175c-.131.07-.261.135-.39.205-3.463.6-6.828,1.223-10.059,1.873.206-.14.41-.268.616-.41Q394.64,538.509,399.555,537.74ZM1022.6,460.347c9.373-23.932,1.176-54.5-21.925-81.753-29.776-35.132-87.555-67.362-160.437-52.448-72.112,14.755-107.543,39.64-147.7,80.4q-5.316,5.4-10.4,10.655c-43.188,44.49-77.3,79.638-175.578,67.82-47.707-5.731-76.628,18.681-99.852,38.3-6.19,5.227-12.017,10.143-17.728,14.114q-5.885,1.086-11.417,2.316c4.9-4.047,9.9-8.865,15.176-13.964C416.242,503.068,445.5,474.8,497.8,482c104.1,14.36,140.044-23.576,185.528-71.6,3.544-3.742,7.145-7.543,10.843-11.388,43.044-44.754,78.659-69.87,153.859-82.929,72.832-12.653,132.107,23.249,160.749,57.83,23.1,27.89,31.405,58.848,22.22,82.813-6.81,17.771-22.619,30.747-46.156,38.216C1007.716,485.969,1018.022,472.025,1022.6,460.347ZM288.916,614.227c.892-1.389,1.851-2.813,2.85-4.259,0,.039-.009.076-.015.115Q290.236,612.2,288.916,614.227Zm.434,9.412c-.149,5.312,1.233,10.675,4.247,16.415,8.946,17.028,36.257,27.687,75.717,30.374-41.2-1.657-65.295-9.414-74.705-23.779C289.208,638.4,287.589,631.3,289.35,623.639Zm-13.986,21.708c.375,10.688,6.453,17.928,15.467,25.511,14.8,12.452,43.593,10.729,80.057,8.54,4.981-.3,10.2-.608,15.559-.894-9.08.7-17.8,1.553-26.021,2.368-30.972,3.075-55.429,5.5-69.1-4-8.661-6.019-17.237-12.865-18.606-24.418-1.5-12.642,5.743-30.106,22.462-53.632a46.032,46.032,0,0,0-2.145,5.716C280.63,621.393,274.987,634.641,275.364,645.347Zm95.4,32.016c-36.008,2.161-64.44,3.864-78.613-8.062-8.6-7.231-14.394-14.086-14.742-24.025-.267-7.611,2.867-16.838,9.573-27.94-4.587,7.724-6.968,14.55-7.283,20.667-.567,10.98,5.654,18.884,11.813,25.166,15.18,15.484,48.732,14.864,91.342,13.488C378.71,676.885,374.668,677.127,370.765,677.363Zm-77.789-15.621c-6.144-6.265-11.756-13.466-11.233-23.635a34.315,34.315,0,0,1,2.657-10.974,31.038,31.038,0,0,0-.708,3.457c-1.529,10.786,3.744,18.962,8.508,24.878,13.465,16.727,46.163,19.555,86.711,19.276C338.643,676,307.093,676.144,292.975,661.742Zm.821-7.548c-6.784-8.427-9.2-15.4-8.076-23.319a29.151,29.151,0,0,1,1.108-4.719c-.859,7.088,1.1,14.033,6.066,21.607,12.111,18.487,45.344,24.045,80.747,24.966C336.1,672.726,306.16,669.549,293.8,654.194Zm1.617-15.084c-3.227-6.141-4.506-11.8-3.9-17.442a41.071,41.071,0,0,0,2.8,10.675c9.045,21.958,41.7,33.156,76.753,36.175C331.491,666.1,304.164,655.764,295.413,639.11Zm.8-7.539a38.807,38.807,0,0,1-2.9-16.74,39.052,39.052,0,0,0,1.724,9.8c6.372,20.423,33.346,35.811,67.746,41.1C328.76,661.461,303.422,649.08,296.208,631.571Zm-.87-17.213c.131.857.239,1.714.429,2.569,4.635,20.75,28.713,37.773,59.174,45.162-29.55-6.285-52.415-20.318-57.95-38.059A36.94,36.94,0,0,1,295.339,614.358Zm2.429,2.128a35.421,35.421,0,0,1-.655-4.135c5.277,22.44,31.833,41.614,63.24,48.876C328.326,654.757,302.491,637.636,297.768,616.486Zm.769-7.55c-.009-.052-.007-.1-.015-.157a51.174,51.174,0,0,0,8.444,17.1c9.971,13.571,25.944,24.314,43.738,30.609C323.244,647.6,301.5,629.488,298.537,608.936Zm.734-9.1a397.629,397.629,0,0,1,26.818-30.2c3.148-1.967,6.6-3.923,10.372-5.86-15.826,13.892-28.12,26.017-37.166,36.7C299.286,600.261,299.277,600.048,299.271,599.836Zm39.565-45.862c-.78.763-1.566,1.529-2.333,2.281a119.742,119.742,0,0,0-13.1,7.205q1.236-1.423,2.5-2.866A115.285,115.285,0,0,1,338.836,553.974Zm-9.027,2.194c.134-.15.263-.294.4-.447.217-.017.429-.065.646-.092C330.5,555.808,330.15,555.987,329.809,556.168Zm18.948-2.951c-.223.188-.438.371-.659.558q-6.016,2.4-11.139,4.9c.267-.264.526-.523.793-.787Q342.805,555.508,348.757,553.217Zm-6.813.58c.138-.133.269-.264.41-.4.263-.02.521-.072.784-.1C342.739,553.464,342.334,553.632,341.944,553.8Zm-10.061,7.037-.946.949a107.972,107.972,0,0,0-13.559,8.71c.232-.273.462-.547.7-.822A98.3,98.3,0,0,1,331.883,560.835Zm-15.263,7.393a65.263,65.263,0,0,0-11.075,10.732,56.409,56.409,0,0,1,14.065-14.236Q318.092,566.493,316.62,568.228Zm1.2,7.083q-10.643,11.338-18.5,21.079c.007-.092.022-.183.028-.275a47.507,47.507,0,0,1,2.328-4.266c.545-.883,1.15-1.786,1.8-2.7A77.054,77.054,0,0,1,317.818,575.311Zm25.695-14.943q4.045-1.845,8.532-3.646c-13.176,9.652-24.3,18.463-33.521,26.562-.226.168-.458.34-.681.51Q328.905,572.927,343.513,560.368Zm15.877-6.446q3.3-1.191,6.832-2.355-14.438,8.773-26.089,16.683Q349,561.387,359.389,553.922Zm-4.955-2.787c.077-.026.16-.052.237-.081.309-.022.616-.072.924-.107-.567.2-1.106.4-1.66.606C354.1,551.412,354.266,551.274,354.434,551.135Zm-.153-2.1c.826-.526,1.654-1.088,2.482-1.7,3.7-1.154,7.476-2.22,11.316-3.21q-1.14.7-2.28,1.315-6.046,1.734-11.406,3.581C354.356,549.026,354.318,549.033,354.281,549.035Zm20.229-.07c1.5-.445,3.005-.888,4.559-1.324q-8.228,4.1-15.656,8.04Q368.756,552.384,374.51,548.965Zm-1.939-5.376c.4-.283.8-.565,1.2-.864q5.247-1.233,10.58-2.292c-.333.2-.664.4-1,.591Q377.727,542.261,372.572,543.589Zm660.341-86.128c9.448-24.658,1.019-56.373-22.556-84.837-28.989-35-88.987-71.336-162.68-58.541-75.761,13.157-111.633,38.452-154.986,83.528q-5.553,5.77-10.852,11.4c-45.081,47.593-80.668,85.181-183.76,70.976-53.275-7.352-82.944,21.313-106.774,44.337-6.469,6.248-12.508,12.073-18.416,16.508q-6.207,1.482-11.949,3.145c5.249-4.577,10.659-10.483,16.644-17.028C400.3,502.106,431.4,468.08,489.289,476.962a304.852,304.852,0,0,0,46.178,3.834c74.712,0,107.609-35.479,147.579-78.6q5.536-5.977,11.3-12.13c45.37-48.193,82.74-74.731,161.068-86.03,43.933-6.34,88.92,4.482,126.655,30.47,33.793,23.273,56.956,55.542,61.963,86.322,5.807,35.7-13.483,62.124-53.356,74.315C1016.729,485.511,1028.063,470.114,1032.913,457.461Zm.9,13.453c11.15-13.682,15.384-31.113,12.247-50.407-5.1-31.316-28.577-64.091-62.822-87.674-38.159-26.283-83.655-37.228-128.11-30.81C776.191,313.41,738.55,340.14,692.853,388.677q-5.79,6.15-11.314,12.14c-46.967,50.666-84.067,90.692-191.937,74.129-58.96-9.05-90.5,25.443-113.532,50.629-7.441,8.136-13.975,15.272-20.321,19.974q-7.193,2.283-13.544,4.872c6.423-4.955,12.913-12.919,20.361-22.065,23.051-28.311,54.629-67.094,118.218-56.434C594.576,490.969,633.493,448.178,682.751,394c3.847-4.231,7.757-8.531,11.772-12.878,48.781-52.814,86.4-79.625,168.28-89.135,93.252-10.821,181.044,59.492,191.552,124.944,6.024,37.523-14.808,65.533-57.525,78.362C1012.819,489.622,1025.209,481.465,1033.809,470.915Zm22.567-54.3c-5.183-32.291-29.25-66.558-64.372-91.663-38.816-27.748-84.788-40.172-129.437-34.986-82.519,9.587-120.421,36.589-169.552,89.781q-6.026,6.526-11.781,12.888c-48.84,53.717-87.417,96.142-200.11,77.28-64.791-10.834-96.779,28.462-120.147,57.161-11.877,14.585-21.259,26.108-31.313,26.643l-.427.022-.285.318c-1.573,1.764-3.1,3.5-4.613,5.221-11.323,6.893-19.29,14.882-23.576,23.88a36.882,36.882,0,0,0-2.83,8.448C277.771,618.685,269,638.51,270.68,652.687c1.47,12.393,10.425,19.568,19.469,25.853,7.686,5.343,18.409,7.1,31.561,7.1,11.307,0,24.407-1.3,38.917-2.739,9.452-.938,19.546-1.941,30.117-2.676-13.257,1.217-25.785,3.014-37.447,4.708-27.6,4.008-49.409,7.177-62.806-.491-10.633-6.084-20.376-12.557-22.808-24.756-3.958-19.865,12.05-52.171,50.369-101.644,9.8-.883,18.562-12.895,29.609-28.038,23.281-31.916,55.159-75.627,124.618-63.125,118.643,21.343,159.036-23.849,210.167-81.068,4-4.479,8.072-9.035,12.252-13.636,51.269-56.463,90.606-84.667,175.493-92.241,94.68-8.455,183.843,65.9,194.491,133.087,6.3,39.745-16.584,69.578-63.023,82.885C1042.6,482.213,1062.384,454.016,1056.375,416.611Zm10.331-3.906c-10.784-68.045-100.917-143.347-196.7-134.8-85.566,7.633-125.194,36.04-176.829,92.9q-6.273,6.912-12.262,13.65c-50.7,56.744-90.755,101.568-208.272,80.416C401.938,452.153,368.274,498.279,346,528.806c-10.9,14.949-19.52,26.756-28.536,27.238l-.469.022-.287.371c-38.91,50.178-55.129,83.114-51.037,103.648,2.6,13.039,12.738,19.8,23.8,26.128,6.315,3.618,14.282,4.948,23.69,4.948,11.459,0,25.057-1.974,40.43-4.209,12.109-1.758,25.162-3.631,38.984-4.841-15.85,1.751-30.625,4.623-44.327,7.3-25.314,4.939-45.306,8.841-58.587,2.626-12.81-6-23.708-12.02-27.3-25.007-5.665-20.456,8.171-54.352,43.541-106.66,8.867-.916,16.876-13.113,26.961-28.475,22.087-33.641,55.473-84.488,130.912-70.053,22.118,4.228,41.6,6.176,59.019,6.176,79.825-.007,115.837-40.927,159.336-90.38q6.246-7.1,12.744-14.406c54.914-61.417,94.323-89.759,182.706-95.348,44.542-2.818,90.937,12.358,130.693,42.722,36.516,27.892,61.47,64.719,66.749,98.51,6.67,42.676-17.734,73.643-68.769,87.537C1051.085,482.484,1073,452.428,1066.706,412.705Zm10.339-3.908c-10.9-69.774-102.358-149.08-199.593-142.952-88.558,5.6-129.926,35.427-184.108,96.026-4.353,4.868-8.589,9.685-12.755,14.422-52.559,59.745-94.071,106.935-216.427,83.541-76.821-14.688-110.625,36.847-133.012,70.941-9.965,15.178-17.835,27.168-25.876,27.6l-.51.026-.285.421c-35.931,53.067-49.941,87.624-44.093,108.749,3.822,13.8,15.618,20.323,28.407,26.311,5.187,2.43,11.266,3.4,18.186,3.4,11.605,0,25.579-2.726,41.666-5.866,15.176-2.961,31.668-6.172,49.468-7.814-19.765,2.257-37.863,6.717-53.473,10.57-23.745,5.866-42.5,10.5-55.8,5.461-14.641-5.544-27.158-11.264-32.045-25.142-7.334-20.842,4.751-57.411,36.95-111.8,7.973-.931,14.906-12.627,24.42-28.671,22.111-37.294,55.521-93.658,137.106-77.217,128.382,25.866,171.688-24.087,226.53-87.327q6.49-7.484,13.246-15.189C752.6,289.007,793.678,259.3,884.97,255.824c44.06-1.675,92.19,15.342,132.038,46.7,37.451,29.469,63.008,67.855,68.37,102.684,3.976,25.831-.228,72.112-73.071,91.866-.867.236-1.709.469-2.572.7C1059.192,483.288,1083.667,451.159,1077.045,408.8ZM396.827,659.88c-32.321,4.372-70.241-10.751-88.207-35.2a47.043,47.043,0,0,1-8.837-19.745c1.6-1.882,3.314-3.805,5.185-5.783,7.31-7.5,17.158-15.641,29.664-24.532,14.352-9.153,32.446-18.975,54.493-29.628,1.547-.386,3.128-.765,4.727-1.143a59.644,59.644,0,0,0,11.864-2.669c3.1-.593,6.26-1.175,9.54-1.732,3.211-.545,6.363-1.226,9.492-1.96.892-.12,1.759-.244,2.664-.362,5.783-.744,11.375-1.705,16.845-2.789q11.438-1.145,21.984-2.676c154.195-9.12,178.161-26.32,224.521-59.61,21.977-15.778,49.328-35.416,98.225-59.592,82.092-40.591,128.7-4.913,141.032,6.989,18.782,18.131,25.782,42.5,17.426,60.637-5.194,11.266-15.412,18.888-29.695,22.586q-1.623.108-3.238.238c-.329.007-.642.028-.973.031-4.342.046-8.611.242-12.826.558-.291,0-.587-.011-.878-.011-4.059,0-8.057.155-12,.427q-6.5-.108-12.8.318c-62.89-1.6-111.175,40.593-153.986,78.046-18.746,16.4-36.4,31.82-53.97,42.9a178.4,178.4,0,0,1-19.553,5.672c-3.689.766-7.38,1.411-11.077,1.836q-2.921.334-5.822.748l-.168.009c-3.538.148-7.034.4-10.5.709q-5.274-.039-10.418.166c-3.577-.192-7.091-.271-10.563-.279-3.437-.329-6.826-.582-10.155-.73q-5.481-.756-10.762-1.189-5.191-.9-10.186-1.478c-47.081-9.825-80.738,1.991-113.438,13.482C436.325,650.485,417.6,657.064,396.827,659.88Zm330.5-76.3c38.143-31.68,80.5-66.837,133.185-75.582-50.892,11.713-92.251,44.29-129.665,73.783-8.359,6.59-16.5,13.006-24.5,19.012C713.225,595.293,720.2,589.5,727.33,583.581Zm-30.111,21.795c8.344-6.852,16.714-14.166,25.178-21.57,36.678-32.084,77.389-67.663,127.748-75.845-48.531,11.307-88.212,44.224-124.128,74.055C716.163,590.2,706.608,598.133,697.219,605.375Zm34.9-22c39.709-31.305,83.888-66.1,139.108-75.429-53.505,12.173-96.709,44.451-135.737,73.641-6.867,5.133-13.586,10.16-20.2,14.958C720.824,592.286,726.423,587.874,732.123,583.38Zm4.6-.159c41.3-30.884,87.283-65.253,145.13-75.324-56.228,12.781-101.3,44.734-141.978,73.577q-7.639,5.414-15.047,10.614Q730.71,587.731,736.723,583.221Zm4.339-.087c43.048-30.522,91.053-64.529,151.914-75.39-59.385,13.477-106.582,45.16-149.1,73.728q-4.422,2.97-8.762,5.875Q738.073,585.253,741.062,583.133ZM904.9,507.377c-63.24,14.282-112.912,45.864-157.585,74.28-.342.22-.684.436-1.025.654C791.028,552.256,841.011,518.966,904.9,507.377Zm11.434-.279c-63.236,14.469-113.142,43.057-157.818,69.866C803.03,548.788,852.975,519.051,916.329,507.1Zm12.538-.569c-62.793,14.507-112.678,40-157.084,64.9C816.081,545.249,865.992,518.748,928.868,506.529Zm-317.1,135.15c1.06.126,2.116.216,3.172.3l-.1.035c-1.141-.042-2.287-.122-3.437-.225C611.524,641.748,611.647,641.714,611.767,641.679Zm-2.006-2.347.162-.037c.6.1,1.2.179,1.8.268l-.1.031Q610.693,639.476,609.761,639.332Zm-5,1.154c.769.17,1.535.318,2.3.46-.217.068-.432.138-.648.2-.817-.135-1.641-.3-2.462-.467Zm-.833-2.281.372-.059c.256.057.51.109.767.166-.118.028-.234.059-.353.085C604.457,638.338,604.195,638.268,603.932,638.2Zm-3.428,1.219c-.3.076-.607.155-.911.233-.532-.144-1.065-.288-1.6-.445l1.03-.185c.283.081.561.15.845.233C600.081,639.321,600.291,639.365,600.5,639.424Zm-6.015-1.646c-.2.039-.4.083-.6.122-.243-.083-.48-.159-.721-.242l.585-.063C594,637.657,594.239,637.712,594.488,637.777Zm-139.376,8.267c26.9-9.452,54.456-19.112,89.662-16.591-29.475.449-54.189,8.341-78.37,16.079-13.066,4.178-26.575,8.5-40.476,11.48-7.056,1.511-16.433,3.4-26.437,4.591-.379.046-.762.059-1.143.1C418.825,658.769,437.275,652.312,455.113,646.045ZM426.36,659.007c14-3,27.559-7.338,40.671-11.534,26.821-8.584,54.3-17.366,88.245-15.815C527.209,632.79,503,640,479.318,647.057c-16.874,5.033-32.812,9.783-50.053,12.483l-2.508.395c-7.947,1.252-16.164,2.543-24.6,3.393-.079.009-.156.011-.234.02C411.175,662.141,419.777,660.416,426.36,659.007Zm.716,2.942,2.51-.395c17.375-2.722,34.124-7.716,50.318-12.544,26.52-7.905,53.7-16,86.234-15.433-26.532,1.806-50.031,8.477-73,15.032-20.374,5.818-39.62,11.312-60.535,13.464-3.5.358-7.018.763-10.565,1.173-5.1.587-10.368,1.178-15.682,1.655C413.443,664.075,420.36,663,427.076,661.949Zm-4.806,3.321c3.538-.406,7.047-.809,10.543-1.171,21.092-2.17,40.424-7.687,60.888-13.529,25.723-7.343,52.1-14.836,82.659-15.388-24.514,2.523-46.789,8.765-68.572,14.9-24.144,6.8-46.949,13.218-71.853,14.528-5.492.288-11.121.763-16.567,1.223-2.7.229-5.437.438-8.171.648C414.941,666.1,418.654,665.689,422.27,665.27Zm-2.729,2.593c5.678-.48,11.042-.933,16.5-1.221,25.134-1.319,48.045-7.77,72.3-14.6,23.647-6.658,47.882-13.453,74.9-15.416.219.065.442.137.659.2-21.305,3.241-41.21,8.93-60.7,14.5-28.15,8.051-54.741,15.656-83.94,15.813-7.191.037-14.23.464-21.68.916-.71.044-1.43.085-2.142.126C416.8,668.077,418.187,667.977,419.541,667.863Zm19.734,1.319c29.482-.155,56.2-7.8,84.495-15.891,20.718-5.923,41.9-11.97,64.717-15.05.458.148.927.312,1.387.465-17.452,3.633-34.179,8.621-50.581,13.519-32.352,9.659-62.9,18.807-96.7,17.459-6.992-.273-14.1-.083-21.084.188C427.543,669.514,433.374,669.215,439.275,669.183Zm3.238,2.541c34.124,1.337,64.846-7.833,97.366-17.549,17.439-5.205,35.243-10.511,53.878-14.168.672.236,1.343.423,2.013.637-13.564,3.579-26.8,7.8-39.819,11.951-36.7,11.709-71.378,22.769-110.032,19.631-5.049-.41-10.142-.545-15.228-.545-1.025,0-2.046.024-3.069.033C432.612,671.577,437.54,671.529,442.513,671.723Zm3.238,2.532c4.591.373,9.117.547,13.6.547,33.681,0,64.657-9.881,97.224-20.266,14.048-4.482,28.361-9.042,43.046-12.779.909.235,1.82.484,2.725.68-9.883,3.136-19.651,6.507-29.27,9.844-39.341,13.654-80.03,27.777-123.834,22.486-4.188-.506-8.342-.794-12.488-.96C439.746,673.887,442.738,674.011,445.75,674.255Zm2.723,2.48c.173.02.346.035.519.057a162.272,162.272,0,0,0,19.441,1.151c36.921,0,71.61-12.036,105.318-23.736,10.788-3.744,21.758-7.541,32.871-10.982,1.224.188,2.445.329,3.663.447-6.622,2.445-13.2,4.957-19.7,7.445-43.631,16.7-88.744,33.99-138.026,26.193C451.194,677.095,449.834,676.907,448.473,676.735Zm6.587,2.977a161.309,161.309,0,0,0,22.339,1.568c40.117,0,77.538-14.328,113.922-28.258,7.93-3.036,15.978-6.106,24.076-9.044,1.61.035,3.211,0,4.81-.074q-5.836,2.463-11.8,5.016c-47.919,20.449-97.469,41.6-152.534,30.937C455.605,679.8,455.334,679.764,455.06,679.712Zm154.157-28.919c6.068-2.588,11.987-5.094,17.859-7.535,2.291-.332,4.572-.792,6.843-1.33-2.445,1.167-4.9,2.34-7.4,3.537-51.455,24.665-104.652,50.128-164.886,37.446C514.861,691.045,562.8,670.6,609.217,650.792Zm18.2-3.491c11.7-5.611,22.759-10.908,33.837-15.723.519-.227,1.045-.465,1.566-.694-5.831,3.081-11.7,6.261-17.861,9.6-52.518,28.468-111.894,60.628-178.091,45.5C525.645,696.044,579.586,670.225,627.414,647.3Zm18.521-5.027c7.423-4.026,14.44-7.827,21.449-11.493l4.074-2.128,2.254-1.178c-.423.26-.852.513-1.275.772q-4.258,2.617-8.62,5.315c-53.107,32.8-118.84,73.392-191.7,55.6C536.749,701.413,594.6,670.1,645.935,642.274ZM508.342,695.562c58.975,0,112.154-32.843,156.556-60.266q4.36-2.692,8.617-5.312,5.175-3.176,10.438-6.276c-1.842,1.261-3.68,2.523-5.5,3.816-48.327,34.291-120.522,85.5-200.78,64.963A154.293,154.293,0,0,0,508.342,695.562Zm6.911,3.7c65.621-.007,123.494-41.06,164.387-70.075q6.907-4.9,14.022-9.508c-3.093,2.309-6.162,4.671-9.194,7.125C627.6,672.809,559.6,716.323,483.351,695.891A153.234,153.234,0,0,0,515.253,699.258ZM685.76,628.38q8.4-6.8,17.139-12.858c-4.21,3.35-8.35,6.848-12.409,10.553C617.471,692.75,551.25,716.8,488.531,699.3,563.328,716.377,629.9,673.581,685.76,628.38Zm6.114-.8a235.984,235.984,0,0,1,19.285-15.822c-5,4.22-9.879,8.73-14.643,13.6-47.99,49.046-120.86,100.5-201.994,77.581C556.016,717.265,620.8,692.474,691.874,627.576Zm6.109-.8a205.847,205.847,0,0,1,21.272-18.925,190.97,190.97,0,0,0-16.707,16.779c-20.5,23.284-53.626,54.873-95.044,73.137-36.343,16.022-72.407,18.9-107.462,8.714C579.667,725.534,650.782,675.012,697.984,626.773Zm-89.649,72.856c41.758-18.415,75.121-50.217,95.754-73.658a185.016,185.016,0,0,1,23.294-22.281,177.015,177.015,0,0,0-18.8,20.214c-19.6,24.606-52.014,58.022-95.121,77.488-36.273,16.373-72.467,19.247-107.878,8.719C539.182,718.412,573.637,714.927,608.335,699.629ZM510.3,713.562c34.2,8.876,69.073,5.461,104.012-10.315,43.482-19.631,76.14-53.294,95.879-78.076a171.025,171.025,0,0,1,24.766-25.384,167.946,167.946,0,0,0-20.328,23.389C669.4,685.613,593.6,739.057,510.3,713.562Zm205.989-89.194a160.411,160.411,0,0,1,26.251-28.592,160.287,160.287,0,0,0-21.868,26.671c-41.712,63.086-118.594,121.86-205.227,94.694C597.489,738.868,671.669,685.979,716.287,624.368Zm6.094-.8a153.022,153.022,0,0,1,27.3-31.582,155.517,155.517,0,0,0-22.959,29.73c-24.61,40.632-58.515,72.805-95.467,90.594-35.841,17.257-73.373,20.126-109.92,8.664C606.354,743.676,681.294,685.711,722.382,623.57Zm-90.238,90.579c37.3-17.959,71.516-50.411,96.328-91.379a147,147,0,0,1,28.448-34.707,151.311,151.311,0,0,0-24.153,32.925c-23.386,42.019-58.235,76.639-95.609,94.982-36.137,17.736-74.127,20.528-111.289,8.47C561.28,734.24,597.487,730.829,632.143,714.148Zm5.919,3.651c37.742-18.524,72.913-53.449,96.5-95.824,8.784-15.782,18.514-28.01,29.23-37.61-9.108,9.443-17.428,21.175-24.97,35.887-27.566,53.774-72.508,94.6-120.226,109.211-29.34,8.981-58.975,8.424-88.427-1.57C566.261,738.338,603.018,735,638.062,717.8ZM619.2,731.411c48.235-14.768,93.636-55.976,121.449-110.23,8.885-17.333,18.878-30.49,30.014-40.58-9.518,10.01-18.111,22.7-25.785,38.918-26.439,55.869-71.264,98.371-119.911,113.688-29.839,9.4-60.031,8.808-90.1-1.688A142.4,142.4,0,0,0,619.2,731.411Zm6.385,3.74c49.181-15.488,94.468-58.388,121.146-114.764,8.918-18.846,19.121-32.856,30.615-43.384-9.864,10.52-18.674,24.1-26.411,41.78C725.608,676.639,680.963,720.756,631.506,736.8c-29.127,9.445-58.658,9.231-88.168-.473A140.969,140.969,0,0,0,625.581,735.151ZM756.987,618.046c-24.275,59.884-68.78,105.628-119.048,122.368-29.158,9.711-59.7,9.386-89.918-.632,28.227,8.093,56.745,7.829,84.118-1.047,50.007-16.216,95.117-60.754,120.667-119.136,8.6-19.649,18.562-34.171,29.872-44.992l.276-.111C773.169,585.364,764.5,599.511,756.987,618.046ZM819.364,549.3a98.031,98.031,0,0,0-13.434,6.416c-.813.4-1.61.835-2.412,1.258q-8.684,4.315-17.064,8.666c43.806-23.925,93.377-47.3,155.279-59.8C894.834,516.875,855,532.48,819.364,549.3Zm19.373-5.692c-1.384.292-2.762.6-4.122.929C870.072,528.7,909.778,514.4,956.3,504.682A755.062,755.062,0,0,0,838.737,543.6Zm12.019-2.093c-.854.118-1.7.244-2.545.373a745.244,745.244,0,0,1,121.674-38.244A982.8,982.8,0,0,0,850.757,541.511Zm8.232-.979a986.421,986.421,0,0,1,126.636-38.591c-47.477,12.345-88.591,25.271-125.037,38.443C860.055,540.434,859.518,540.479,858.988,540.532Zm9.415-.776c38.914-13.8,83.086-27.3,134.519-40.12l.048-.013c-50.461,13.82-94.343,26.952-133.308,40.044C869.238,539.692,868.824,539.727,868.4,539.755Zm9.562-.5c-.237.011-.475.017-.712.028,39.607-13.117,84.227-26.311,135.595-40.242,55.122-14.947,81.6-48.381,74.554-94.14-5.437-35.327-31.278-74.2-69.124-103.975-40.227-31.652-88.884-48.832-133.389-47.135-92.043,3.5-133.428,33.418-191.383,99.147-4.523,5.134-8.927,10.21-13.257,15.2-54.408,62.737-97.392,112.284-224.569,86.66C372.666,438.083,338.807,495.187,316.4,532.98c-9.056,15.274-16.208,27.341-23.325,27.718l-.548.029-.28.471c-33.178,55.95-45.057,92.162-37.385,113.961,5.176,14.707,18.12,20.648,33.25,26.377a39.676,39.676,0,0,0,14.133,2.281c11.831,0,26.137-3.533,42.886-7.67,16.137-3.984,34.943-8.625,55.475-10.775-21.791,2.763-41.569,8.662-58.544,13.743-22.692,6.791-40.608,12.158-54.044,8.115-16.5-4.959-30.663-10.276-36.978-25.155-9.152-21.568.841-59.865,30.549-117.069,7.143-.983,13.4-12.648,21.971-28.627,20.7-38.58,55.326-103.155,143.211-84.621,133.22,28.1,178-24.213,234.689-90.439q6.739-7.874,13.761-15.983c60.235-69.2,102.994-100.283,197.137-101.566,44.272-.615,92.88,17.852,133.4,50.631,38.391,31.061,64.559,71.026,70,106.906,6.894,45.489-19.233,79.291-73.559,95.182q-15.986,4.674-31.094,9.076C948.992,517.843,911.6,528.747,877.965,539.252Zm7.724-.255h-.009c31.773-9.824,66.824-20.052,106-31.475q15.118-4.41,31.092-9.079c74.8-21.875,79.1-70.437,75.009-97.44-5.509-36.369-31.948-76.812-70.729-108.186-40.886-33.076-89.92-51.674-134.719-51.087-94.928,1.293-138,32.594-198.657,102.268-4.7,5.4-9.272,10.745-13.77,16C623.657,425.7,579.223,477.6,447.194,449.761c-89.375-18.857-124.474,46.57-145.439,85.657-8.175,15.239-14.633,27.275-20.873,27.609l-.587.028-.269.519c-30.205,58.05-40.3,97.071-30.871,119.293,7.2,16.973,24.429,22.152,38.27,26.313a38.02,38.02,0,0,0,11,1.481c12.173,0,26.816-4.383,44.229-9.6,17.439-5.219,37.835-11.32,60.309-13.94-23.487,3.267-44.616,10.69-62.708,17.045-21.132,7.428-39.372,13.848-53.054,10.664-18.341-4.259-34.168-9.085-42.056-25.044-11.042-22.331-3.1-62.4,24.286-122.471,6.341-1.01,11.675-11.99,19.622-28.344,20.527-42.25,54.875-112.973,149.218-92.26,138.09,30.315,184.319-24.344,242.845-93.543,4.661-5.511,9.4-11.12,14.28-16.785,64.215-74.633,106.807-105.7,204.357-104.675,44.461.454,93.583,20.329,134.776,54.53,39.344,32.67,66.121,74.234,71.623,111.179,6.906,46.39-19.4,81.365-74.075,98.482-43.915,13.748-83.242,25-117.939,34.927Q899.449,535.032,885.689,539Zm14.267-1.982c4.843-1.389,9.741-2.791,14.747-4.224,34.709-9.929,74.05-21.184,117.99-34.943,55.751-17.453,82.558-53.224,75.485-100.724-5.575-37.427-32.617-79.463-72.337-112.446-41.547-34.5-91.141-54.546-136.068-55-49.2-.493-85.585,7.354-117.788,25.474-31.2,17.557-57.8,44.643-88.144,79.915q-7.318,8.505-14.291,16.8c-58.081,68.671-103.955,122.911-240.838,92.864C342.783,423.662,308,495.3,287.208,538.089c-7.323,15.071-13.108,26.976-18.521,27.264l-.62.033-.258.563c-27.848,60.959-35.865,101.762-24.5,124.743,8.959,18.122,28.884,22.752,43.429,26.13a36.57,36.57,0,0,0,8.285.885c12.874,0,28.424-5.465,45.915-11.61,18.694-6.569,40.654-14.256,65.058-17.283-25.226,3.7-47.76,12.74-66.968,20.477-20.738,8.35-38.645,15.564-52.636,13.157-19.426-3.339-37.657-7.748-47.249-24.822-12.994-23.123-7.064-64.992,18.135-127.992,5.595-1.082,10.328-11.839,17.355-27.814C293.562,498.8,328.805,418.7,429.771,441.675c28.295,6.436,52.842,9.364,74.51,9.362,87.8,0,128.064-48.121,176.472-105.99,4.834-5.781,9.754-11.661,14.814-17.6,67.045-78.765,111.234-111.128,211.575-107.79,99.581,3.341,198.386,98.41,209.424,173.9,6.918,47.3-19.577,83.445-74.6,101.768C987.858,513.335,941.286,525.977,899.955,537.014Zm14.845-1.867c37.745-10.158,79.8-21.908,127.81-37.893,56.075-18.672,83.059-55.606,75.982-103.995-12.267-83.9-118.947-172.544-211.382-175.642-101.167-3.4-145.7,29.209-213.207,108.509-5.064,5.945-9.987,11.831-14.823,17.616-59.906,71.612-107.226,128.182-248.954,95.946C327.583,416.343,291.924,497.44,272.755,541c-6.5,14.766-11.632,26.431-16.262,26.677l-.655.035-.243.606c-25.629,63.917-31.6,106.54-18.245,130.3,10.035,17.856,28.757,22.41,48.691,25.836a36.263,36.263,0,0,0,6.125.5c13.421,0,29.454-6.455,47.626-13.774,19.995-8.051,43.6-17.54,70.061-20.837-27.151,3.991-51.2,14.842-71.612,24.087-20.536,9.3-38.259,17.32-52.66,15.634-20.3-2.395-41.081-6.257-52.52-24.492-15.007-23.925-11.066-67.641,12.052-133.63,4.874-1.114,8.828-11.05,15.191-27.033,18.582-46.684,53.183-133.586,160.965-108.276,29.784,6.992,55.543,10.167,78.228,10.165,89.9-.007,131.238-49.909,180.89-109.874q7.515-9.074,15.351-18.428c33.964-40.3,61.538-68.961,94.008-87.314,34.067-19.256,72.55-26.527,124.787-23.585,44.912,2.532,95.064,25.223,137.6,62.253C1093.408,305.788,1121.4,350.592,1127,389.7c4.891,34.116-4.177,80.03-75.157,105.033C999.943,513.019,955.062,525.109,914.8,535.148Zm13.914-1.4c36.827-9.4,77.524-20.779,123.816-37.086,56.4-19.869,83.568-57.954,76.5-107.244-12.3-85.772-120.489-178.556-214.383-183.851-52.649-2.972-91.484,4.386-125.917,23.849-32.735,18.5-60.452,47.3-94.562,87.777-5.249,6.226-10.348,12.387-15.362,18.441-61.731,74.55-110.487,133.436-257.07,99.023-109.495-25.7-144.53,62.253-163.338,109.51-5.7,14.326-10.21,25.642-14.1,25.849l-.686.035-.226.646c-23.52,66.935-27.465,111.407-12.061,135.965,11.916,19,33.219,22.983,54.016,25.435a35.736,35.736,0,0,0,4.241.242c14.072,0,30.623-7.491,49.508-16.044,20.924-9.475,45.677-20.676,73.623-24.3-28.529,4.349-53.637,16.916-74.907,27.582-20.49,10.276-38.2,19.158-53.026,18.118-21.914-1.524-44.432-4.639-57.843-24.063-17.082-24.739-15.115-70.335,6.015-139.376,4.21-1.2,7.636-10.74,13.115-25.991,8.609-23.965,21.616-60.177,46.82-86.828,30.034-31.759,70.366-41.8,119.885-29.835,152.688,36.879,203.24-24.748,267.245-102.778,5.187-6.324,10.466-12.76,15.9-19.263,70.212-84.078,115.409-122.732,226.013-114.013,45.162,3.561,95.844,27.65,139.049,66.089,42.884,38.153,70.767,83.439,76.493,124.246,4.88,34.768-4.3,81.777-75.733,108.278C1011.619,512.742,968.023,524.5,928.715,533.743Zm15.025-1.507a1065.2,1065.2,0,0,0,118.711-36.175c72.71-26.972,82.03-74.962,77.047-110.47-5.794-41.278-33.916-87.015-77.156-125.487-43.532-38.729-94.652-63-140.254-66.6-111.565-8.789-157.073,30.114-227.75,114.742-5.435,6.51-10.716,12.949-15.908,19.276C614.88,405,564.686,466.2,413.254,429.613,296.634,401.45,261.173,500.137,244.136,547.569c-4.742,13.2-8.837,24.6-12.037,24.767l-.714.039-.21.68c-21.493,70.01-23.434,116.364-5.927,141.723,13.927,20.17,37.957,23.45,59.387,24.941.841.059,1.687.085,2.543.085,14.825,0,31.922-8.573,51.549-18.417,21.629-10.847,47.245-23.7,76.335-27.7-29.6,4.75-55.5,18.958-77.417,30.987-20.562,11.286-38.36,21.029-53.668,20.628-22.451-.582-47.7-2.933-63.2-23.55-19.2-25.552-19.2-73.056.007-145.205,3.4-1.147,6-8.793,11.132-24.682,16.308-50.5,50.233-155.592,172.352-125.317C561.83,465.6,613.815,401.666,679.634,320.715c5.367-6.6,10.828-13.318,16.451-20.109,73.071-88.241,119.887-128.568,233.233-117.126,45.436,4.586,96.656,30.066,140.532,69.907s72.353,86.751,78.1,128.681c4.861,35.425-4.436,83.526-76.331,111.5A887.968,887.968,0,0,1,943.739,532.236Zm10.664-.382a878.769,878.769,0,0,0,117.963-36.389c73.139-28.455,82.578-77.52,77.619-113.671-5.818-42.4-34.522-89.748-78.756-129.914-44.193-40.129-95.844-65.8-141.7-70.428-114.3-11.534-161.476,29.041-235.02,117.858-5.628,6.793-11.093,13.517-16.464,20.122-65.36,80.388-117,143.879-273.273,105.142-53.357-13.224-96.4-2.046-127.924,33.224-26.15,29.255-38.621,67.883-46.875,93.444-4.035,12.5-7.516,23.286-10.065,23.422l-.743.039-.193.715c-19.542,73.135-19.485,121.4.171,147.56,16.043,21.346,41.854,23.768,64.787,24.366.322.009.644.013.968.013,15.667,0,33.34-9.7,53.738-20.894,22.251-12.21,48.643-26.667,78.747-31.043-30.555,5.151-57.168,20.962-79.671,34.339-20.724,12.319-38.621,22.959-54.524,23.171-25.7.334-51.733-2.194-68.572-22.962-21.077-26-23.09-76.84-5.989-151.128,2.826-1.184,4.913-8.047,9.251-23.084,14.431-50.018,48.191-167.164,177.9-134.247C558.2,462.73,611.618,396.489,679.248,312.62c5.546-6.878,11.191-13.881,17.007-20.957,75.967-92.474,124.48-134.471,240.457-120.242,45.731,5.613,97.5,32.483,142.046,73.719,44.885,41.557,73.938,90.088,79.706,133.152,4.834,36.081-4.6,85.269-76.955,114.692A755.266,755.266,0,0,1,954.4,531.854Zm127.882-36.984c73.569-29.914,83.137-80.054,78.21-116.848-5.829-43.524-35.112-92.5-80.342-134.373-44.85-41.524-97.042-68.586-143.189-74.251-117.015-14.358-165.842,27.912-242.292,120.975-5.82,7.081-11.47,14.09-17.02,20.973C610.483,394.637,557.434,460.436,396.28,419.538,264.676,386.146,230.5,504.608,215.906,555.2c-3.078,10.666-6.26,21.695-8.2,21.8l-.769.039-.175.75c-17.645,76.314-15.6,126.514,6.252,153.47C229.5,751.579,254.28,755,279.116,755c1.363,0,2.732-.009,4.1-.028,16.453-.22,34.568-10.989,55.545-23.459,23.877-14.193,50.18-29.811,80.639-34.426-30.845,5.4-57.348,22.325-81.452,37.716-20.957,13.384-39.057,24.942-55.551,25.757-46.123,2.273-63.266-10-73.954-22.314-23.259-26.8-27.289-79.653-11.982-157.121,2.254-1.188,3.864-7.057,7.472-21.178,8.6-33.623,26.479-103.592,78.716-134.3,28.435-16.718,63.637-19.8,104.63-9.174,35.594,9.229,66.085,13.392,92.722,13.39,98.558-.007,144.195-57.014,198.857-125.323,5.73-7.16,11.564-14.45,17.572-21.821C737.4,232.481,768.034,199.431,803.4,179.157c38.645-22.152,82.037-28.261,140.7-19.795,45.374,6.547,99.055,35.529,143.595,77.527,45.9,43.278,75.529,93.451,81.3,137.653,6.876,52.683-19.956,93.436-77.6,117.856a662.508,662.508,0,0,1-124.568,38.776A749.389,749.389,0,0,0,1082.285,494.871Zm9.919-.6c74-31.351,83.71-82.558,78.828-119.993-5.831-44.66-35.69-95.278-81.923-138.872-44.838-42.277-98.932-71.46-144.71-78.063-59.144-8.533-102.945-2.351-142.017,20.046-35.646,20.432-66.423,53.621-107.545,104.045q-9.016,11.06-17.585,21.834C608.278,389.458,553.8,457.54,387.792,414.5c-41.55-10.773-77.272-7.613-106.187,9.388-52.973,31.144-71,101.666-79.658,135.557-2.427,9.493-4.935,19.306-6.451,19.873l-.775.044-.156.779c-15.572,78.434-11.423,132.075,12.324,159.437,10.12,11.661,25.8,23.3,64.78,23.3q5.136,0,10.826-.279c17.042-.844,35.355-12.537,56.557-26.078,24.74-15.8,52.033-33.216,83.864-37.913-32.179,5.511-59.646,24.2-84.585,41.2-21.25,14.476-39.6,26.976-56.725,28.387-27.292,2.246-58.06,1.433-79.334-21.605C176.793,719,170.745,664.1,184.291,583.4c1.755-1.167,2.933-6.093,5.8-18.94,7.989-35.726,24.61-110.057,79.537-143.29,29.458-17.824,66.175-21.1,109.145-9.737,37.02,9.79,68.672,14.2,96.277,14.2,100.772,0,147.481-58.781,203.4-129.168,5.914-7.443,11.936-15.023,18.144-22.687,36.739-45.367,70.4-84.789,110.259-107.733,39.83-22.922,84.433-28.7,144.639-18.739,45.716,7.567,99.988,37.972,145.178,81.332,46.91,45.009,77.115,96.833,82.876,142.185,6.808,53.621-20.254,95.459-78.263,121a595.375,595.375,0,0,1-122.829,38.916A660.05,660.05,0,0,0,1092.2,494.273Zm9.917-.6c74.44-32.766,84.3-85.035,79.467-123.114-5.818-45.805-36.247-98.072-83.487-143.4-45.477-43.635-100.155-74.243-146.263-81.875-60.7-10.049-105.729-4.191-146,18.986C765.668,187.4,731.877,226.966,695,272.494c-6.208,7.668-12.234,15.252-18.153,22.7C606.076,384.279,550.179,454.65,379.3,409.46c-43.521-11.506-80.78-8.156-110.73,9.966C212.9,453.109,196.148,528.018,188.1,564.015c-1.915,8.564-3.724,16.659-4.891,17.64l-.705.037-.138.8c-13.776,81.659-7.586,137.328,18.4,165.467,17.136,18.552,40.084,23.1,62.583,23.1,6.221,0,12.411-.349,18.429-.844,17.664-1.452,36.222-14.1,57.713-28.736,25.279-17.219,53.166-36.205,85.844-41.19-32.994,5.823-61.043,26.069-86.5,44.457-21.59,15.6-40.233,29.068-58.014,31.065-27,3.031-61.015,3.4-84.714-20.844-27.728-28.372-35.8-85.334-23.986-169.32,1.3-1.132,2.131-5.216,4.263-16.321,6.7-34.893,22.385-116.6,80.171-152.581,30.483-18.979,68.747-22.469,113.725-10.357,38.448,10.352,71.249,15.008,99.815,15.006,102.989-.007,150.782-60.547,207.961-133.008,6.052-7.67,12.313-15.6,18.716-23.559C776.522,165.714,828,110.828,958.9,135.242c46.086,8.6,100.963,40.425,146.8,85.138,47.924,46.749,78.7,100.238,84.442,146.745,6.729,54.554-20.571,97.47-78.953,124.106a544.568,544.568,0,0,1-121.416,39.18A594.9,594.9,0,0,0,1102.12,493.678Zm9.914-.6c59.273-27.042,86.983-70.684,80.131-126.206-5.794-46.959-36.79-100.885-85.04-147.953-46.113-44.983-101.386-77.014-147.853-85.685-62.226-11.611-108.479-6.1-149.965,17.885-40.923,23.657-75.9,64.915-114.137,112.432-6.41,7.964-12.67,15.9-18.727,23.574-72.574,91.972-129.9,164.614-305.629,117.3-45.549-12.267-84.359-8.7-115.348,10.6-58.544,36.452-74.348,118.772-81.1,153.922-1.365,7.109-2.655,13.837-3.5,15.045l-.6.031-.116.833c-12.008,84.92-3.774,142.634,24.475,171.538,17.8,18.214,41.118,22.909,63.107,22.909a209.386,209.386,0,0,0,23.3-1.459c18.317-2.059,37.164-15.675,58.986-31.44,25.252-18.244,53.083-38.316,85.664-44.08-32.891,6.595-60.861,27.916-86.287,47.316-21.044,16.057-40.921,31.22-59.376,33.806-28.262,3.956-64.029,5.256-90.08-20.044-30.006-29.151-40.1-88.189-30.012-175.483.843-.975,1.389-4.061,2.865-13.3,5.382-33.682,19.677-123.151,80.554-162.2,31.53-20.227,71.371-23.947,118.419-11.063,39.826,10.906,73.746,15.8,103.245,15.8C570,417.15,618.807,355.087,677.18,280.846c6.388-8.126,12.992-16.528,19.763-24.961C779.3,152.534,832.4,95.41,966.291,123.18c46.482,9.643,101.982,42.894,148.453,88.948,48.943,48.5,80.285,103.661,85.991,151.335,6.639,55.481-20.909,99.461-79.663,127.183a505.344,505.344,0,0,1-120.351,39.57A545.941,545.941,0,0,0,1112.034,493.082Zm9.914-.593c59.626-28.134,87.575-72.834,80.821-129.268-5.761-48.121-37.318-103.718-86.582-152.537-46.743-46.322-102.621-79.78-149.48-89.5-63.766-13.226-111.256-8.078-153.976,16.69-41.889,24.29-77.947,67.24-117.392,116.742-6.773,8.437-13.382,16.844-19.771,24.972-74.3,94.506-132.995,169.155-313.241,119.8-47.633-13.048-88.032-9.24-120.071,11.312-61.648,39.54-76.048,129.663-81.467,163.591-.918,5.744-1.72,10.76-2.269,12.036l-.456.024-.1.855c-10.26,88.215.024,147.988,30.564,177.651,18.442,17.917,41.515,22.831,63.49,22.831a204.951,204.951,0,0,0,28.3-2.224c18.99-2.661,39.072-17.985,60.335-34.208,26.553-20.259,55.913-42.638,90.63-47.824C396.278,709.521,366.8,733.11,340.1,754.5c-21.434,17.172-41.681,33.394-60.844,36.569-27.191,4.508-66.675,7.423-95.434-19.206-32.317-29.92-44.448-91.056-36.054-181.72.521-.892.821-3.291,1.634-9.763,4.028-32.051,16.289-129.584,80.6-172.173,32.59-21.581,74.066-25.583,123.28-11.9,41.25,11.473,76.315,16.62,106.777,16.618,107.289-.009,157.207-63.908,216.861-140.309,6.526-8.359,13.275-17,20.19-25.679C782.441,139.379,837.357,80.036,973.686,111.12c46.914,10.7,103.042,45.376,150.144,92.762,49.964,50.26,81.864,107.1,87.526,155.941,6.537,56.406-21.261,101.441-80.394,130.236a473.905,473.905,0,0,1-119.67,40.067A507.306,507.306,0,0,0,1121.948,492.489Zm9.914-.6c59.983-29.209,88.175-74.96,81.529-132.3-5.713-49.286-37.826-106.564-88.1-157.143-47.365-47.65-103.867-82.534-151.145-93.314C836.6,77.772,781.343,137.469,695.508,245.677c-6.92,8.682-13.673,17.329-20.2,25.692-38.9,49.824-72.5,92.853-120.091,117.732-52.187,27.277-116.174,28.943-201.378,5.247-49.812-13.85-91.855-9.761-124.964,12.162-65.1,43.105-77.443,141.339-81.5,173.619-.491,3.9-1.606,9.428-1.606,9.428-8.528,91.543,3.807,153.383,36.663,183.8,19.206,17.784,42.971,22.7,64.848,22.7a198.237,198.237,0,0,0,32.317-2.981c19.69-3.262,40.141-19.647,61.79-36.99,27-21.629,56.848-45.524,92.28-50.967-35.712,6.376-65.669,31.458-92.808,54.2-21.85,18.312-42.487,35.606-62.377,39.376-28.306,5.367-69.56,9.3-100.772-18.336-34.66-30.692-48.829-93.974-42.113-188.077a41.582,41.582,0,0,0,.624-5.491c9.706-112.182,48.969-161.28,80.2-182.715,33.677-23.118,76.874-27.428,128.375-12.808,42.579,11.944,78.74,17.3,110.113,17.3,109.887-.007,160.9-65.742,221.87-144.322C683.4,255.706,690.26,246.87,697.283,238c88.335-111.82,145.062-173.411,283.8-138.938,47.372,11.768,104.148,47.875,151.875,96.58,50.982,52.031,83.437,110.557,89.042,160.573,6.425,57.324-21.634,103.406-81.141,133.263a448.635,448.635,0,0,1-119.081,40.613A476.914,476.914,0,0,0,1131.863,491.892Zm18.884-3c-43.113,22.248-82.69,34.487-118.932,41.263A451.935,451.935,0,0,0,1141.777,491.3c60.342-30.271,88.784-77.06,82.258-135.307-5.658-50.461-38.319-109.423-89.614-161.77-47.981-48.967-105.119-85.282-152.846-97.139-139.963-34.77-197.048,27.175-285.9,139.657-7.031,8.878-13.89,17.717-20.521,26.265-39.843,51.355-74.254,95.706-123.043,121.265-53.479,28.012-119.177,29.617-206.76,5.042-52.121-14.788-95.892-10.383-130.1,13.091-57.234,39.287-75.676,121.862-81.071,184.219-.16,1.852-.543,4.386-.543,4.386l-.066.9c-6.808,94.9,7.586,158.82,42.774,189.983,19.905,17.625,43.707,22.7,65.779,22.7a198.2,198.2,0,0,0,36.739-3.884c20.416-3.871,41.252-21.333,63.312-39.821,26.12-21.886,54.87-45.973,88.749-53.137-33.909,8.019-62.622,33.091-89.255,56.358-22.282,19.47-43.331,37.861-63.963,42.224-46.1,9.748-80.815,4.05-106.1-17.437-37.035-31.467-53.247-96.916-48.185-194.535v-.046c.009-1.356,1.72-136.277,77.082-192.421,21.918-16.33,47.974-24.51,77.875-24.51q26.914,0,57.917,8.852c44.069,12.6,81.432,18.251,113.8,18.249,111.979,0,164.078-67.576,226.311-148.309,6.8-8.828,13.84-17.954,21.049-27.114,45.181-57.424,83.222-103.4,127-129.159C870.418,72.846,921,68.866,988.478,87c47.861,12.86,105.294,50.4,153.636,100.412,52,53.8,85.005,114.024,90.545,165.223C1238.961,410.869,1210.636,457.987,1150.747,488.891Z" transform="translate(0 0)" fill="#111"/>
  </g>
</svg>
