<svg xmlns="http://www.w3.org/2000/svg" width="65.849" height="70.161" viewBox="0 0 65.849 70.161">
  <g id="Group_87" data-name="Group 87" transform="translate(-15.731)">
    <path id="Path_72" data-name="Path 72" d="M73.874,0H70.858a1.028,1.028,0,0,0,0,2.056h3.017a5.646,5.646,0,0,1,5.65,5.629V31.473a5.646,5.646,0,0,1-5.65,5.629H70.453a1.028,1.028,0,0,0-.625.211l-6.278,4.8V38.131A1.028,1.028,0,0,0,62.523,37.1H50.013a5.622,5.622,0,0,1-2.877-.784V24.78a6.272,6.272,0,0,0-2.772-5.2V7.685a5.646,5.646,0,0,1,5.65-5.629h14.4a1.028,1.028,0,0,0,0-2.056h-14.4a7.7,7.7,0,0,0-7.706,7.685V18.676a6.3,6.3,0,0,0-1.466-.174H22.025a6.293,6.293,0,0,0-6.294,6.278V27a1.028,1.028,0,0,0,2.056,0V24.78a4.235,4.235,0,0,1,4.238-4.222H40.842A4.235,4.235,0,0,1,45.08,24.78V36.728a1.028,1.028,0,0,0,0,.272v6.539c0,.129-.008.258-.019.386H42.94a4.769,4.769,0,0,0-4.687,3.9,1.03,1.03,0,0,0-.266.149l-4.6,3.55V48.789a1.028,1.028,0,0,0-1.028-1.028H22.025a4.235,4.235,0,0,1-4.238-4.222V33.167a1.028,1.028,0,0,0-2.056,0V43.539a6.293,6.293,0,0,0,6.294,6.278h9.309v3.8a1.044,1.044,0,0,0,1.656.814l5.185-4V61.991a4.765,4.765,0,0,0,4.765,4.753h6.308v2.4a1.043,1.043,0,0,0,1.656.814l4.16-3.212h1.229a4.765,4.765,0,0,0,4.765-4.753V60.166a1.028,1.028,0,0,0-2.056,0v1.825a2.706,2.706,0,0,1-2.709,2.7h-1.58a1.028,1.028,0,0,0-.628.214L51.3,67.05V65.716a1.028,1.028,0,0,0-1.028-1.028H42.94a2.707,2.707,0,0,1-2.709-2.7V48.678a2.706,2.706,0,0,1,2.709-2.7H56.294A2.706,2.706,0,0,1,59,48.678v5.046a1.028,1.028,0,0,0,2.056,0V48.678a4.765,4.765,0,0,0-4.765-4.753h-9.17c.008-.128.012-5.32.012-5.32a7.693,7.693,0,0,0,2.877.554H61.5V44.2a1.044,1.044,0,0,0,1.652.816L70.8,39.159h3.073a7.7,7.7,0,0,0,7.705-7.685V7.685A7.7,7.7,0,0,0,73.874,0Z" fill="#fff"/>
    <path id="Path_73" data-name="Path 73" d="M281.015,54.65A2.142,2.142,0,0,0,278.38,56.7a6.039,6.039,0,0,1-1.511,4l-2.832,3.2a1.026,1.026,0,0,0-.861-.468h-5.529a1.028,1.028,0,0,0-1.028,1.028V76.9a1.028,1.028,0,0,0,1.028,1.028h5.529a1.027,1.027,0,0,0,.934-.6,7.182,7.182,0,0,0,3.736,1.054h9.771a2.69,2.69,0,0,0,2.655-2.785c-.031-.66,0-9.515,0-9.712a2.66,2.66,0,0,0-2.655-2.658l-5.081-.015.21-.5a8.026,8.026,0,0,0-.423-7.063,2.1,2.1,0,0,0-1.311-1Zm-8.867,21.221h-3.473V65.487h3.473Zm15.469-10.59a.6.6,0,0,1,.6.6c0,.2,0,.726,0,1.446-.015,3.973-.025,7.737,0,8.362a.6.6,0,0,1-.6.632h-9.771a5.118,5.118,0,0,1-3.21-1.136l-.433-.35V66.815l4.206-4.76a8.093,8.093,0,0,0,2.026-5.358.057.057,0,0,1,.106-.028,5.958,5.958,0,0,1,.314,5.243l-.811,1.921a1.028,1.028,0,0,0,.944,1.428Z" transform="translate(-216.503 -47.056)" fill="#fff"/>
    <path id="Path_74" data-name="Path 74" d="M73.479,202.681a1.028,1.028,0,0,0,0,2.056h3.03l-.566,3.423a1.028,1.028,0,1,0,2.028.335l.621-3.759h2.48l-.566,3.423a1.028,1.028,0,1,0,2.028.335l.621-3.759H87.28a1.028,1.028,0,0,0,0-2.056H83.5l.415-2.508h3.37a1.028,1.028,0,0,0,0-2.056H84.25l.566-3.423a1.028,1.028,0,1,0-2.028-.335l-.621,3.759h-2.48l.566-3.423a1.028,1.028,0,0,0-2.028-.335l-.621,3.759H73.479a1.028,1.028,0,0,0,0,2.056h3.784l-.415,2.508Zm5.868-2.508h2.48l-.415,2.508h-2.48Z" transform="translate(-48.946 -166.979)" fill="#fff"/>
    <path id="Path_75" data-name="Path 75" d="M225.781,369.243a3.457,3.457,0,0,0-3.042-.684,3.824,3.824,0,0,0-2.852,3.859,5.047,5.047,0,0,0,1.519,3.613,15.079,15.079,0,0,0,3.906,2.694,1.028,1.028,0,0,0,.963,0c3.256-1.726,5.425-3.459,5.425-6.307a3.8,3.8,0,0,0-2.953-3.839A3.447,3.447,0,0,0,225.781,369.243Zm3.863,3.175c0,1.536-1.019,2.672-3.85,4.23-2.832-1.559-3.85-2.695-3.85-4.23a1.758,1.758,0,0,1,1.281-1.861,1.543,1.543,0,0,1,.362-.043,1.419,1.419,0,0,1,1.294.827,1.028,1.028,0,0,0,1.845-.037,1.336,1.336,0,0,1,1.576-.718A1.738,1.738,0,0,1,229.643,372.418Z" transform="translate(-176.176 -317.959)" fill="#fff"/>
  </g>
</svg>
