<svg xmlns="http://www.w3.org/2000/svg" width="130" height="113.75" viewBox="0 0 130 113.75">
  <g id="Icon" transform="translate(-1375.001 -3942.125)">
    <path id="Icon_awesome-quote-left" data-name="Icon awesome-quote-left" d="M12.188,56.875H32.5V40.625a16.248,16.248,0,0,0-16.25-16.25H14.219a6.078,6.078,0,0,1-6.094-6.094V6.094A6.078,6.078,0,0,1,14.219,0H16.25A40.583,40.583,0,0,1,56.875,40.625v60.937A12.18,12.18,0,0,1,44.688,113.75h-32.5A12.18,12.18,0,0,1,0,101.562v-32.5A12.18,12.18,0,0,1,12.188,56.875Zm73.125,0h20.313V40.625a16.248,16.248,0,0,0-16.25-16.25H87.344a6.078,6.078,0,0,1-6.094-6.094V6.094A6.078,6.078,0,0,1,87.344,0h2.031A40.583,40.583,0,0,1,130,40.625v60.937a12.18,12.18,0,0,1-12.187,12.188h-32.5a12.18,12.18,0,0,1-12.187-12.188v-32.5A12.18,12.18,0,0,1,85.313,56.875Z" transform="translate(1375.001 3942.125)" fill="#48b774" opacity="0.05"/>
  </g>
</svg>
