<svg xmlns="http://www.w3.org/2000/svg" width="1474.228" height="977" viewBox="0 0 1474.228 977">
  <g id="Line_Illustration" data-name="Line Illustration" transform="translate(1594.698 1050.975) rotate(-180)" opacity="0.01">
    <path id="Path_36" data-name="Path 36" d="M1593.538,442.089c-7.385-68.269-51.285-148.463-120.444-220.017-64.236-66.459-140.635-116.36-204.367-133.483-188.187-50.561-266.086,34.338-387.581,188.749C871.607,289.46,862.3,301.531,853.3,313.2c-53.914,69.939-100.47,130.337-166.56,165.03C614.3,516.26,525.268,518.16,406.55,484.206c-73.61-21.055-134.814-13.946-181.894,21.13C124.4,580.02,121.7,758.465,121.664,761.839c-6.73,129.922,15.021,217.177,64.653,259.345,23.431,19.911,52.771,29.794,88.883,29.791q24.7,0,53.706-6.15c27.972-5.919,56.057-30.457,85.793-56.434,59.469-51.965,126.873-110.865,222.006-53.871,55.643,33.332,114,41.309,168.746,23.079,67.2-22.373,126.656-83.429,159.042-163.323,10.82-26.686,23.5-46.4,37.978-61.047q5.417-2.141,10.958-4.255,6.929-2.517,14.069-4.985,12.085-3.97,24.746-7.776,9.8-2.737,19.991-5.4,9.518-2.279,19.42-4.509,9.04-1.838,18.41-3.659,8.818-1.514,17.949-3.039c2.244-.32,4.492-.643,6.765-.969,3.484-.5,7.02-1,10.585-1.514q8.31-.99,16.916-2.039,7.98-.778,16.215-1.632,7.919-.623,16.078-1.341,7.654-.476,15.522-1.061,7.541-.359,15.288-.842c72.652-2.552,158.346-13.654,258.42-65.294C1564.051,583.5,1602,520.279,1593.538,442.089ZM1230.364,608.036c11.7-25.988,2.187-59.842-24.242-86.245-13.944-13.931-38.69-31.769-77.409-37.622-36.058-5.458-75.018.911-115.773,18.916-67.279,29.728-105.79,56.679-137.388,81.376q-3.884,3.036-7.617,5.977C823.884,625.072,792.057,650.095,698,657.369c-22.467,1.733-45.166,5.89-69.2,10.293-16.522,3.024-33.4,6.109-51.5,8.713-.765.046-1.546.089-2.314.135,8.277-2.134,16.383-4.38,24.384-6.6,29.125-8.1,56.631-15.745,87.54-16.512,100.259-2.494,134.055-31.005,180.825-70.466q4.783-4.031,9.751-8.2c37.329-31.19,76.5-57.6,146.305-85.1,58.644-23.1,140.325-28.18,193.686,26.882,26.093,26.925,35.676,60.886,24.4,86.517-6.808,15.477-20.4,26.588-39.551,32.879C1218.638,627.874,1226.57,616.466,1230.364,608.036Zm-40.909,29.987c12.357-5.9,21.538-14.652,26.782-26.026,11.529-25.017,2.039-58.461-23.614-83.227-16.626-16.044-79.411-64.172-189.542-9.722-64.844,32.063-101.1,58.095-130.238,79.015-57.928,41.595-89.228,64.06-267.16,76.489,8-1.392,15.85-2.82,23.605-4.241,23.961-4.388,46.591-8.531,68.919-10.258,94.884-7.335,126.98-32.571,171.4-67.5q3.74-2.941,7.611-5.971c36.359-28.419,73.538-53.075,136.818-81.033,57.656-25.472,137.889-34.087,190.165,18.143,25.626,25.608,34.926,58.282,23.689,83.241C1221.178,621.857,1207.964,632.352,1189.455,638.023Zm54.9-33.914c11.711-26.634,1.923-61.751-24.934-89.466-14.234-14.687-39.516-33.787-79.13-41.393-36.7-7.044-76.248-2.379-117.5,13.874-70.149,27.638-109.52,54.185-147.052,85.545q-4.991,4.165-9.759,8.205c-46.35,39.1-79.839,67.355-179.143,69.826-31.247.778-58.91,8.468-88.2,16.613-12.476,3.468-25.207,6.983-38.456,10.027l-1.923.1c-1.758.092-3.481.2-5.219.308,7.585-2.65,15.042-5.461,22.4-8.243,30.4-11.5,61.878-23.434,100.181-22.774q3.879.061,7.634.06c100.372,0,137.194-32.85,183.516-74.171q5.369-4.787,10.961-9.739c39.113-34.476,80.578-62.835,155.81-89.178,90.783-31.786,161.312-2.526,197.037,35.465,26.611,28.295,36.492,63.61,25.175,89.974-7.121,16.586-21.8,28.618-42.658,35.439C1227.81,627.733,1238.481,617.478,1244.358,604.109Zm13.886-3.9c11.743-27.346,1.659-63.8-25.685-92.88-20.839-22.16-48.8-37.778-80.858-45.173-37.338-8.606-77.392-5.576-119.054,9.01-75.646,26.487-117.357,55.019-156.7,89.7-3.745,3.3-7.391,6.553-10.976,9.751-47.034,41.958-84.12,75.174-189.3,73.422-38.815-.626-70.543,11.362-101.186,22.95-10.428,3.944-21.042,7.952-31.954,11.455q-5.1.368-10.081.8c6.884-3.073,13.765-6.386,20.787-9.78,32.192-15.549,65.469-31.608,111.119-29.391,112.318,5.524,151.816-31.363,201.818-78.049q5.781-5.4,11.81-10.973c42.447-39.112,84.913-68.356,165.32-93.263,92.005-28.5,163.779,3.984,200.263,43.89,27.59,30.175,37.546,66.044,25.983,93.612-7.417,17.679-23.205,30.587-45.7,37.985C1240.219,625.879,1252,614.745,1258.244,600.208Zm13.8-3.884c11.975-28.546,1.828-65.507-26.478-96.466-37.048-40.516-109.85-73.525-203.066-44.648-80.9,25.06-123.63,54.491-166.36,93.857q-6.047,5.575-11.822,10.988c-49.53,46.251-88.643,82.783-199.834,77.325-46.3-2.284-79.935,13.957-112.434,29.656-9.562,4.619-18.87,9.1-28.247,13-.376.037-.756.072-1.129.109,6.334-3.555,12.684-7.459,19.145-11.437,29.667-18.264,63.28-38.942,111.269-35.3,118.585,9.088,160.087-31.172,212.635-82.134q6.12-5.938,12.5-12.066c46.049-44.04,89.422-74.087,174.833-97.348,93.141-25.357,166.134,10.327,203.4,52.179,28.187,31.662,38.468,68.984,26.82,97.4-7.738,18.884-24.705,32.807-49.049,40.811C1252.458,624.285,1265.414,612.133,1272.043,596.324Zm13.739-3.866c12.038-29.376,1.575-67.773-27.3-100.209-37.8-42.46-111.82-78.68-206.133-52.992-85.97,23.414-129.633,53.664-176,98.006q-6.4,6.124-12.511,12.08c-52.061,50.483-93.17,90.363-210.541,81.376-48.864-3.765-82.88,17.207-112.9,35.693-8.375,5.155-16.565,10.186-24.755,14.465q-6.8.748-13.35,1.606c6.1-4.019,12.3-8.54,18.789-13.262,30.88-22.48,65.84-47.963,120.748-42.48,124.915,12.5,168.416-31.1,223.5-86.283q6.433-6.444,13.133-13.086c48.71-48.093,94.49-80.107,184.355-101.44,94.172-22.356,168.4,16.514,206.46,60.352,28.812,33.188,39.417,72.014,27.677,101.33-6.27,15.653-20.967,34.387-54.925,44.671C1263.436,623.754,1278.5,610.235,1285.782,592.458Zm13.692-3.843c12.117-30.256,1.332-70.141-28.143-104.092-38.58-44.44-113.786-83.853-209.142-61.214-90.479,21.482-136.58,53.721-185.635,102.149q-6.72,6.638-13.142,13.1c-27.851,27.9-51.9,51.994-84.887,68.024C742.3,624.19,698.946,629.743,642.1,624.06c-55.907-5.613-91.345,20.217-122.616,42.984-8.225,5.988-16,11.633-23.634,16.333q-7.324,1.051-14.315,2.243c6.186-4.636,12.49-9.947,19.1-15.531,30.306-25.6,68.035-57.452,129.94-50.014,131.234,15.773,176.774-31.106,234.392-90.467q6.733-6.928,13.73-14.073c52.718-53.5,99.234-86.168,193.886-105.536,95.188-19.475,170.631,22.581,209.492,68.437,29.893,35.269,40.561,74.658,28.534,105.364-8.586,21.929-27.9,37.893-56.524,47.093C1281.154,619.865,1293.717,602.987,1299.474,588.615Zm-799.36,96.93c-1.19.182-2.366.369-3.539.554l.145-.086C497.855,685.848,498.981,685.7,500.113,685.545ZM489.436,687.1c-.174.092-.345.179-.515.271-4.579.793-9.027,1.617-13.3,2.477.272-.185.542-.355.814-.542Q482.939,688.116,489.436,687.1Zm823.7-102.319c12.392-31.639,1.555-72.046-28.986-108.082-39.365-46.447-115.752-89.057-212.107-69.339C976.7,426.866,929.86,459.765,876.765,513.651q-7.029,7.136-13.744,14.087C805.923,586.556,760.83,633.024,630.9,617.4c-63.072-7.577-101.307,24.7-132.01,50.633-8.184,6.911-15.887,13.409-23.437,18.659q-7.78,1.436-15.094,3.062c6.481-5.351,13.087-11.72,20.063-18.461,31.08-30.034,69.761-67.4,138.9-57.882C756.952,632.4,804.467,582.243,864.6,518.76c4.686-4.947,9.447-9.973,14.335-15.056,56.906-59.167,103.992-92.372,203.411-109.636C1178.633,377.34,1257,424.8,1294.863,470.522c30.535,36.872,41.52,77.8,29.377,109.484-9,23.495-29.9,40.649-61.021,50.524C1293.459,618.654,1307.085,600.22,1313.131,584.78ZM343.166,788.219c1.179-1.837,2.447-3.719,3.768-5.631-.006.052-.012.1-.02.153Q344.911,785.535,343.166,788.219Zm.573,12.443c-.2,7.023,1.63,14.113,5.615,21.7,11.827,22.511,47.934,36.6,100.1,40.156-54.465-2.191-86.323-12.446-98.765-31.437C343.551,820.181,341.411,810.791,343.739,800.663Zm-18.491,28.7c.5,14.13,8.532,23.7,20.449,33.727,19.562,16.463,57.633,14.185,105.839,11.29,6.585-.395,13.481-.8,20.57-1.182-12,.923-23.533,2.053-34.4,3.131-40.946,4.065-73.28,7.274-91.359-5.294-11.451-7.957-22.789-17.007-24.6-32.282-1.984-16.713,7.593-39.8,29.7-70.9a60.855,60.855,0,0,0-2.835,7.557C332.21,797.693,324.75,815.208,325.248,829.361Zm126.126,42.327c-47.6,2.857-85.194,5.109-103.931-10.659-11.364-9.56-19.03-18.622-19.49-31.763-.353-10.062,3.791-22.261,12.655-36.939-6.064,10.212-9.212,19.236-9.629,27.323-.75,14.517,7.475,24.965,15.618,33.271,20.069,20.47,64.427,19.651,120.76,17.832C461.878,871.057,456.535,871.377,451.374,871.688ZM348.532,851.036c-8.123-8.283-15.543-17.8-14.851-31.247a45.366,45.366,0,0,1,3.513-14.508,41.053,41.053,0,0,0-.935,4.57c-2.021,14.26,4.949,25.069,11.248,32.891,17.8,22.114,61.03,25.853,114.637,25.484C408.907,869.892,367.2,870.077,348.532,851.036Zm1.086-9.978c-8.969-11.14-12.163-20.361-10.677-30.829a38.546,38.546,0,0,1,1.465-6.239c-1.135,9.37,1.46,18.553,8.019,28.566,16.012,24.44,59.947,31.789,106.752,33.006C405.545,865.559,365.963,861.358,349.618,841.058Zm2.137-19.943c-4.266-8.119-5.957-15.606-5.152-23.059a54.3,54.3,0,0,0,3.7,14.113C362.256,841.2,405.432,856,451.771,859.994,399.452,856.8,363.325,843.134,351.755,821.115Zm1.051-9.967a51.3,51.3,0,0,1-3.828-22.131,51.624,51.624,0,0,0,2.279,12.963c8.424,27,44.086,47.344,89.564,54.341C395.841,850.664,362.343,834.3,352.806,811.149Zm-1.15-22.757c.174,1.133.316,2.266.568,3.4,6.128,27.433,37.961,49.938,78.232,59.706-39.067-8.309-69.3-26.862-76.613-50.316A48.841,48.841,0,0,1,351.657,788.392Zm3.212,2.814a46.833,46.833,0,0,1-.866-5.466c6.977,29.667,42.084,55.016,83.607,64.617C395.267,841.8,361.112,819.166,354.868,791.206Zm1.017-9.981c-.012-.069-.009-.138-.02-.208a67.657,67.657,0,0,0,11.164,22.607c13.183,17.942,34.3,32.144,57.824,40.467C388.549,832.339,359.8,808.4,355.885,781.225Zm.97-12.031a525.662,525.662,0,0,1,35.456-39.931c4.161-2.6,8.72-5.187,13.712-7.747-20.923,18.366-37.176,34.4-49.136,48.52C356.875,769.755,356.864,769.473,356.855,769.193Zm52.307-60.632c-1.031,1.009-2.071,2.021-3.084,3.016a158.313,158.313,0,0,0-17.324,9.526q1.633-1.881,3.3-3.788A152.4,152.4,0,0,1,409.162,708.561Zm-11.934,2.9c.177-.2.348-.389.524-.591.287-.023.568-.086.854-.121C398.146,710.986,397.68,711.222,397.228,711.462Zm25.05-3.9c-.3.248-.579.49-.872.738q-7.954,3.174-14.726,6.484c.353-.349.7-.692,1.048-1.041Q414.41,710.59,422.278,707.561Zm-9.007.767c.182-.176.356-.349.542-.528.347-.026.689-.1,1.037-.133C414.323,707.887,413.787,708.109,413.272,708.328Zm-13.3,9.3-1.251,1.254A142.754,142.754,0,0,0,380.793,730.4c.307-.36.611-.724.921-1.087A129.953,129.953,0,0,1,399.97,717.632Zm-20.179,9.774a86.276,86.276,0,0,0-14.642,14.188,74.576,74.576,0,0,1,18.6-18.821Q381.737,725.112,379.791,727.405Zm1.584,9.365q-14.07,14.989-24.454,27.868c.009-.121.029-.242.038-.363a62.812,62.812,0,0,1,3.078-5.639c.721-1.168,1.52-2.361,2.375-3.569A101.875,101.875,0,0,1,381.375,736.77Zm33.97-19.755q5.347-2.439,11.28-4.821c-17.419,12.761-32.131,24.408-44.317,35.116-.3.222-.605.45-.9.675Q396.033,733.618,415.345,717.015Zm20.99-8.523q4.366-1.574,9.033-3.114-19.087,11.6-34.491,22.056Q422.6,718.361,436.335,708.492Zm-6.551-3.685c.1-.035.211-.069.313-.107.408-.029.814-.1,1.222-.141-.75.262-1.462.533-2.2.8C429.347,705.174,429.562,704.992,429.784,704.807Zm-.2-2.776c1.092-.695,2.186-1.439,3.281-2.243,4.886-1.525,9.884-2.935,14.961-4.244q-1.507.93-3.015,1.738-7.993,2.292-15.079,4.734C429.68,702.02,429.631,702.028,429.582,702.031Zm26.744-.092c1.978-.588,3.973-1.173,6.027-1.75q-10.877,5.419-20.7,10.63Q448.718,706.46,456.326,701.939Zm-2.563-7.107c.53-.375,1.057-.747,1.587-1.142q6.937-1.63,13.988-3.03c-.44.263-.878.528-1.318.781Q460.579,693.076,453.763,694.832Zm873.008-113.866c12.491-32.6,1.347-74.529-29.82-112.159-38.326-46.277-117.646-94.31-215.073-77.394-100.161,17.394-147.585,50.835-204.9,110.429q-7.341,7.629-14.347,15.067c-59.6,62.921-106.648,112.615-242.941,93.834-70.433-9.719-109.656,28.177-141.162,58.617-8.552,8.26-16.536,15.961-24.347,21.825q-8.206,1.959-15.8,4.157c6.939-6.052,14.092-13.859,22-22.511C490.421,639.989,531.543,595,608.07,606.747a403.026,403.026,0,0,0,61.05,5.068c98.773-.006,142.265-46.905,195.108-103.908q7.32-7.9,14.94-16.036c59.982-63.714,109.387-98.8,212.942-113.736,58.082-8.381,117.557,5.925,167.446,40.283,44.676,30.769,75.3,73.43,81.919,114.122,7.677,47.2-17.825,82.131-70.54,98.248C1305.376,618.049,1320.36,597.694,1326.771,580.966Zm1.185,17.786c14.74-18.089,20.338-41.133,16.191-66.64-6.736-41.4-37.781-84.732-83.054-115.91-50.448-34.747-110.6-49.218-169.368-40.733C987.371,390.522,937.607,425.86,877.193,490.03q-7.654,8.13-14.958,16.05c-62.093,66.983-111.142,119.9-253.752,98-77.948-11.965-119.651,33.637-150.1,66.935-9.838,10.757-18.476,20.19-26.866,26.406q-9.509,3.019-17.906,6.441c8.491-6.55,17.072-17.08,26.918-29.171,30.474-37.429,72.223-88.7,156.29-74.609,150.441,25.181,201.891-31.392,267.012-103.017,5.085-5.593,10.255-11.279,15.563-17.025,64.491-69.823,114.232-105.268,222.475-117.842,123.285-14.306,239.35,78.651,253.242,165.182,7.964,49.607-19.577,86.638-76.051,103.6C1300.207,623.483,1316.586,612.7,1327.956,598.752Zm29.834-71.793c-6.852-42.69-38.67-87.993-85.1-121.183-51.317-36.685-112.095-53.11-171.124-46.254C992.468,372.2,942.359,407.9,877.4,478.217q-7.967,8.628-15.575,17.039c-64.569,71.017-115.57,127.105-264.557,102.169C511.616,583.1,469.326,635.053,438.432,673c-15.7,19.282-28.106,34.517-41.4,35.223l-.565.029-.377.421c-2.079,2.332-4.1,4.628-6.1,6.9-14.969,9.113-25.5,19.674-31.169,31.57a48.76,48.76,0,0,0-3.742,11.169c-26.652,35.8-38.25,62.013-36.026,80.756,1.943,16.385,13.782,25.87,25.739,34.179,10.162,7.064,24.338,9.387,41.725,9.387,14.949,0,32.267-1.718,51.45-3.621,12.5-1.24,25.841-2.566,39.817-3.538-17.526,1.609-34.089,3.984-49.507,6.225-36.492,5.3-65.322,9.488-83.034-.649-14.057-8.044-26.938-16.6-30.153-32.729-5.233-26.262,15.931-68.973,66.59-134.379,12.957-1.168,24.541-17.048,39.145-37.068,30.779-42.194,72.924-99.984,164.752-83.455,156.852,28.217,210.254-31.53,277.852-107.177,5.294-5.922,10.672-11.945,16.2-18.028,67.78-74.647,119.787-111.934,232.012-121.947,125.173-11.178,243.051,87.119,257.128,175.948,8.326,52.545-21.926,91.986-83.32,109.579C1339.583,613.689,1365.734,576.411,1357.79,526.959Zm13.658-5.164c-14.257-89.959-133.418-189.513-260.047-178.214C998.277,353.672,945.886,391.228,877.622,466.4q-8.293,9.138-16.212,18.045c-67.033,75.019-119.984,134.279-275.347,106.315-93.477-16.814-137.982,44.167-167.426,84.524-14.416,19.764-25.806,35.373-37.726,36.01l-.62.029-.379.49C328.471,778.154,307.03,821.7,312.439,848.845c3.435,17.238,16.84,26.179,31.462,34.543,8.349,4.783,18.882,6.542,31.32,6.542,15.149,0,33.127-2.609,53.451-5.564,16.009-2.324,33.266-4.8,51.54-6.4-20.955,2.315-40.489,6.112-58.6,9.647-33.466,6.53-59.9,11.688-77.456,3.471-16.936-7.931-31.343-15.892-36.1-33.061-7.489-27.044,10.8-71.856,57.563-141.01,11.723-1.211,22.311-17.336,35.644-37.645,29.2-44.475,73.338-111.7,173.073-92.614,29.241,5.59,55,8.165,78.026,8.165,105.533-.009,153.142-54.107,210.651-119.488q8.258-9.385,16.849-19.046c72.6-81.2,124.7-118.666,241.548-126.056,58.887-3.725,120.224,16.339,172.783,56.48,48.276,36.875,81.267,85.562,88.246,130.236,8.818,56.42-23.446,97.36-90.917,115.728C1350.8,614.047,1379.768,574.312,1371.448,521.8Zm13.669-5.167c-14.413-92.245-135.324-197.093-263.873-188.991-117.079,7.4-171.769,46.836-243.4,126.952-5.754,6.435-11.355,12.8-16.863,19.066C791.493,552.642,736.611,615.03,574.85,584.1,473.288,564.685,428.6,632.816,399,677.891c-13.174,20.066-23.579,35.918-34.21,36.483l-.675.034-.376.556c-47.5,70.158-66.025,115.844-58.293,143.772C310.5,876.987,326.094,885.6,343,893.522c6.858,3.212,14.894,4.492,24.042,4.492,15.343,0,33.816-3.6,55.084-7.756,20.063-3.915,41.867-8.159,65.4-10.33-26.13,2.984-50.057,8.88-70.694,13.975-31.392,7.756-56.185,13.882-73.769,7.219-19.357-7.329-35.9-14.891-42.365-33.24-9.7-27.554,6.281-75.9,48.849-147.8,10.541-1.231,19.707-16.693,32.284-37.9,29.232-49.3,73.4-123.821,181.262-102.086,169.728,34.2,226.981-31.844,299.485-115.452q8.58-9.895,17.512-20.081c76.086-86.3,130.4-125.571,251.09-130.167,58.25-2.214,121.88,20.283,174.561,61.736,49.512,38.96,83.3,89.708,90.389,135.754,5.256,34.151-.3,95.336-96.6,121.452-1.147.311-2.259.62-3.4.931C1361.515,615.111,1393.871,572.634,1385.117,516.629ZM485.83,848.574c-42.73,5.781-92.863-14.214-116.615-46.542-6.284-8.549-10.177-17.379-11.682-26.1,2.111-2.488,4.382-5.031,6.855-7.646,9.664-9.915,22.684-20.678,39.217-32.432,18.974-12.1,42.9-25.086,72.043-39.17,2.045-.51,4.136-1.012,6.25-1.511a78.857,78.857,0,0,0,15.685-3.529c4.1-.784,8.277-1.554,12.612-2.289,4.245-.721,8.413-1.62,12.548-2.592,1.179-.159,2.325-.323,3.521-.479,7.645-.983,15.039-2.255,22.27-3.688q15.121-1.514,29.064-3.537c203.854-12.057,235.539-34.8,296.829-78.807,29.055-20.859,65.215-46.822,129.859-78.784,108.53-53.663,170.145-6.5,186.452,9.24,24.83,23.97,34.086,56.186,23.038,80.165-6.866,14.894-20.376,24.971-39.258,29.86q-2.146.143-4.28.314c-.435.009-.849.037-1.286.04-5.74.061-11.384.32-16.956.738-.385,0-.776-.014-1.161-.014-5.366,0-10.651.2-15.87.565q-8.588-.143-16.921.421c-83.143-2.116-146.98,53.666-203.579,103.181-24.784,21.675-48.117,42.068-71.351,56.72a235.857,235.857,0,0,1-25.85,7.5c-4.877,1.012-9.756,1.865-14.645,2.427-2.575.294-5.14.629-7.7.989-.072,0-.148.009-.223.011-4.677.2-9.3.525-13.881.937q-6.972-.052-13.773.219c-4.729-.254-9.374-.358-13.964-.369-4.544-.435-9.024-.77-13.426-.966q-7.246-1-14.228-1.571-6.863-1.189-13.466-1.955c-62.243-12.989-106.74,2.632-149.971,17.823C538.048,836.154,513.293,844.852,485.83,848.574ZM922.773,747.7c50.428-41.883,106.422-88.362,176.079-99.923-67.282,15.485-121.961,58.553-171.425,97.545-11.051,8.713-21.813,17.195-32.386,25.135C904.126,763.188,913.347,755.533,922.773,747.7Zm-39.808,28.814c11.031-9.059,22.1-18.729,33.286-28.517,48.491-42.416,102.312-89.455,168.891-100.272-64.161,14.949-116.621,58.467-164.1,97.9C908.01,756.456,895.377,766.942,882.965,776.516Zm46.145-29.079c52.5-41.387,110.9-87.39,183.909-99.721-70.737,16.094-127.855,58.767-179.452,97.357-9.079,6.787-17.961,13.432-26.7,19.775C914.172,759.212,921.575,753.379,929.11,747.437Zm6.082-.21c54.595-40.831,115.393-86.269,191.87-99.583-74.337,16.9-133.928,59.141-187.7,97.273q-10.1,7.157-19.892,14.032Q927.242,753.189,935.191,747.227Zm5.737-.115c56.912-40.352,120.377-85.312,200.839-99.669-78.51,17.818-140.907,59.7-197.121,97.472q-5.847,3.927-11.584,7.767Q936.977,749.914,940.928,747.112Zm216.6-100.154c-83.607,18.881-149.276,60.635-208.337,98.2-.452.291-.9.577-1.355.865C1006.986,706.289,1073.066,662.279,1157.525,646.958Zm15.117-.369c-83.6,19.129-149.58,56.924-208.644,92.366C1022.853,701.705,1088.884,662.391,1172.641,646.589Zm16.577-.753c-83.016,19.178-148.966,52.882-207.674,85.8C1040.107,697.026,1106.092,661.99,1189.218,645.836ZM769.993,824.512c1.4.167,2.8.285,4.193.392l-.13.046c-1.509-.055-3.023-.162-4.544-.3C769.671,824.6,769.833,824.558,769.993,824.512Zm-2.653-3.1.214-.049c.8.139,1.584.236,2.378.355l-.13.04Q768.572,821.6,767.34,821.409Zm-6.606,1.525c1.016.225,2.03.421,3.041.608-.287.089-.57.182-.857.271-1.08-.179-2.169-.4-3.255-.617Zm-1.1-3.016.492-.078c.339.075.675.144,1.014.219-.156.037-.31.078-.466.112C760.329,820.095,759.982,820,759.634,819.919Zm-4.532,1.612c-.4.1-.8.2-1.2.308-.7-.19-1.407-.381-2.114-.588.455-.081.906-.164,1.361-.245.373.107.741.2,1.118.308C754.543,821.4,754.821,821.453,755.1,821.531Zm-7.953-2.177c-.269.052-.533.11-.8.161-.322-.11-.634-.211-.953-.32.258-.029.516-.055.773-.084C746.5,819.2,746.819,819.267,747.149,819.354Zm-184.262,10.93c35.563-12.5,71.994-25.268,118.538-21.935-38.968.594-71.641,11.028-103.609,21.257-17.275,5.524-35.134,11.241-53.512,15.177-9.328,2-21.726,4.492-34.952,6.069-.5.06-1.008.078-1.512.133C514.912,847.107,539.3,838.57,562.887,830.284Zm-38.013,17.137c18.508-3.964,36.434-9.7,53.77-15.249,35.458-11.348,71.786-22.958,116.665-20.908-37.106,1.5-69.11,11.022-100.421,20.358-22.308,6.654-43.379,12.934-66.173,16.5l-3.316.522c-10.507,1.655-21.369,3.362-32.528,4.486-.1.011-.206.014-.31.026C504.8,851.564,516.172,849.283,524.874,847.421Zm.947,3.889,3.319-.522c22.971-3.6,45.114-10.2,66.524-16.584,35.062-10.451,70.995-21.159,114.006-20.4-35.076,2.387-66.144,11.207-96.514,19.873-26.935,7.692-52.38,14.955-80.03,17.8-4.628.473-9.279,1.009-13.967,1.551-6.742.775-13.707,1.557-20.732,2.188C507.8,854.121,516.942,852.706,525.821,851.31Zm-6.354,4.391c4.677-.536,9.316-1.07,13.938-1.548,27.885-2.869,53.443-10.163,80.5-17.887,34.007-9.708,68.881-19.614,109.28-20.343-32.409,3.336-61.858,11.587-90.656,19.695-31.92,8.99-62.07,17.475-94.994,19.207-7.26.381-14.7,1.009-21.9,1.617-3.568.3-7.188.579-10.8.856C509.777,856.794,514.686,856.255,519.467,855.7Zm-3.608,3.428c7.506-.634,14.6-1.234,21.815-1.614,33.229-1.744,63.518-10.273,95.588-19.3,31.262-8.8,63.3-17.786,99.025-20.381.29.086.585.182.872.268-28.166,4.284-54.482,11.806-80.251,19.176-37.216,10.644-72.371,20.7-110.974,20.905-9.507.049-18.812.614-28.661,1.211-.938.057-1.891.112-2.832.167C512.242,859.412,514.069,859.279,515.859,859.129Zm26.09,1.744c38.977-.2,74.305-10.31,111.707-21.009,27.39-7.83,55.4-15.826,85.559-19.9.605.2,1.225.412,1.833.614-23.072,4.8-45.186,11.4-66.871,17.872-42.771,12.769-83.161,24.864-127.843,23.082-9.244-.36-18.644-.11-27.874.248C526.438,861.312,534.147,860.917,541.949,860.874Zm4.28,3.359c45.114,1.768,85.73-10.356,128.724-23.2,23.055-6.882,46.593-13.9,71.229-18.732.889.312,1.775.559,2.661.842-17.932,4.731-35.435,10.31-52.643,15.8-48.525,15.479-94.365,30.1-145.468,25.954-6.675-.542-13.408-.721-20.133-.721-1.355,0-2.7.032-4.057.043C533.139,864.039,539.655,863.976,546.229,864.232Zm4.28,3.347c6.07.493,12.053.723,17.981.723,44.529,0,85.481-13.063,128.535-26.793,18.572-5.925,37.494-11.953,56.909-16.9,1.2.311,2.406.64,3.6.9-13.067,4.146-25.98,8.6-38.7,13.014-52.012,18.051-105.8,36.722-163.716,29.728-5.537-.669-11.028-1.049-16.51-1.269C542.571,867.092,546.527,867.257,550.509,867.58Zm3.6,3.278c.229.026.458.046.686.075a214.548,214.548,0,0,0,25.7,1.522c48.812,0,94.673-15.912,139.236-31.38,14.263-4.95,28.766-9.97,43.457-14.519,1.619.248,3.232.435,4.842.591-8.755,3.232-17.451,6.553-26.044,9.843-57.682,22.085-117.325,44.936-182.479,34.629C557.706,871.333,555.908,871.086,554.109,870.858Zm8.708,3.936a213.255,213.255,0,0,0,29.533,2.073c53.037,0,102.509-18.942,150.611-37.359,10.483-4.013,21.123-8.073,31.83-11.956,2.129.046,4.245,0,6.359-.1q-7.715,3.256-15.595,6.631C702.2,861.119,636.7,889.076,563.9,874.984,563.538,874.914,563.179,874.863,562.817,874.793Zm203.8-38.233c8.022-3.422,15.847-6.735,23.611-9.961,3.029-.438,6.044-1.047,9.047-1.759-3.232,1.542-6.475,3.094-9.777,4.676-68.027,32.608-138.356,66.271-217.989,49.506C641.878,889.777,705.25,862.748,766.622,836.56Zm24.057-4.616c15.473-7.418,30.089-14.421,44.734-20.787.686-.3,1.381-.614,2.071-.917-7.709,4.074-15.473,8.278-23.614,12.689-69.431,37.636-147.93,80.154-235.446,60.15C656.134,896.385,727.448,862.252,790.679,831.944Zm24.486-6.645c9.814-5.322,19.09-10.348,28.357-15.194l5.387-2.814,2.98-1.557c-.559.343-1.127.678-1.686,1.021q-5.63,3.46-11.4,7.026c-70.21,43.365-157.113,97.029-253.433,73.505C670.814,903.483,747.3,862.087,815.164,825.3ZM633.259,895.748c77.969-.006,148.274-43.42,206.976-79.675q5.764-3.559,11.393-7.023,6.842-4.2,13.8-8.3c-2.435,1.667-4.865,3.336-7.275,5.046-63.891,45.334-159.337,113.035-265.443,85.885A203.988,203.988,0,0,0,633.259,895.748Zm9.137,4.887c86.755-.008,163.267-54.283,217.329-92.643q9.131-6.479,18.537-12.571c-4.089,3.053-8.146,6.176-12.155,9.419C790.925,865.668,701.031,923.2,600.219,896.183A202.58,202.58,0,0,0,642.4,900.635Zm225.42-93.7q11.108-8.987,22.658-17c-5.566,4.429-11.039,9.053-16.406,13.951-96.535,88.149-184.083,119.946-267,96.8C705.954,923.267,793.963,866.689,867.816,806.93Zm8.083-1.064a311.958,311.958,0,0,1,25.5-20.917c-6.609,5.579-13.061,11.541-19.359,17.976C818.59,867.767,722.253,935.794,614.988,905.493,696.287,924.441,781.939,891.665,875.9,805.867Zm8.077-1.061a272.174,272.174,0,0,1,28.123-25.02,252.477,252.477,0,0,0-22.088,22.183c-27.1,30.783-70.9,72.545-125.654,96.691-48.047,21.182-95.727,24.988-142.071,11.521C727.555,935.373,821.573,868.58,883.976,804.806ZM765.455,901.125c55.206-24.345,99.315-66.39,126.592-97.38a244.6,244.6,0,0,1,30.8-29.457,234.008,234.008,0,0,0-24.85,26.724c-25.913,32.53-68.765,76.708-125.755,102.443-47.954,21.646-95.8,25.446-142.621,11.527C674.032,925.957,719.583,921.35,765.455,901.125Zm-129.61,18.42c45.212,11.734,91.319,7.219,137.51-13.637,57.485-25.954,100.661-70.458,126.757-103.221a226.1,226.1,0,0,1,32.742-33.56,222.037,222.037,0,0,0-26.875,30.921C846.192,882.6,745.979,953.252,635.845,919.545ZM908.175,801.626a212.079,212.079,0,0,1,34.706-37.8,211.91,211.91,0,0,0-28.911,35.26c-55.145,83.4-156.788,161.106-271.322,125.191C751.117,953,849.186,883.079,908.175,801.626Zm8.057-1.055a202.3,202.3,0,0,1,36.087-41.753,205.6,205.6,0,0,0-30.353,39.306c-32.536,53.718-77.36,96.253-126.213,119.77-47.384,22.814-97,26.608-145.32,11.455C762.837,959.358,861.911,882.725,916.231,800.57Zm-119.3,119.75c49.318-23.742,94.548-66.646,127.351-120.808,11.457-18.913,23.976-33.871,37.61-45.885-11.517,11.711-22.157,25.968-31.931,43.529-30.918,55.552-76.99,101.321-126.4,125.571-47.775,23.448-98,27.139-147.13,11.2C703.246,946.883,751.114,942.374,796.931,920.321Zm7.825,4.826c49.9-24.489,96.4-70.662,127.574-126.684,11.613-20.865,24.477-37.031,38.644-49.722-12.042,12.484-23.041,28-33.011,47.445C901.52,867.277,842.1,921.252,779.017,940.569c-38.789,11.873-77.968,11.138-116.9-2.076C709.832,952.3,758.426,947.889,804.756,925.147Zm-24.943,18c63.769-19.525,123.792-74,160.562-145.73,11.746-22.915,24.957-40.309,39.681-53.649C967.473,757,956.112,773.78,945.967,795.216c-34.955,73.862-94.215,130.052-158.529,150.3-39.449,12.423-79.365,11.645-119.112-2.232C705.467,954.463,742.808,954.48,779.813,943.143Zm8.442,4.945c65.021-20.476,124.892-77.193,160.162-151.724,11.79-24.916,25.279-43.437,40.474-57.357-13.04,13.908-24.688,31.864-34.917,55.235-33.477,76.489-92.5,134.815-157.886,156.02-38.508,12.487-77.549,12.2-116.563-.625A186.369,186.369,0,0,0,788.255,948.088ZM961.982,793.267c-32.093,79.17-90.931,139.647-157.388,161.778-38.549,12.839-78.93,12.409-118.877-.836,37.318,10.7,75.021,10.35,111.209-1.384,66.112-21.439,125.75-80.321,159.528-157.5,11.37-25.977,24.54-45.175,39.493-59.481l.365-.147C983.375,750.061,971.915,768.764,961.982,793.267Zm82.466-90.89a129.6,129.6,0,0,0-17.761,8.482c-1.074.53-2.129,1.1-3.189,1.664q-11.481,5.7-22.56,11.457c57.914-31.631,123.45-62.532,205.287-79.058C1144.223,659.514,1091.56,680.145,1044.448,702.377Zm25.612-7.525c-1.83.386-3.652.79-5.45,1.228,46.877-20.937,99.37-39.836,160.88-52.686A998.22,998.22,0,0,0,1070.06,694.852Zm15.89-2.768c-1.13.156-2.25.323-3.365.493a985.248,985.248,0,0,1,160.86-50.561A1299.325,1299.325,0,0,0,1085.95,692.084Zm10.883-1.295a1304.121,1304.121,0,0,1,167.419-51.02c-62.767,16.321-117.122,33.41-165.305,50.824C1098.244,690.66,1097.534,690.721,1096.833,690.79Zm12.447-1.026c51.447-18.242,109.844-36.1,177.842-53.041l.064-.017c-66.712,18.27-124.727,35.633-176.241,52.94C1110.384,689.68,1109.837,689.726,1109.28,689.763Zm12.641-.666c-.313.015-.628.023-.941.038,52.362-17.342,111.353-34.785,179.264-53.2,72.874-19.761,107.881-63.962,98.565-124.458-7.188-46.7-41.352-98.092-91.386-137.461-53.182-41.846-117.51-64.559-176.348-62.316-121.686,4.633-176.4,44.181-253.019,131.078-5.98,6.787-11.8,13.5-17.526,20.1C788.6,545.818,731.772,611.322,563.637,577.446c-109.749-22.1-154.512,53.4-184.135,103.36C367.53,701,358.074,716.951,348.665,717.45l-.724.038-.371.623C303.708,792.079,288,839.954,298.145,868.773c6.843,19.444,23.956,27.3,43.958,34.871a52.456,52.456,0,0,0,18.685,3.016c15.641,0,34.555-4.671,56.7-10.14,21.335-5.268,46.2-11.4,73.341-14.246-28.809,3.653-54.957,11.452-77.4,18.169-30,8.978-53.686,16.073-71.45,10.728-21.81-6.556-40.538-13.585-48.887-33.257-12.1-28.514,1.112-79.145,40.387-154.772,9.444-1.3,17.715-16.722,29.047-37.847,27.361-51.005,73.144-136.377,189.333-111.874,176.125,37.143,235.331-32.011,310.273-119.566q8.91-10.409,18.193-21.13c79.634-91.481,136.163-132.58,260.627-134.275,58.531-.813,122.793,23.6,176.363,66.937,50.755,41.064,85.35,93.9,92.538,141.336,9.114,60.139-25.427,104.827-97.25,125.837q-21.134,6.18-41.109,12C1215.823,660.794,1166.395,675.209,1121.921,689.1Zm10.211-.337h-.012c42.006-12.988,88.345-26.51,140.134-41.612q19.987-5.83,41.106-12c98.889-28.921,104.579-93.122,99.167-128.821-7.283-48.082-42.238-101.549-93.508-143.029-54.053-43.728-118.88-68.315-178.106-67.54-125.5,1.71-182.45,43.091-262.636,135.2-6.215,7.139-12.259,14.205-18.2,21.148-74.36,86.874-133.105,155.481-307.655,118.678-118.159-24.93-164.561,61.569-192.279,113.243-10.808,20.147-19.345,36.059-27.6,36.5l-.776.038-.356.686C291.478,798,278.131,849.586,290.6,878.965c9.522,22.439,32.3,29.287,50.6,34.788a50.265,50.265,0,0,0,14.541,1.958c16.093,0,35.453-5.8,58.473-12.686,23.055-6.9,50.019-14.966,79.732-18.429-31.051,4.319-58.985,14.133-82.9,22.534-27.938,9.82-52.052,18.308-70.141,14.1-24.248-5.631-45.172-12.011-55.6-33.11C270.7,858.6,281.2,805.624,317.4,726.206c8.384-1.335,15.436-15.852,25.942-37.472,27.138-55.857,72.547-149.357,197.274-121.973,182.563,40.078,243.68-32.184,321.054-123.669,6.163-7.286,12.432-14.7,18.879-22.191,84.9-98.669,141.205-139.748,270.172-138.387,58.78.6,123.722,26.876,178.181,72.092,52.015,43.192,87.415,98.141,94.69,146.984,9.131,61.33-25.647,107.569-97.931,130.2-58.059,18.175-110.05,33.052-155.923,46.176Q1150.325,683.519,1132.132,688.76Zm18.862-2.621c6.4-1.836,12.879-3.69,19.5-5.585,45.887-13.127,97.9-28.007,155.989-46.2,73.706-23.074,109.147-70.365,99.8-133.163-7.37-49.48-43.121-105.055-95.634-148.659-54.928-45.608-120.493-72.113-179.89-72.718-65.043-.652-113.149,9.722-155.722,33.678-41.242,23.212-76.413,59.02-116.531,105.652q-9.674,11.244-18.893,22.209c-76.787,90.787-137.435,162.5-318.4,122.772C414.381,536.281,368.4,630.988,340.907,687.561c-9.681,19.925-17.33,35.664-24.486,36.045l-.82.043-.342.744c-36.817,80.592-47.416,134.535-32.394,164.917,11.845,23.959,38.186,30.08,57.416,34.546a48.346,48.346,0,0,0,10.953,1.171c17.02,0,37.578-7.225,60.7-15.35,24.714-8.684,53.746-18.847,86.011-22.849-33.35,4.89-63.141,16.843-88.536,27.072-27.416,11.039-51.091,20.577-69.588,17.394-25.682-4.414-49.785-10.244-62.466-32.816-17.179-30.57-9.34-85.923,23.976-169.213,7.4-1.43,13.655-15.652,22.945-36.771,25.03-56.878,71.623-162.767,205.105-132.4,37.407,8.508,69.86,12.38,98.507,12.377C743.964,572.467,797.2,508.853,861.2,432.347c6.391-7.643,12.9-15.416,19.586-23.272,88.637-104.132,147.058-146.918,279.714-142.5,131.652,4.417,262.278,130.1,276.871,229.9,9.145,62.538-25.881,110.32-98.628,134.544C1267.207,654.834,1205.635,671.548,1150.994,686.139Zm19.626-2.468c49.9-13.43,105.5-28.964,168.972-50.1,74.134-24.685,109.81-73.514,100.453-137.487-16.218-110.925-157.255-228.112-279.459-232.209-133.748-4.5-192.629,38.616-281.872,143.455-6.7,7.859-13.2,15.641-19.6,23.29-79.2,94.676-141.758,169.464-329.131,126.846C394.286,526.6,347.142,633.819,321.8,691.413c-8.592,19.522-15.378,34.943-21.5,35.269l-.866.046-.321.8c-33.883,84.5-41.775,140.852-24.121,172.266,13.267,23.607,38.018,29.627,64.372,34.156a47.929,47.929,0,0,0,8.1.657c17.744,0,38.939-8.534,62.964-18.21,26.434-10.644,57.647-23.189,92.625-27.548-35.9,5.276-67.688,19.622-94.675,31.844-27.15,12.291-50.581,22.9-69.619,20.669-26.843-3.166-54.311-8.272-69.434-32.38-19.84-31.631-14.63-89.426,15.934-176.666,6.444-1.473,11.671-14.609,20.084-35.739C329.9,634.86,375.65,519.971,518.144,553.432c39.377,9.243,73.43,13.441,103.421,13.438,118.854-.009,173.5-65.983,239.147-145.26q9.935-12,20.3-24.362c44.9-53.277,81.357-91.17,124.284-115.434,45.038-25.458,95.915-35.07,164.975-31.181,59.376,3.347,125.68,33.346,181.914,82.3,54.569,47.511,91.574,106.745,98.985,158.448,6.467,45.1-5.523,105.8-99.361,138.86C1283.184,654.416,1223.848,670.4,1170.62,683.671Zm18.4-1.857c48.687-12.423,102.491-27.47,163.693-49.03,74.563-26.268,110.481-76.619,101.139-141.783-16.255-113.4-159.293-236.061-283.427-243.061-69.6-3.93-120.948,5.8-166.47,31.53-43.277,24.463-79.92,62.538-125.017,116.046-6.939,8.231-13.681,16.376-20.309,24.38-81.612,98.56-146.07,176.41-339.861,130.914C374,516.825,327.687,633.11,302.822,695.587c-7.541,18.939-13.5,33.9-18.647,34.174l-.906.046-.3.853c-31.094,88.492-36.31,147.287-15.945,179.754,15.754,25.121,43.918,30.385,71.412,33.626a47.25,47.25,0,0,0,5.607.32c18.6,0,40.486-9.9,65.452-21.211,27.662-12.527,60.387-27.335,97.334-32.129-37.717,5.749-70.911,22.364-99.031,36.466-27.089,13.585-50.5,25.328-70.1,23.953-28.971-2.015-58.742-6.132-76.471-31.812-22.583-32.706-19.982-92.986,7.952-184.263,5.566-1.591,10.1-14.2,17.338-34.361,11.381-31.683,28.578-79.557,61.9-114.792,39.707-41.987,93.028-55.258,158.494-39.444,201.862,48.756,268.7-32.718,353.313-135.879,6.858-8.361,13.837-16.869,21.019-25.467,92.825-111.156,152.578-162.259,298.8-150.732,59.707,4.708,126.711,36.555,183.831,87.373,56.695,50.44,93.558,110.311,101.128,164.26,6.452,45.965-5.682,108.114-100.123,143.15C1298.62,654.05,1240.984,669.6,1189.016,681.815Zm19.863-1.992A1408.245,1408.245,0,0,0,1365.821,632c96.126-35.659,108.448-99.1,101.86-146.047-7.66-54.572-44.838-115.039-102.005-165.9-57.552-51.2-125.135-83.293-185.424-88.048-147.5-11.619-207.659,39.813-301.1,151.7-7.185,8.606-14.167,17.12-21.031,25.484C774.108,511.607,707.75,592.513,507.547,544.149c-154.179-37.233-201.059,93.237-223.584,155.945-6.27,17.449-11.682,32.519-15.913,32.744l-.944.052-.278.9c-28.415,92.557-30.981,153.84-7.836,187.365,18.413,26.666,50.182,31,78.513,32.974,1.112.078,2.23.112,3.362.112,19.6,0,42.2-11.333,68.151-24.348,28.595-14.341,62.461-31.328,100.919-36.616-39.133,6.279-73.37,25.063-102.35,40.966-27.185,14.92-50.714,27.8-70.952,27.271-29.681-.77-63.063-3.878-83.549-31.135C227.7,896.6,227.7,833.8,253.095,738.41c4.489-1.517,7.935-11.625,14.717-32.631,21.561-66.764,66.411-205.7,227.859-165.676,208.3,51.628,277.03-32.9,364.045-139.924,7.1-8.727,14.315-17.607,21.749-26.585,96.6-116.66,158.5-169.974,308.347-154.847,60.068,6.063,127.785,39.75,185.792,92.421s95.655,114.69,103.259,170.124c6.426,46.833-5.865,110.426-100.913,147.405C1315.315,653.07,1258.9,668.492,1208.879,679.822Zm14.1-.5a1161.8,1161.8,0,0,0,155.954-48.108c96.694-37.619,109.173-102.486,102.616-150.28-7.692-56.051-45.641-118.652-104.119-171.753-58.426-53.052-126.711-86.989-187.341-93.11-151.115-15.249-213.48,38.394-310.71,155.815-7.44,8.981-14.665,17.87-21.766,26.6-86.41,106.277-154.683,190.217-361.282,139-70.54-17.483-127.444-2.7-169.122,43.924-34.572,38.677-51.059,89.746-61.971,123.539-5.334,16.52-9.936,30.786-13.307,30.965l-.982.052-.255.946c-25.835,96.688-25.76,160.5.226,195.083,21.21,28.22,55.333,31.423,85.652,32.213.426.012.851.017,1.28.017,20.712,0,44.077-12.824,71.044-27.623C438.31,920.462,473.2,901.35,513,895.563c-40.4,6.81-75.579,27.712-105.33,45.4-27.4,16.287-51.059,30.353-72.084,30.633-33.979.441-68.394-2.9-90.656-30.356-27.865-34.373-30.527-101.587-7.918-199.8,3.736-1.566,6.5-10.639,12.23-30.518,19.079-66.127,63.712-221,235.2-177.482,214.728,54.494,285.356-33.081,374.766-143.96,7.333-9.093,14.8-18.351,22.484-27.707,100.433-122.256,164.57-177.779,317.9-158.967,60.459,7.421,128.906,42.944,187.793,97.461,59.341,54.941,97.751,119.1,105.376,176.035,6.391,47.7-6.076,112.73-101.739,151.629C1328.935,653.174,1272.918,668.538,1222.977,679.318Zm169.067-48.895c97.262-39.548,109.911-105.836,103.4-154.48-7.706-57.541-46.419-122.29-106.216-177.649-59.295-54.9-128.295-90.674-189.3-98.164-154.7-18.982-219.252,36.9-320.324,159.935-7.695,9.361-15.163,18.628-22.5,27.727C768.3,497.909,698.161,584.9,485.106,530.829,311.119,486.682,265.939,643.3,246.643,710.176c-4.069,14.1-8.277,28.681-10.837,28.817l-1.016.052-.232.992c-23.327,100.892-20.622,167.258,8.265,202.9,21.789,26.874,54.552,31.394,87.386,31.394,1.8,0,3.611-.012,5.415-.038,21.752-.291,45.7-14.528,73.433-31.014,31.566-18.763,66.341-39.412,106.61-45.513-40.778,7.133-75.817,29.515-107.684,49.863-27.706,17.694-51.635,32.974-73.442,34.052-60.978,3-83.642-13.219-97.771-29.5-30.75-35.425-36.078-105.306-15.841-207.723,2.98-1.571,5.109-9.33,9.878-28C242.171,672.006,265.814,579.5,334.874,538.9c37.593-22.1,84.131-26.176,138.327-12.129,47.057,12.2,87.369,17.705,122.584,17.7,130.3-.009,190.634-75.376,262.9-165.684,7.576-9.465,15.288-19.1,23.232-28.849,54.163-66.415,94.669-110.109,141.431-136.913,51.091-29.287,108.457-37.362,186.015-26.17,59.987,8.655,130.956,46.972,189.84,102.495,60.68,57.215,99.854,123.547,107.482,181.985,9.09,69.65-26.382,123.527-102.587,155.812a875.869,875.869,0,0,1-164.686,51.265A990.728,990.728,0,0,0,1392.044,630.423Zm13.113-.79c97.835-41.448,110.67-109.146,104.215-158.638-7.709-59.043-47.184-125.963-108.307-183.6-59.278-55.892-130.794-94.474-191.314-103.2-78.192-11.282-136.1-3.108-187.755,26.5-47.126,27.012-87.815,70.89-142.181,137.554q-11.92,14.622-23.249,28.866C765.38,491.062,693.354,581.07,473.885,524.169,418.953,509.926,371.726,514.1,333.5,536.58,263.465,577.754,239.637,670.988,228.186,715.8c-3.209,12.55-6.525,25.524-8.529,26.274l-1.025.058-.206,1.029c-20.588,103.694-15.1,174.61,16.293,210.785,13.379,15.416,34.112,30.8,85.643,30.8q6.79,0,14.312-.369c22.531-1.116,46.741-16.575,74.771-34.476,32.707-20.885,68.791-43.913,110.873-50.123-42.542,7.286-78.855,32-111.826,54.462C380.4,973.373,356.137,989.9,333.5,991.764c-36.081,2.969-76.758,1.894-104.884-28.563-33.683-36.471-41.679-109.051-23.77-215.738,2.32-1.542,3.878-8.055,7.674-25.04,10.562-47.231,32.536-145.5,105.153-189.438,38.945-23.564,87.488-27.894,144.3-12.873,48.942,12.942,90.789,18.772,127.284,18.769,133.227,0,194.978-77.712,268.909-170.767,7.819-9.84,15.78-19.862,23.987-29.993,48.571-59.978,93.068-112.1,145.769-142.429,52.657-30.3,111.625-37.945,191.221-24.775,60.439,10,132.19,50.2,191.934,107.526,62.017,59.5,101.95,128.019,109.567,187.977,9,70.89-26.776,126.2-103.468,159.964a787.123,787.123,0,0,1-162.386,51.449A872.633,872.633,0,0,0,1405.157,629.633Zm13.11-.787c98.414-43.319,111.455-112.421,105.06-162.764-7.692-60.557-47.92-129.657-110.375-189.579-60.123-57.688-132.41-98.153-193.368-108.244-80.245-13.285-139.78-5.541-193.026,25.1-53.1,30.564-97.774,82.878-146.522,143.069-8.207,10.137-16.174,20.165-24,30.013C762.469,484.214,688.57,577.25,462.66,517.506c-57.538-15.211-106.8-10.783-146.392,13.176-73.6,44.53-95.747,143.565-106.39,191.154-2.531,11.322-4.923,22.024-6.467,23.322l-.933.049-.182,1.064c-18.213,107.958-10.029,181.556,24.323,218.757,22.655,24.527,52.994,30.538,82.738,30.538,8.225,0,16.409-.461,24.364-1.116,23.353-1.92,47.888-18.636,76.3-37.991,33.42-22.765,70.288-47.865,113.491-54.456-43.619,7.7-80.7,34.465-114.354,58.775-28.543,20.62-53.19,38.429-76.7,41.07-35.69,4.008-80.665,4.5-112-27.557-36.657-37.509-47.326-112.817-31.711-223.851,1.717-1.5,2.818-6.9,5.636-21.577,8.856-46.13,29.594-154.149,105.99-201.72,40.3-25.092,90.887-29.7,150.351-13.692,50.83,13.686,94.195,19.842,131.961,19.839,136.157-.009,199.342-80.047,274.936-175.844,8-10.14,16.278-20.626,24.743-31.146,105.437-131.038,173.5-203.6,346.545-171.324,60.929,11.368,133.479,53.444,194.074,112.557,63.358,61.805,104.05,132.52,111.637,194.005,8.9,72.124-27.2,128.861-104.38,164.076a719.952,719.952,0,0,1-160.518,51.8A786.479,786.479,0,0,0,1418.267,628.846Zm13.107-.787c78.363-35.751,115-93.448,105.938-166.852-7.66-62.082-48.638-133.376-112.427-195.6-60.964-59.47-134.038-101.817-195.47-113.281-82.266-15.35-143.415-8.058-198.262,23.644-54.1,31.276-100.349,85.822-150.9,148.642-8.474,10.529-16.75,21.021-24.758,31.167C759.553,477.37,683.768,573.406,451.441,510.849c-60.219-16.218-111.527-11.507-152.5,14.009-77.4,48.191-98.293,157.023-107.212,203.493-1.8,9.4-3.51,18.293-4.622,19.891l-.788.04-.153,1.1c-15.876,112.269-4.99,188.57,32.357,226.783,23.53,24.08,54.361,30.287,83.43,30.287a276.811,276.811,0,0,0,30.81-1.929c24.216-2.722,49.133-20.724,77.983-41.566C444.134,938.839,480.928,912.3,524,904.683c-43.483,8.719-80.462,36.907-114.076,62.555-27.822,21.229-54.1,41.275-78.5,44.694-37.364,5.23-84.65,6.948-119.092-26.5-39.669-38.539-53.017-116.59-39.678-232,1.115-1.289,1.836-5.368,3.788-17.59,7.115-44.53,26.015-162.813,106.5-214.432,41.685-26.741,94.357-31.66,156.557-14.626C492.152,521.2,537,527.68,576,527.68c138.778-.009,203.3-82.059,280.476-180.209,8.445-10.743,17.176-21.851,26.127-33,108.875-136.637,179.085-212.157,356.093-175.444,61.452,12.749,134.825,56.708,196.264,117.594,64.7,64.123,106.141,137.046,113.685,200.074,8.778,73.349-27.642,131.493-105.318,168.144a668.089,668.089,0,0,1-159.111,52.314A721.757,721.757,0,0,0,1431.374,628.059Zm13.108-.784c78.828-37.2,115.778-96.29,106.85-170.9-7.617-63.619-49.336-137.121-114.467-201.663-61.8-61.24-135.671-105.473-197.622-118.323-84.3-17.486-147.087-10.679-203.564,22.064-55.38,32.112-103.051,88.9-155.2,154.339-8.954,11.155-17.691,22.269-26.139,33.015C756.107,470.75,678.515,569.439,440.219,504.189c-62.973-17.25-116.384-12.216-158.74,14.955-81.5,52.274-100.54,171.422-107.7,216.277-1.213,7.594-2.273,14.225-3,15.912l-.6.032-.13,1.13c-13.565,116.625.032,195.648,40.408,234.865,24.381,23.688,54.885,30.183,83.937,30.183A270.942,270.942,0,0,0,331.8,1014.6c25.105-3.517,51.656-23.777,79.767-45.225,35.105-26.784,73.92-56.371,119.818-63.227-46.286,8.052-85.252,39.239-120.554,67.52-28.337,22.7-55.1,44.149-80.439,48.347-35.948,5.959-88.148,9.814-126.169-25.392-42.724-39.556-58.762-120.382-47.665-240.244.689-1.179,1.086-4.351,2.16-12.908,5.326-42.373,21.535-171.318,106.561-227.622,43.086-28.531,97.919-33.822,162.983-15.727C482.8,515.291,529.16,522.1,569.432,522.093c141.842-.011,207.836-84.49,286.7-185.5,8.627-11.051,17.55-22.477,26.692-33.949,112.807-142.2,185.409-220.66,365.644-179.564,62.023,14.142,136.227,59.989,198.5,122.636,66.055,66.447,108.229,141.59,115.715,206.163,8.642,74.572-28.108,134.111-106.285,172.18a626.53,626.53,0,0,1-158.21,52.971A670.691,670.691,0,0,0,1444.482,627.275Zm13.107-.79c79.3-38.617,116.572-99.1,107.785-174.91-7.553-65.158-50.008-140.884-116.479-207.752-62.62-63-137.319-109.115-199.823-123.366-181.833-41.462-254.89,37.46-368.369,180.518-9.148,11.478-18.077,22.909-26.707,33.966C802.564,400.811,758.145,457.7,695.23,490.589,626.236,526.651,541.642,528.854,429,497.526c-65.855-18.311-121.437-12.9-165.21,16.079C177.727,570.593,161.4,700.463,156.039,743.139c-.649,5.158-2.123,12.464-2.123,12.464-11.274,121.025,5.033,202.781,48.47,243,25.392,23.512,56.81,30.016,85.733,30.016a262.087,262.087,0,0,0,42.724-3.941c26.032-4.313,53.069-25.974,81.69-48.9,35.69-28.595,75.157-60.185,122-67.381-47.213,8.43-86.819,41.589-122.7,71.654-28.887,24.21-56.17,47.073-82.466,52.057-37.422,7.1-91.962,12.3-133.227-24.241-45.823-40.577-64.554-124.239-55.675-248.649a54.986,54.986,0,0,0,.825-7.26c12.832-148.311,64.74-213.221,106.025-241.559,44.523-30.564,101.632-36.261,169.719-16.933,56.292,15.791,104.1,22.875,145.575,22.872,145.277-.009,212.721-86.914,293.325-190.8,8.763-11.3,17.828-22.978,27.112-34.707,116.783-147.832,191.781-229.26,375.2-183.683,62.629,15.557,137.69,63.293,200.787,127.685,67.4,68.788,110.308,146.163,117.719,212.287,8.494,75.786-28.6,136.709-107.273,176.182-57.164,28.675-109.558,44.619-157.432,53.692A630.51,630.51,0,0,0,1457.589,626.485Zm24.966-3.967c-57,29.414-109.321,45.594-157.234,54.552,44.587-9.46,92.973-25.08,145.375-51.371,79.776-40.021,117.377-101.878,108.75-178.883-7.481-66.712-50.659-144.663-118.474-213.87C1397.537,168.207,1322,120.2,1258.9,104.522c-185.039-45.968-260.508,35.927-377.978,184.635-9.3,11.737-18.363,23.422-27.129,34.724C801.119,391.776,755.626,450.41,691.124,484.2c-70.7,37.034-157.559,39.156-273.349,6.666-68.907-19.55-126.774-13.727-172,17.307C170.11,560.112,145.729,669.282,138.6,751.722c-.211,2.448-.718,5.8-.718,5.8l-.087,1.188c-9,125.462,10.029,209.969,56.55,251.169,26.316,23.3,57.784,30.01,86.963,30.01,17.561,0,34.3-2.43,48.572-5.135,26.991-5.118,54.537-28.2,83.7-52.646,34.532-28.935,72.541-60.779,117.331-70.25-44.83,10.6-82.79,43.749-118,74.508-29.458,25.74-57.285,50.054-84.563,55.823-60.952,12.887-106.842,5.354-140.273-23.053-48.962-41.6-70.4-128.129-63.7-257.186v-.061c.012-1.793,2.273-180.166,101.907-254.392,28.977-21.589,63.425-32.4,102.955-32.4q35.581,0,76.57,11.7c58.261,16.664,107.658,24.129,150.452,24.126,148.043-.006,216.92-89.339,299.2-196.072,8.995-11.671,18.3-23.737,27.828-35.846C943.01,203.084,993.3,142.308,1051.184,108.247c60.761-35.765,127.637-41.027,216.843-17.054,63.274,17,139.2,66.626,203.115,132.75,68.751,71.132,112.382,150.747,119.706,218.434C1599.179,519.368,1561.731,581.661,1482.555,622.518Z" transform="translate(0 0)" fill="#111"/>
  </g>
</svg>
