<svg xmlns="http://www.w3.org/2000/svg" width="1045.745" height="1287.867" viewBox="0 0 1045.745 1287.867">
  <g id="Line_Illustration" data-name="Line Illustration" opacity="0.1" style="mix-blend-mode: multiply;isolation: isolate">
    <g id="Group_64" data-name="Group 64" transform="translate(0 109.625)">
      <path id="Path_236" data-name="Path 236" d="M831.754,1178.241c.063-.325,1.713-8.676,4.988-22.473,3.286-13.842,8.215-33.2,14.833-55.487,6.653-22.4,15.021-47.8,25.144-73.523,10.184-25.88,22.145-52.1,35.9-75.907a251.617,251.617,0,0,0,15.536-31.3,147.48,147.48,0,0,0,8.507-28.252,96.42,96.42,0,0,0,1.489-25.618,80.354,80.354,0,0,0-5.5-23.417,89.786,89.786,0,0,0-17.912-27.68q-12.09-13.045-30.513-24.481a275.435,275.435,0,0,0-43.445-21.388A513.432,513.432,0,0,0,784.1,750.3q-14-3.747-28.022-7.085-14.014-3.356-27.977-6.4-13.959-3.063-27.8-5.915-13.839-2.869-27.5-5.627c-15.481-3.147-30.757-6.253-45.587-9.469s-29.235-6.547-42.941-10.138-26.747-7.451-38.848-11.725A252.245,252.245,0,0,1,512.11,679.7a136.892,136.892,0,0,1-28.219-19.217,87.934,87.934,0,0,1-18.555-23.137,81.836,81.836,0,0,1-9.085-27.568,115.645,115.645,0,0,1,.212-32.534q.862-6.309,1.852-13t2.077-13.723q1.087-7.032,2.253-14.363t2.379-14.92c2.769-17.324,5.718-35.779,8.526-54.922,2.82-19.223,5.5-39.144,7.7-59.309,2.216-20.253,3.958-40.754,4.893-61.035.938-20.37,1.062-40.516.034-59.96q-1.82-34.434-8.237-62.416-6.459-28.1-17.639-49.721a137.3,137.3,0,0,0-27.275-36.919,122.711,122.711,0,0,0-37.07-24.121,483.329,483.329,0,0,0-51.977-18.218c-18.317-5.368-37.444-10.084-56.906-14.33-19.479-4.25-39.29-8.028-58.957-11.521s-39.219-6.7-58.138-9.808c-22.546-3.7-44.34-7.28-64.351-11.051-20.027-3.774-38.269-7.74-53.7-12.217s-28.071-9.475-36.852-15.3S1.349,7.888,1.3.061L.018,0c.05,8.135,4.788,15,13.346,20.966S34.272,31.989,49.585,36.525s33.546,8.537,53.883,12.38c20.321,3.84,42.728,7.519,66.359,11.4,18.9,3.1,38.416,6.306,58.077,9.8s39.434,7.261,58.888,11.5c19.437,4.239,38.537,8.946,56.824,14.3a482.048,482.048,0,0,1,51.878,18.18,121.366,121.366,0,0,1,36.734,23.922,136.226,136.226,0,0,1,27.035,36.656q11.1,21.484,17.492,49.394,6.384,27.814,8.181,62.028c1.029,19.408.907,39.523-.028,59.865-.931,20.254-2.669,40.73-4.881,60.961-2.2,20.143-4.875,40.045-7.69,59.251-2.8,19.125-5.748,37.566-8.513,54.875q-1.211,7.583-2.378,14.925-1.161,7.327-2.252,14.37t-2.076,13.732q-.985,6.689-1.85,13.01a117.156,117.156,0,0,0-.212,32.932,82.843,82.843,0,0,0,9.19,27.9,88.927,88.927,0,0,0,18.766,23.408,138.348,138.348,0,0,0,28.539,19.436,253.239,253.239,0,0,0,33.408,14.287c12.129,4.286,25.184,8.152,38.925,11.753s28.144,6.932,43.005,10.154,30.146,6.329,45.646,9.479q13.64,2.773,27.48,5.624,13.824,2.866,27.783,5.911,13.943,3.059,27.956,6.4,14,3.351,28,7.078a513.181,513.181,0,0,1,56.43,18.314,274.823,274.823,0,0,1,43.236,21.244q18.354,11.365,30.349,24.291a88.826,88.826,0,0,1,17.792,27.446,79.248,79.248,0,0,1,5.434,23.165,95.488,95.488,0,0,1-1.5,25.374,146.582,146.582,0,0,1-8.453,28.013,250.675,250.675,0,0,1-15.421,31.065c-13.782,23.851-25.761,50.115-35.959,76.038-10.137,25.768-18.515,51.2-25.176,73.638-6.625,22.32-11.56,41.706-14.849,55.568-3.278,13.816-4.93,22.179-4.993,22.5Z" transform="translate(0 0)" fill="#48b774"/>
    </g>
    <g id="Group_65" data-name="Group 65" transform="translate(17.95 91.526)">
      <path id="Path_237" data-name="Path 237" d="M832.3,1182.384c.047-.295,1.281-7.887,3.844-20.588,2.571-12.738,6.484-30.647,11.887-51.534,5.43-20.99,12.373-45.018,20.975-69.842A628.9,628.9,0,0,1,900.154,965.4c4.671-9.328,9.381-19.347,13.541-29.773a215.564,215.564,0,0,0,10.264-32.3,128.868,128.868,0,0,0,3.391-33.129,88.029,88.029,0,0,0-7.138-32.208,93.186,93.186,0,0,0-17.4-26.087,140.227,140.227,0,0,0-28.082-22.792,244.848,244.848,0,0,0-39.056-19.594,435.352,435.352,0,0,0-50.3-16.5q-14.045-3.76-28.106-7.11-14.057-3.368-28.062-6.424-14-3.074-27.887-5.935-13.881-2.88-27.583-5.647c-15.528-3.158-30.851-6.275-45.727-9.5s-29.324-6.57-43.071-10.173-26.826-7.478-38.961-11.767a252.526,252.526,0,0,1-33.4-14.292,136.953,136.953,0,0,1-28.277-19.284,87.984,87.984,0,0,1-18.572-23.218A81.985,81.985,0,0,1,456.674,612a116.059,116.059,0,0,1,.277-32.647q.616-4.444,1.277-9.045t1.359-9.362q.7-4.762,1.429-9.675t1.487-9.984c5.122-34.361,10.946-73.427,14.834-113.694,3.922-40.622,5.877-82.486,3.146-121.906-2.754-39.755-10.271-76.979-25.311-107.806-15.139-31.029-37.859-55.491-70.872-69.424-15.2-6.417-31.451-12.28-48.345-17.7-16.913-5.424-34.471-10.4-52.273-15.038C265.861,91.074,247.8,86.772,229.9,82.7c-17.919-4.075-35.677-7.918-52.876-11.64-23.473-5.081-46.169-9.993-67.013-15.017-20.866-5.029-39.876-10.169-55.955-15.7-16.1-5.539-29.261-11.474-38.41-18.086S1.34,8.332,1.306.061L.019,0C.055,8.566,4.983,16.043,13.9,22.774s21.777,12.7,37.729,18.284c15.934,5.574,34.938,10.749,56.114,15.863C128.892,62.029,152.212,67.076,176.8,72.4c17.184,3.718,34.927,7.558,52.829,11.628,17.887,4.067,35.93,8.363,53.73,13,17.783,4.631,35.319,9.6,52.209,15.015,16.871,5.409,33.094,11.262,48.269,17.666,32.776,13.831,55.326,38.174,70.345,69.076,14.922,30.7,22.369,67.794,25.086,107.418,2.694,39.291.734,81.028-3.18,121.53-3.88,40.15-9.682,79.106-14.786,113.372q-.755,5.067-1.486,9.986t-1.428,9.678q-.7,4.76-1.359,9.366t-1.276,9.05a117.57,117.57,0,0,0-.28,33.047,82.991,82.991,0,0,0,9.165,28,88.981,88.981,0,0,0,18.784,23.491,138.435,138.435,0,0,0,28.6,19.5,253.576,253.576,0,0,0,33.5,14.337c12.163,4.3,25.256,8.181,39.037,11.794s28.229,6.956,43.135,10.189,30.239,6.351,45.787,9.512q13.682,2.782,27.565,5.643,13.866,2.876,27.869,5.931,13.985,3.07,28.041,6.418,14.038,3.363,28.079,7.1a434.88,434.88,0,0,1,50.05,16.407,244.1,244.1,0,0,1,38.852,19.456,139.347,139.347,0,0,1,27.92,22.612,92.2,92.2,0,0,1,17.274,25.866A86.974,86.974,0,0,1,926.18,870.4a127.974,127.974,0,0,1-3.393,32.873,214.826,214.826,0,0,1-10.211,32.085c-4.137,10.361-8.819,20.32-13.461,29.594a629.941,629.941,0,0,0-31.185,75.147c-8.613,24.863-15.563,48.927-21,69.948-5.409,20.918-9.325,38.852-11.9,51.608-2.565,12.718-3.8,20.321-3.846,20.616Z" transform="translate(0)" fill="#48b774"/>
    </g>
    <g id="Group_66" data-name="Group 66" transform="translate(35.966 73.359)">
      <path id="Path_238" data-name="Path 238" d="M832.79,1186.544c.03-.265.837-7.1,2.671-18.7,1.839-11.634,4.715-28.091,8.886-47.577,4.19-19.575,9.692-42.236,16.768-66.151a682.89,682.89,0,0,1,26.392-74.109c5.621-13.155,11.01-26.228,15.62-39.105a275.926,275.926,0,0,0,10.968-38.04,139.627,139.627,0,0,0,2.948-36.258,90.742,90.742,0,0,0-8.486-33.738,93.13,93.13,0,0,0-16.629-23.954,133.178,133.178,0,0,0-25.7-20.777A220.921,220.921,0,0,0,831.2,770.443a378.557,378.557,0,0,0-44.586-14.7q-14.086-3.774-28.187-7.135-14.1-3.38-28.145-6.446-14.043-3.085-27.97-5.957-13.923-2.89-27.665-5.668c-15.575-3.169-30.945-6.3-45.865-9.535s-29.411-6.592-43.2-10.208-26.9-7.5-39.07-11.807a252.8,252.8,0,0,1-33.485-14.342,137.044,137.044,0,0,1-28.337-19.351,88.029,88.029,0,0,1-18.59-23.3,82.125,82.125,0,0,1-9.036-27.762,116.475,116.475,0,0,1,.346-32.763q.276-1.962.558-3.953t.568-4.01q.286-2.019.578-4.065t.587-4.119c2.46-17.274,5.08-35.676,7.53-54.811,2.46-19.216,4.747-39.177,6.526-59.481,1.787-20.393,3.061-41.135,3.48-61.81a608.538,608.538,0,0,0-1.672-61.673q-1.352-16.548-3.764-31.8-2.415-15.279-5.884-29.2a269.419,269.419,0,0,0-7.993-26.44,212.3,212.3,0,0,0-10.089-23.536A173.428,173.428,0,0,0,433.4,192.8,150.813,150.813,0,0,0,415.99,172.73a140.968,140.968,0,0,0-20.324-16.255,143.36,143.36,0,0,0-23.158-12.339c-13.88-5.852-28.571-11.4-43.747-16.685-15.193-5.292-30.871-10.321-46.709-15.131-15.854-4.815-31.868-9.41-47.716-13.828s-31.558-8.667-46.76-12.779c-24.863-6.724-48.912-13.228-71-19.75-22.122-6.531-42.281-13.08-59.334-19.888C40.162,39.258,26.2,32.18,16.5,24.6,6.777,17.008,1.331,8.91,1.311.061L.02,0c.021,9.13,5.5,17.446,15.27,25.209,9.756,7.751,23.8,14.953,40.966,21.865,17.145,6.9,37.413,13.514,59.654,20.094,22.21,6.571,46.388,13.109,71.385,19.869,15.19,4.108,30.873,8.348,46.722,12.766s31.835,9,47.675,13.813c15.824,4.8,31.486,9.827,46.661,15.112,15.158,5.279,29.83,10.818,43.689,16.66a141.25,141.25,0,0,1,40.7,25.875,153.228,153.228,0,0,1,30.483,39.028q12.693,22.769,20.441,52.174,7.733,29.3,10.653,65.2A607.16,607.16,0,0,1,476,389.234c-.416,20.646-1.687,41.362-3.47,61.732-1.775,20.281-4.058,40.222-6.514,59.42-2.445,19.117-5.061,37.5-7.517,54.761q-.3,2.073-.587,4.121t-.578,4.066q-.286,2.019-.568,4.011t-.556,3.955a117.982,117.982,0,0,0-.35,33.164,83.132,83.132,0,0,0,9.14,28.1,89.031,89.031,0,0,0,18.8,23.574,138.526,138.526,0,0,0,28.658,19.573,253.8,253.8,0,0,0,33.581,14.387c12.2,4.316,25.326,8.209,39.147,11.835s28.312,6.98,43.263,10.225,30.329,6.373,45.923,9.546q13.724,2.792,27.649,5.663,13.908,2.886,27.952,5.952,14.027,3.081,28.124,6.44,14.079,3.374,28.16,7.127A377.847,377.847,0,0,1,830.6,771.493a220.108,220.108,0,0,1,34.829,17.561,132.27,132.27,0,0,1,25.543,20.607,92.109,92.109,0,0,1,16.5,23.743,89.691,89.691,0,0,1,8.39,33.45,138.9,138.9,0,0,1-2.963,36.018,275.479,275.479,0,0,1-10.926,37.834c-4.589,12.813-9.952,25.825-15.546,38.92a683.805,683.805,0,0,0-26.425,74.226c-7.084,23.953-12.592,46.648-16.785,66.252-4.174,19.515-7.052,36-8.892,47.647-1.835,11.619-2.641,18.461-2.672,18.726Z" transform="translate(0)" fill="#48b774"/>
    </g>
    <g id="Group_67" data-name="Group 67" transform="translate(54.049 55.121)">
      <path id="Path_239" data-name="Path 239" d="M833.205,1190.723c.014-.235.38-6.3,1.468-16.805,1.091-10.527,2.909-25.529,5.829-43.61,2.932-18.158,6.98-39.448,12.524-62.451a719.124,719.124,0,0,1,21.657-73.171q.818-2.291,1.647-4.584T878,985.514q.837-2.295,1.677-4.59t1.684-4.591c4.919-13.409,9.784-26.673,13.981-39.7a298.452,298.452,0,0,0,9.988-38.354,140.154,140.154,0,0,0,2.217-36.4,87.954,87.954,0,0,0-25.077-55.564,125.555,125.555,0,0,0-23.482-18.793,201.157,201.157,0,0,0-31.5-15.915,335.436,335.436,0,0,0-39.715-13.128q-14.125-3.787-28.267-7.16-14.138-3.391-28.226-6.469-14.084-3.1-28.052-5.977-13.963-2.9-27.745-5.688c-15.621-3.181-31.036-6.319-46-9.569s-29.5-6.616-43.322-10.245-26.977-7.529-39.176-11.848a253.128,253.128,0,0,1-33.568-14.391,137.115,137.115,0,0,1-28.392-19.419,88.076,88.076,0,0,1-18.6-23.382,82.277,82.277,0,0,1-9.01-27.86,116.911,116.911,0,0,1,.414-32.879c2.591-18.173,5.2-37.121,7.521-56.544,2.336-19.506,4.393-39.494,5.878-59.657,1.491-20.251,2.4-40.679,2.441-60.968a581.956,581.956,0,0,0-2.838-60.382q-1.709-16.645-4.5-32.019-2.792-15.4-6.654-29.455a273.139,273.139,0,0,0-8.8-26.74,219.185,219.185,0,0,0-10.928-23.878,182.34,182.34,0,0,0-15.415-24.16,161.254,161.254,0,0,0-18.417-20.472,152.574,152.574,0,0,0-21.346-16.671,155.889,155.889,0,0,0-24.193-12.764c-12.015-5.06-24.456-9.969-37.191-14.758s-25.79-9.465-38.995-14.046-26.6-9.077-40.007-13.507-26.876-8.806-40.228-13.144c-27.048-8.788-53.221-17.292-77.272-25.7C102.793,70.306,80.831,61.975,62.25,53.545,43.636,45.1,28.415,36.556,17.842,27.717,7.249,18.862,1.32,9.71,1.317.064L.021,0c0,9.915,5.963,19.278,16.606,28.3,10.624,9,25.916,17.671,44.617,26.21,18.667,8.523,40.731,16.92,64.936,25.4,24.162,8.462,50.456,17,77.629,25.832,13.344,4.336,26.79,8.7,40.2,13.135s26.773,8.915,39.981,13.5,26.227,9.244,38.963,14.033,25.152,9.688,37.153,14.742A153.886,153.886,0,0,1,402.8,187.829a162.765,162.765,0,0,1,32.342,39.761q13.588,23.115,22.173,52.83,8.567,29.6,12.268,65.776a580.786,580.786,0,0,1,2.837,60.278c-.036,20.258-.947,40.658-2.434,60.883-1.481,20.137-3.533,40.1-5.864,59.587-2.321,19.4-4.919,38.331-7.505,56.485a118.449,118.449,0,0,0-.417,33.283,83.293,83.293,0,0,0,9.114,28.2,89.071,89.071,0,0,0,18.816,23.656,138.572,138.572,0,0,0,28.714,19.64,254.1,254.1,0,0,0,33.664,14.438c12.228,4.331,25.394,8.238,39.253,11.877s28.392,7.005,43.386,10.261,30.418,6.4,46.058,9.58q13.764,2.8,27.73,5.683,13.949,2.9,28.033,5.973,14.067,3.092,28.2,6.463,14.119,3.386,28.241,7.152a334.64,334.64,0,0,1,39.484,13.04,200.3,200.3,0,0,1,31.3,15.79,124.628,124.628,0,0,1,23.323,18.631,86.846,86.846,0,0,1,24.843,55.071,139.519,139.519,0,0,1-2.239,36.165,298.333,298.333,0,0,1-9.953,38.161c-4.179,12.962-9.021,26.169-13.916,39.52q-.842,2.3-1.683,4.593t-1.677,4.592q-.836,2.3-1.666,4.59t-1.648,4.586a720.211,720.211,0,0,0-21.681,73.289c-5.55,23.04-9.6,44.363-12.535,62.55-2.922,18.109-4.741,33.135-5.832,43.678-1.088,10.517-1.455,16.6-1.468,16.831Z" transform="translate(0 0)" fill="#48b774"/>
    </g>
    <g id="Group_68" data-name="Group 68" transform="translate(72.203 36.817)">
      <path id="Path_240" data-name="Path 240" d="M832.4,1194.977l1.142-.073c0-.205-.09-5.509.236-14.9.326-9.415,1.066-22.957,2.718-39.629,1.658-16.737,4.237-36.652,8.245-58.738a720.551,720.551,0,0,1,16.938-72.214q1.548-5.33,3.252-10.715t3.5-10.785q1.8-5.4,3.647-10.78t3.7-10.7c4.45-12.846,8.852-25.551,12.628-38.014a287.509,287.509,0,0,0,8.887-36.666,135.171,135.171,0,0,0,1.607-34.68,84.061,84.061,0,0,0-23.854-52.093,116.6,116.6,0,0,0-21.529-17.265,182.919,182.919,0,0,0-28.662-14.555,300.406,300.406,0,0,0-35.981-11.931q-14.162-3.8-28.343-7.185-14.177-3.4-28.3-6.492-14.123-3.106-28.131-6-14-2.91-27.825-5.707c-15.665-3.191-31.124-6.341-46.129-9.6s-29.579-6.639-43.442-10.28-27.05-7.556-39.28-11.89a253.376,253.376,0,0,1-33.648-14.442,137.174,137.174,0,0,1-28.445-19.488A88.128,88.128,0,0,1,466.7,646.691a82.443,82.443,0,0,1-8.984-27.959,117.372,117.372,0,0,1,.481-33c2.158-14.919,4.415-31.686,6.407-49.7,2-18.089,3.734-37.448,4.83-57.467,1.1-20.106,1.559-40.883,1-61.7a525.332,525.332,0,0,0-5.161-62.237,344.709,344.709,0,0,0-14.817-62.358,233.306,233.306,0,0,0-24.441-50.954A177.13,177.13,0,0,0,391.992,202.3a166.968,166.968,0,0,0-43.484-26.6c-9.125-3.838-18.483-7.664-28-11.474s-19.2-7.609-28.966-11.385-19.618-7.538-29.469-11.272-19.72-7.45-29.505-11.134c-29.506-11.108-58.669-22.088-85.828-32.983C119.519,86.539,94.313,75.7,72.8,64.911c-21.566-10.818-39.428-21.594-51.9-32.375C8.393,21.732,1.3,10.923,1.323.064L.022,0C0,11.117,7.122,22.129,19.673,33.1c12.522,10.942,30.453,21.839,52.1,32.751,21.6,10.887,46.9,21.788,74.228,32.761,27.262,10.948,56.537,21.968,86.154,33.117,9.782,3.682,19.639,7.392,29.494,11.127s19.692,7.488,29.456,11.265,19.432,7.568,28.95,11.378,18.863,7.631,27.98,11.467a165.634,165.634,0,0,1,43.182,26.42,175.973,175.973,0,0,1,33.794,38.77A232.125,232.125,0,0,1,449.3,292.814a343.293,343.293,0,0,1,14.736,62.015,524.174,524.174,0,0,1,5.155,62.116c.562,20.784.106,41.527-.991,61.6-1.093,19.988-2.822,39.319-4.817,57.382-1.987,17.993-4.239,34.738-6.392,49.637a118.9,118.9,0,0,0-.486,33.4,83.453,83.453,0,0,0,9.087,28.294A89.131,89.131,0,0,0,484.422,671a138.657,138.657,0,0,0,28.767,19.71A254.381,254.381,0,0,0,546.935,705.2c12.259,4.346,25.46,8.267,39.358,11.919s28.47,7.029,43.506,10.3,30.5,6.418,46.187,9.613q13.8,2.812,27.809,5.7,13.988,2.907,28.113,5.994,14.107,3.1,28.283,6.485,14.158,3.4,28.318,7.177a299.572,299.572,0,0,1,35.751,11.846,182.025,182.025,0,0,1,28.468,14.432,115.662,115.662,0,0,1,21.37,17.1,82.953,82.953,0,0,1,23.617,51.606,134.529,134.529,0,0,1-1.632,34.448,287.375,287.375,0,0,1-8.856,36.472c-3.759,12.4-8.139,25.05-12.567,37.838q-1.842,5.321-3.7,10.711t-3.65,10.792q-1.8,5.4-3.5,10.8t-3.256,10.735a721.748,721.748,0,0,0-16.956,72.339c-4.01,22.125-6.591,42.074-8.249,58.84-1.652,16.7-2.391,30.266-2.716,39.7C832.308,1189.459,832.395,1194.772,832.4,1194.977Z" transform="translate(0 0)" fill="#48b774"/>
    </g>
    <g id="Group_69" data-name="Group 69" transform="translate(90.424 18.446)">
      <path id="Path_241" data-name="Path 241" d="M832.632,1199.268l1.138-.183c-.022-.175-.571-4.708-1.025-12.988-.454-8.3-.812-20.372-.446-35.626.368-15.309,1.465-33.844,3.931-55.008a677.425,677.425,0,0,1,12.239-71.247c1.17-5.165,2.518-10.379,4-15.621s3.092-10.523,4.786-15.8,3.476-10.581,5.29-15.859,3.668-10.552,5.506-15.782c4.423-12.582,8.8-25.026,12.56-37.223a285.426,285.426,0,0,0,8.916-35.837,132.283,132.283,0,0,0,1.832-33.767,82.412,82.412,0,0,0-8.737-31,80.608,80.608,0,0,0-13.492-18.732,107.435,107.435,0,0,0-19.837-16.08,166.48,166.48,0,0,0-26.361-13.5A271.506,271.506,0,0,0,789.873,764q-14.2-3.813-28.417-7.209-14.214-3.415-28.38-6.514-14.161-3.117-28.206-6.018-14.041-2.92-27.9-5.726c-15.707-3.2-31.208-6.363-46.254-9.635s-29.658-6.662-43.558-10.317-27.12-7.583-39.38-11.932a253.525,253.525,0,0,1-33.725-14.494,137.244,137.244,0,0,1-28.5-19.557,88.179,88.179,0,0,1-18.629-23.547,82.607,82.607,0,0,1-8.955-28.058,117.841,117.841,0,0,1,.55-33.114q4.754-32.437,7.229-62.768,2.483-30.443,2.65-58.613.164-28.262-2.024-54.082A453.189,453.189,0,0,0,459.6,363.24a325.752,325.752,0,0,0-17.2-59.064,233.624,233.624,0,0,0-26.335-48.611A188.777,188.777,0,0,0,380.655,217.9a184.9,184.9,0,0,0-44.362-26.306q-5.5-2.313-11.081-4.645t-11.221-4.683q-5.643-2.351-11.34-4.718l-11.439-4.752c-33.617-13.965-68.458-28.438-101.835-43.11-33.479-14.716-65.487-29.633-93.3-44.433C68.174,70.4,44.493,55.675,27.784,41.387,11.024,27.057,1.281,13.173,1.328.062L.023,0C-.023,13.36,9.75,27.443,26.56,41.932,43.319,56.378,67.07,71.226,95.052,86.166c27.9,14.893,60,29.877,93.573,44.647,33.473,14.724,68.415,29.238,102.129,43.24l11.436,4.75q5.694,2.367,11.338,4.717t11.219,4.682q5.575,2.331,11.078,4.644A183.555,183.555,0,0,1,379.9,218.984a187.6,187.6,0,0,1,35.189,37.446,232.432,232.432,0,0,1,26.178,48.337,324.388,324.388,0,0,1,17.107,58.746,451.959,451.959,0,0,1,6.765,49.062q2.187,25.741,2.023,53.969-.161,28.093-2.64,58.5-2.465,30.256-7.21,62.662a119.37,119.37,0,0,0-.556,33.519,83.622,83.622,0,0,0,9.058,28.4,89.175,89.175,0,0,0,18.842,23.824,138.7,138.7,0,0,0,28.819,19.78A254.533,254.533,0,0,0,547.3,707.768c12.289,4.361,25.523,8.3,39.458,11.96s28.546,7.054,43.623,10.332,30.586,6.44,46.314,9.646q13.84,2.822,27.883,5.724,14.026,2.917,28.188,6.014,14.144,3.113,28.358,6.507,14.2,3.41,28.391,7.2a270.6,270.6,0,0,1,32.826,10.922,165.585,165.585,0,0,1,26.168,13.38,106.509,106.509,0,0,1,19.679,15.918A79.564,79.564,0,0,1,881.548,823.9a81.348,81.348,0,0,1,8.625,30.707,131.676,131.676,0,0,1-1.857,33.535,285.427,285.427,0,0,1-8.883,35.642c-3.746,12.136-8.1,24.522-12.5,37.046-1.84,5.238-3.694,10.514-5.513,15.806s-3.6,10.589-5.3,15.887-3.311,10.578-4.795,15.838-2.833,10.482-4.006,15.663a678.4,678.4,0,0,0-12.25,71.39c-2.466,21.208-3.562,39.782-3.927,55.124-.364,15.288,0,27.389.455,35.7C832.058,1194.549,832.61,1199.093,832.632,1199.268Z" transform="translate(0 0)" fill="#48b774"/>
    </g>
    <g id="Group_70" data-name="Group 70" transform="translate(108.715 0)">
      <path id="Path_242" data-name="Path 242" d="M832.766,1203.6l1.111-.331c-.041-.144-1.066-3.9-2.313-11.061a305.534,305.534,0,0,1-3.66-31.6,455.037,455.037,0,0,1-.414-51.262,596.954,596.954,0,0,1,7.558-70.269c1.078-6.512,2.521-13.11,4.235-19.762s3.7-13.379,5.868-20.116,4.509-13.516,6.931-20.272,4.931-13.52,7.419-20.227c4.636-12.5,9.221-24.854,13.2-36.957a288.763,288.763,0,0,0,9.558-35.517,130.87,130.87,0,0,0,2.5-33.334,78.536,78.536,0,0,0-8.023-30.39,75.18,75.18,0,0,0-12.456-17.668,98.806,98.806,0,0,0-18.37-15.128,151.963,151.963,0,0,0-24.449-12.659,247.205,247.205,0,0,0-30.684-10.268q-14.233-3.826-28.487-7.235-14.249-3.427-28.451-6.536-14.2-3.128-28.279-6.04-14.077-2.931-27.973-5.747c-15.749-3.214-31.29-6.385-46.374-9.669s-29.734-6.685-43.668-10.352-27.186-7.609-39.474-11.973a253.706,253.706,0,0,1-33.8-14.543,137.264,137.264,0,0,1-28.542-19.626,88.224,88.224,0,0,1-18.638-23.63,82.787,82.787,0,0,1-8.926-28.157,118.333,118.333,0,0,1,.617-33.231c2.087-14.056,4.03-29.815,5.474-46.75,1.449-17,2.4-35.187,2.479-54.032a547.932,547.932,0,0,0-2.724-58.21,417.738,417.738,0,0,0-10.2-59.138,309.744,309.744,0,0,0-19.528-55.732,236.486,236.486,0,0,0-28.216-46.252,203.458,203.458,0,0,0-36.827-36.337,206.818,206.818,0,0,0-45.3-26.042c-29.774-12.507-64.672-27.74-100.312-44.536-35.766-16.855-72.3-35.295-105.154-54.135-32.982-18.914-62.257-38.234-83.3-56.749C14.057,33.541,1.247,15.774,1.334.065L.025,0C-.061,15.927,12.784,33.879,33.96,52.621c21.094,18.67,50.446,38.117,83.514,57.134,32.938,18.943,69.568,37.462,105.425,54.378,35.731,16.857,70.718,32.133,100.568,44.67a205.454,205.454,0,0,1,45.026,25.885,202.261,202.261,0,0,1,36.611,36.13,235.261,235.261,0,0,1,28.058,46,308.314,308.314,0,0,1,19.427,55.435,416.472,416.472,0,0,1,10.18,58.982,546.633,546.633,0,0,1,2.722,58.071c-.082,18.8-1.025,36.952-2.469,53.913-1.439,16.9-3.376,32.626-5.456,46.653a119.86,119.86,0,0,0-.626,33.638,83.8,83.8,0,0,0,9.028,28.5,89.225,89.225,0,0,0,18.85,23.908,138.725,138.725,0,0,0,28.866,19.849,254.685,254.685,0,0,0,33.9,14.59c12.317,4.376,25.583,8.324,39.552,12s28.617,7.078,43.733,10.369,30.665,6.463,46.434,9.68q13.877,2.831,27.956,5.743,14.062,2.927,28.26,6.036,14.18,3.124,28.429,6.531,14.23,3.422,28.461,7.227a246.376,246.376,0,0,1,30.452,10.181,151.063,151.063,0,0,1,24.252,12.533,97.859,97.859,0,0,1,18.21,14.962,74.147,74.147,0,0,1,12.331,17.464,77.478,77.478,0,0,1,7.914,30.095,130.257,130.257,0,0,1-2.521,33.1,288.868,288.868,0,0,1-9.521,35.32c-3.957,12.042-8.517,24.342-13.129,36.78-2.492,6.72-5,13.487-7.431,20.268s-4.773,13.554-6.943,20.319-4.159,13.489-5.88,20.173-3.165,13.295-4.246,19.833a597.876,597.876,0,0,0-7.563,70.449,456.032,456.032,0,0,0,.43,51.4,306.316,306.316,0,0,0,3.682,31.694C831.7,1199.69,832.725,1203.459,832.766,1203.6Z" transform="translate(0 0)" fill="#48b774"/>
    </g>
  </g>
</svg>
