<svg xmlns="http://www.w3.org/2000/svg" width="60.606" height="60.606" viewBox="0 0 60.606 60.606">
  <g id="global-network" transform="translate(16 -13.123)">
    <g id="Icons" transform="translate(-18 11.113)">
      <path id="Path_91" data-name="Path 91" d="M56.8,58.3a.866.866,0,0,1-.594-1.5,23.925,23.925,0,0,0,1.681-1.764.868.868,0,0,1,1.312,1.139,25.9,25.9,0,0,1-1.8,1.89.86.86,0,0,1-.6.231Z" transform="translate(-7.238 -7.076)" fill="#fff"/>
      <path id="Path_92" data-name="Path 92" d="M37.49,58.5a.866.866,0,0,1-.866-.79,3.585,3.585,0,0,0-7.141,0,.866.866,0,0,1-1.015.779A25.861,25.861,0,0,1,7.634,37.653a.866.866,0,0,1,.779-1.015,3.559,3.559,0,0,0,3.259-3.571A3.6,3.6,0,0,0,8.41,29.5a.866.866,0,0,1-.779-1.015A25.859,25.859,0,0,1,28.468,7.644a.866.866,0,0,1,1.015.779,3.585,3.585,0,0,0,7.141,0,.866.866,0,0,1,1.015-.779A25.859,25.859,0,0,1,58.48,28.482.866.866,0,0,1,57.7,29.5a3.6,3.6,0,0,0-3.259,3.571A3.559,3.559,0,0,0,57.7,36.638a.866.866,0,0,1,.779,1.014A25.748,25.748,0,0,1,56.232,44.5a.868.868,0,0,1-1.558-.764,24.014,24.014,0,0,0,1.93-5.541,5.322,5.322,0,0,1,0-10.256A24.136,24.136,0,0,0,38.185,9.515a5.322,5.322,0,0,1-10.256,0A24.136,24.136,0,0,0,9.507,27.939a5.322,5.322,0,0,1,0,10.256A24.136,24.136,0,0,0,27.93,56.62a5.322,5.322,0,0,1,10.257,0,23.617,23.617,0,0,0,6.788-2.6.866.866,0,1,1,.859,1.5,25.346,25.346,0,0,1-8.192,2.967A.884.884,0,0,1,37.49,58.5Z" transform="translate(-0.754 -0.754)" fill="#fff"/>
      <path id="Path_93" data-name="Path 93" d="M36.175,12.66a5.281,5.281,0,0,1-5.3-4.842,3.76,3.76,0,0,1-.029-.483,5.325,5.325,0,0,1,10.649,0,3.905,3.905,0,0,1-.033.512,5.274,5.274,0,0,1-5.292,4.814Zm0-8.918a3.6,3.6,0,0,0-3.593,3.593,2.517,2.517,0,0,0,.019.3,3.585,3.585,0,0,0,7.145.029,2.7,2.7,0,0,0,.023-.332,3.6,3.6,0,0,0-3.593-3.594Z" transform="translate(-3.872 0)" fill="#fff"/>
      <path id="Path_94" data-name="Path 94" d="M36.175,70.359a5.33,5.33,0,0,1-5.325-5.325,3.905,3.905,0,0,1,.033-.512,5.316,5.316,0,0,1,10.587.029,3.738,3.738,0,0,1,.029.482A5.33,5.33,0,0,1,36.175,70.359Zm0-8.918A3.56,3.56,0,0,0,32.6,64.7a2.693,2.693,0,0,0-.023.331,3.593,3.593,0,0,0,7.186,0,2.513,2.513,0,0,0-.019-.3A3.569,3.569,0,0,0,36.175,61.442Z" transform="translate(-3.872 -7.743)" fill="#fff"/>
      <path id="Path_95" data-name="Path 95" d="M65.028,41.51a4.089,4.089,0,0,1-.519-.033A5.316,5.316,0,0,1,64.546,30.9a3.648,3.648,0,0,1,.482-.03,5.325,5.325,0,0,1,0,10.649Zm0-8.918a2.3,2.3,0,0,0-.293.019,3.613,3.613,0,0,0-3.3,3.574A3.559,3.559,0,0,0,64.7,39.756a2.582,2.582,0,0,0,.332.023,3.593,3.593,0,0,0,0-7.186Z" transform="translate(-7.747 -3.872)" fill="#fff"/>
      <path id="Path_96" data-name="Path 96" d="M7.325,41.509a5.325,5.325,0,1,1,0-10.649,4.087,4.087,0,0,1,.519.034A5.316,5.316,0,0,1,7.805,41.48a3.662,3.662,0,0,1-.481.029Zm0-8.918a3.593,3.593,0,0,0,0,7.186,2.3,2.3,0,0,0,.293-.018,3.585,3.585,0,0,0,.039-7.145,2.6,2.6,0,0,0-.332-.023Z" transform="translate(0 -3.872)" fill="#fff"/>
      <path id="Path_97" data-name="Path 97" d="M34.316,51.642A17.316,17.316,0,1,1,51.632,34.326,17.316,17.316,0,0,1,34.316,51.642Zm0-32.9A15.584,15.584,0,1,0,49.9,34.326,15.584,15.584,0,0,0,34.316,18.742Z" transform="translate(-2.013 -2.013)" fill="#fff"/>
      <path id="Path_98" data-name="Path 98" d="M35.679,51.642c-4.777,0-8.519-7.606-8.519-17.316S30.9,17.01,35.679,17.01,44.2,24.616,44.2,34.326,40.457,51.642,35.679,51.642Zm0-32.9c-3.68,0-6.788,7.137-6.788,15.584S32,49.91,35.679,49.91s6.788-7.137,6.788-15.584S39.359,18.742,35.679,18.742Z" transform="translate(-3.376 -2.013)" fill="#fff"/>
      <path id="Path_99" data-name="Path 99" d="M36.866,51.642A.866.866,0,0,1,36,50.776v-32.9a.866.866,0,1,1,1.732,0v32.9A.866.866,0,0,1,36.866,51.642Z" transform="translate(-4.563 -2.013)" fill="#fff"/>
      <path id="Path_100" data-name="Path 100" d="M50.766,37.742h-32.9a.866.866,0,1,1,0-1.732h32.9a.866.866,0,1,1,0,1.732Z" transform="translate(-2.013 -4.563)" fill="#fff"/>
      <path id="Path_101" data-name="Path 101" d="M49.123,28.759h-29a.866.866,0,0,1,0-1.732h29a.866.866,0,0,1,0,1.732Z" transform="translate(-2.316 -3.357)" fill="#fff"/>
      <path id="Path_102" data-name="Path 102" d="M49.123,46.725h-29a.866.866,0,1,1,0-1.732h29a.866.866,0,1,1,0,1.732Z" transform="translate(-2.316 -5.768)" fill="#fff"/>
    </g>
  </g>
</svg>
