<svg xmlns="http://www.w3.org/2000/svg" width="27.362" height="22.751" viewBox="0 0 27.362 22.751">
  <g id="writing" transform="translate(0 -0.5)">
    <path id="Path_226" data-name="Path 226" d="M23.633,29.951H13.319A5.818,5.818,0,0,1,7.5,24.133V13.819A5.818,5.818,0,0,1,13.319,8H23.633a5.818,5.818,0,0,1,5.818,5.818V24.133A5.818,5.818,0,0,1,23.633,29.951Zm0,0" transform="translate(-7.1 -7.1)" fill="#fcf2d0"/>
    <path id="Path_227" data-name="Path 227" d="M15.932,8H13.318A5.818,5.818,0,0,0,7.5,13.817V24.131a5.818,5.818,0,0,0,5.818,5.818H23.632c.067,0,.134,0,.2-.005-7.068-4.769-9.616-14.9-7.9-21.945Zm0,0" transform="translate(-7.099 -7.098)" fill="#f6e3a3"/>
    <path id="Path_228" data-name="Path 228" d="M161.542,12.1,149.251,24.389a8.633,8.633,0,0,1-2.36,1.674l-2.37,1.141a1.289,1.289,0,0,1-1.72-1.72l1.141-2.37a8.633,8.633,0,0,1,1.674-2.36L157.907,8.463a1.583,1.583,0,0,1,2.238,0l1.4,1.4a1.583,1.583,0,0,1,0,2.238Zm0,0" transform="translate(-135.044 -7.099)" fill="#f7ef87"/>
    <path id="Path_229" data-name="Path 229" d="M150.928,147.258l-5.313,5.312a8.633,8.633,0,0,0-1.674,2.36L142.8,157.3a1.289,1.289,0,0,0,1.72,1.72l2.37-1.141a8.633,8.633,0,0,0,2.36-1.674l2.928-2.928a5.769,5.769,0,0,1-1.25-6.02Zm0,0" transform="translate(-135.043 -138.915)" fill="#efd176"/>
    <path id="Path_230" data-name="Path 230" d="M280.45,164.125a.4.4,0,0,1-.284-.684l3.056-3.056a.4.4,0,1,1,.567.567l-3.056,3.056A.4.4,0,0,1,280.45,164.125Zm0,0" transform="translate(-265.083 -151.229)" fill="#6a96d7"/>
    <path id="Path_231" data-name="Path 231" d="M403.739,8.463l-1.359,1.359,3.635,3.635,1.359-1.359a1.583,1.583,0,0,0,0-2.238l-1.4-1.4A1.583,1.583,0,0,0,403.739,8.463Zm0,0" transform="translate(-380.875 -7.099)" fill="#eda1ab"/>
    <path id="Path_232" data-name="Path 232" d="M378.449,45.74,376.892,47.3l-3.635-3.635,1.556-1.556Zm0,0" transform="translate(-353.31 -39.382)" fill="#6a96d7"/>
    <path id="Path_233" data-name="Path 233" d="M145.442,250.066a8.634,8.634,0,0,0-1.5,2.178l-1.141,2.37a1.289,1.289,0,0,0,1.72,1.72l2.37-1.141a8.633,8.633,0,0,0,2.178-1.5Zm0,0" transform="translate(-135.044 -236.229)" fill="#e1b89a"/>
    <path id="Path_234" data-name="Path 234" d="M144.521,316.6l1.145-.551a10.323,10.323,0,0,0-2.314-2.314l-.551,1.145A1.289,1.289,0,0,0,144.521,316.6Zm0,0" transform="translate(-135.043 -296.498)" fill="#4e5660"/>
    <path id="Path_235" data-name="Path 235" d="M21.664,19.807a.4.4,0,0,0-.553.124,5.4,5.4,0,0,1-4.578,2.519H6.219A5.423,5.423,0,0,1,.8,17.033V7.427a.4.4,0,1,0-.8,0v9.605a6.226,6.226,0,0,0,6.219,6.219H16.533a6.194,6.194,0,0,0,5.255-2.892.4.4,0,0,0-.124-.553ZM26.781,2.478l-1.4-1.4a1.985,1.985,0,0,0-2.8,0l-1.45,1.45A6.181,6.181,0,0,0,16.533.5H6.219A6.221,6.221,0,0,0,.139,5.407a.4.4,0,0,0,.308.476.419.419,0,0,0,.085.009.4.4,0,0,0,.391-.317A5.419,5.419,0,0,1,6.219,1.3H16.533a5.385,5.385,0,0,1,4.029,1.8l-.9.9h0L16.3,7.361H5.123a.4.4,0,1,0,0,.8H15.5l-1.922,1.922H5.123a.4.4,0,1,0,0,.8h7.652l-2.486,2.486a9.011,9.011,0,0,0-1.752,2.469L7.4,18.212a1.694,1.694,0,0,0,1.515,2.426,1.705,1.705,0,0,0,.74-.171l1.15-.553h0l1.219-.587a9.017,9.017,0,0,0,2.469-1.752l7.459-7.46v6.918a5.452,5.452,0,0,1-.156,1.3.4.4,0,1,0,.778.191,6.239,6.239,0,0,0,.18-1.489V9.313L23.865,8.2h0l2.916-2.916a1.983,1.983,0,0,0,0-2.8ZM9.3,19.744a.888.888,0,0,1-1.185-1.185l.338-.7a9.9,9.9,0,0,1,.817.732,9.941,9.941,0,0,1,.732.817Zm2.37-1.141-.928.447a10.734,10.734,0,0,0-1.933-1.933l.447-.928a8.206,8.206,0,0,1,1.153-1.77l3.031,3.031a8.206,8.206,0,0,1-1.77,1.153Zm2.356-1.7-3.068-3.068,5.788-5.788,3.2-3.2,3.068,3.068Zm9.554-9.554L20.514,4.28l.99-.99,3.068,3.068Zm2.632-2.632L25.139,5.792,22.071,2.724l1.076-1.076a1.183,1.183,0,0,1,1.671,0l1.4,1.4a1.181,1.181,0,0,1,0,1.671ZM5.123,5.439H17.628a.4.4,0,1,0,0-.8H5.123a.4.4,0,0,0,0,.8Zm0,0" transform="translate(0)"/>
  </g>
</svg>
