<svg xmlns="http://www.w3.org/2000/svg" xmlns:xlink="http://www.w3.org/1999/xlink" width="250" height="250" viewBox="0 0 250 250">
  <defs>
    <linearGradient id="linear-gradient" x1="0.164" y1="0.029" x2="0.59" y2="1.045" gradientUnits="objectBoundingBox">
      <stop offset="0" stop-color="#fede48"/>
      <stop offset="1" stop-color="#ff9203"/>
    </linearGradient>
    <filter id="Ellipse_5" x="0" y="0" width="250" height="250" filterUnits="userSpaceOnUse">
      <feOffset dy="8" input="SourceAlpha"/>
      <feGaussianBlur stdDeviation="25" result="blur"/>
      <feFlood flood-color="#ffd13c" flood-opacity="0.2"/>
      <feComposite operator="in" in2="blur"/>
      <feComposite in="SourceGraphic"/>
    </filter>
    <clipPath id="clip-path">
      <circle id="Ellipse_6" data-name="Ellipse 6" cx="50" cy="50" r="50" transform="translate(0 0.001)" fill="#ffd300"/>
    </clipPath>
  </defs>
  <g id="paper-plane" transform="translate(75 67)">
    <g transform="matrix(1, 0, 0, 1, -75, -67)" filter="url(#Ellipse_5)">
      <circle id="Ellipse_5-2" data-name="Ellipse 5" cx="50" cy="50" r="50" transform="translate(75 67)" fill="url(#linear-gradient)"/>
    </g>
    <g id="Group_59" data-name="Group 59" transform="translate(0 0)">
      <g id="Mask_Group_2" data-name="Mask Group 2" clip-path="url(#clip-path)">
        <path id="Path_183" data-name="Path 183" d="M254.611,201.2l.633-.411-47.756-35.51V192.2l-11.775,14.812,3.58,27.717C222.275,234,249.554,223.376,254.611,201.2Z" transform="translate(-157.293 -132.805)" fill="#ec9200"/>
      </g>
    </g>
    <g id="Group_61" data-name="Group 61" transform="translate(9.338 30.464) rotate(-30)">
      <path id="Path_184" data-name="Path 184" d="M25.447,60.206H0L25.447,0Z" transform="translate(0 0)" fill="#fff"/>
      <g id="Group_60" data-name="Group 60" transform="translate(25.447 0)">
        <path id="Path_185" data-name="Path 185" d="M0,0V60.206H25.447Z" fill="#e3eaee"/>
      </g>
      <path id="Path_186" data-name="Path 186" d="M6.028,0,0,60.206,6.028,74.5l6.028-14.293Z" transform="translate(19.419 0)" fill="#a7eaf9"/>
    </g>
    <g id="Group_62" data-name="Group 62" transform="translate(31.375 17.741) rotate(-30)">
      <path id="Path_187" data-name="Path 187" d="M0,0V74.5L6.028,60.206Z" transform="translate(0 0)" fill="#2ad7f5"/>
    </g>
  </g>
</svg>
