<svg xmlns="http://www.w3.org/2000/svg" width="15.387" height="20" viewBox="0 0 15.387 20">
  <g id="Icon" transform="translate(-1113.37 -6270.453)">
    <path id="Icon_awesome-pinterest-p" data-name="Icon awesome-pinterest-p" d="M8.175.457C4.063.457,0,3.2,0,7.634c0,2.821,1.587,4.424,2.549,4.424.4,0,.625-1.106.625-1.419,0-.373-.95-1.166-.95-2.717A5.415,5.415,0,0,1,7.85,2.417c2.729,0,4.748,1.551,4.748,4.4,0,2.128-.854,6.119-3.618,6.119A1.779,1.779,0,0,1,7.129,11.18c0-1.515,1.058-2.981,1.058-4.544,0-2.653-3.763-2.172-3.763,1.034A4.708,4.708,0,0,0,4.809,9.7c-.553,2.38-1.683,5.927-1.683,8.379,0,.757.108,1.5.18,2.26.136.152.068.136.276.06,2.02-2.765,1.947-3.306,2.861-6.924A3.25,3.25,0,0,0,9.22,14.919c4.256,0,6.167-4.147,6.167-7.886C15.387,3.054,11.949.457,8.175.457Z" transform="translate(1113.37 6269.996)" fill="#cb2027"/>
  </g>
</svg>
