<svg xmlns="http://www.w3.org/2000/svg" width="23.493" height="28" viewBox="0 0 23.493 28">
  <g id="info-circular-interface-symbol" transform="translate(5.302 2)">
    <g id="briefing" transform="translate(-5.801 -2)">
      <path id="Path_189" data-name="Path 189" d="M25.588,47.629H24.6V69.705a.939.939,0,0,1-.939.939H8.012v1.03a.939.939,0,0,0,.939.939H25.588a.939.939,0,0,0,.939-.939V48.568a.939.939,0,0,0-.939-.939Zm0,0" transform="translate(-7.102 -45.024)" fill="#e4e4e4"/>
      <path id="Path_191" data-name="Path 191" d="M116.125,7.512h-.338a1.331,1.331,0,0,1,.042.333V9.778a.552.552,0,0,1-.552.552H110.1v.44a.552.552,0,0,0,.552.552H116.9a.552.552,0,0,0,.552-.552V8.838a1.326,1.326,0,0,0-1.326-1.326Zm0,0" transform="translate(-103.609 -7.101)" fill="#dfdfdf"/>
      <path id="Path_192" data-name="Path 192" d="M241.868,82.128a4.807,4.807,0,1,1-4.807-4.807A4.807,4.807,0,0,1,241.868,82.128Zm0,0" transform="translate(-219.08 -73.092)" fill="#fff700"/>
      <path id="Path_193" data-name="Path 193" d="M261.035,83.473a4.809,4.809,0,0,1-5.293,7.742,4.808,4.808,0,1,0,5.293-7.742Zm0,0" transform="translate(-241.284 -78.907)" fill="#ebc400"/>
      <g id="Group_63" data-name="Group 63" transform="translate(2.715 6.071)">
        <path id="Path_196" data-name="Path 196" d="M111.319,189.368h-5.005a.411.411,0,0,1,0-.822h5.005a.411.411,0,0,1,0,.822Zm0,0" transform="translate(-102.355 -184.306)" fill="#0882bf"/>
        <path id="Path_197" data-name="Path 197" d="M44.194,111.833H41.43a.411.411,0,1,1,0-.822h2.764a.411.411,0,1,1,0,.822Zm0,0" transform="translate(-41.019 -111.012)" fill="#0882bf"/>
        <path id="Path_198" data-name="Path 198" d="M111.319,224.216h-5.005a.411.411,0,0,1,0-.821h5.005a.411.411,0,1,1,0,.821Zm0,0" transform="translate(-102.355 -217.249)" fill="#0882bf"/>
        <path id="Path_199" data-name="Path 199" d="M113.047,280.47h-6.735a.411.411,0,0,1,0-.822h6.735a.411.411,0,0,1,0,.822Zm0,0" transform="translate(-102.354 -270.426)" fill="#0882bf"/>
        <path id="Path_200" data-name="Path 200" d="M109.68,315.318h-3.367a.411.411,0,0,1,0-.822h3.367a.411.411,0,0,1,0,.822Zm0,0" transform="translate(-102.354 -303.368)" fill="#0882bf"/>
        <path id="Path_201" data-name="Path 201" d="M111.319,371.669h-5.005a.411.411,0,0,1,0-.822h5.005a.411.411,0,0,1,0,.822Zm0,0" transform="translate(-102.355 -356.638)" fill="#0882bf"/>
        <path id="Path_202" data-name="Path 202" d="M113.047,406.517h-6.735a.411.411,0,0,1,0-.821h6.735a.411.411,0,1,1,0,.821Zm0,0" transform="translate(-102.354 -389.58)" fill="#0882bf"/>
      </g>
      <path id="Path_206" data-name="Path 206" d="M111.319,189.368h-5.005a.411.411,0,0,1,0-.822h5.005a.411.411,0,0,1,0,.822Zm0,0" transform="translate(-99.64 -178.235)"/>
      <path id="Path_207" data-name="Path 207" d="M44.194,111.833H41.43a.411.411,0,1,1,0-.822h2.764a.411.411,0,1,1,0,.822Zm0,0" transform="translate(-38.305 -104.94)"/>
      <path id="Path_208" data-name="Path 208" d="M111.319,224.216h-5.005a.411.411,0,0,1,0-.821h5.005a.411.411,0,1,1,0,.821Zm0,0" transform="translate(-99.64 -211.177)"/>
      <path id="Path_209" data-name="Path 209" d="M113.047,280.47h-6.735a.411.411,0,0,1,0-.822h6.735a.411.411,0,0,1,0,.822Zm0,0" transform="translate(-99.639 -264.355)"/>
      <path id="Path_210" data-name="Path 210" d="M109.68,315.318h-3.367a.411.411,0,0,1,0-.822h3.367a.411.411,0,0,1,0,.822Zm0,0" transform="translate(-99.639 -297.297)"/>
      <path id="Path_211" data-name="Path 211" d="M111.319,371.669h-5.005a.411.411,0,0,1,0-.822h5.005a.411.411,0,0,1,0,.822Zm0,0" transform="translate(-99.64 -350.566)"/>
      <path id="Path_212" data-name="Path 212" d="M113.047,406.517h-6.735a.411.411,0,0,1,0-.821h6.735a.411.411,0,1,1,0,.821Zm0,0" transform="translate(-99.639 -383.509)"/>
      <path id="Path_213" data-name="Path 213" d="M35.792,185.354a1.659,1.659,0,1,1,1.659-1.659A1.661,1.661,0,0,1,35.792,185.354Zm0-2.5a.838.838,0,1,0,.838.838A.839.839,0,0,0,35.792,182.857Zm0,0" transform="translate(-31.795 -172.08)"/>
      <path id="Path_214" data-name="Path 214" d="M35.792,277.561a1.659,1.659,0,1,1,1.659-1.659A1.661,1.661,0,0,1,35.792,277.561Zm0-2.5a.838.838,0,1,0,.838.838A.839.839,0,0,0,35.792,275.064Zm0,0" transform="translate(-31.795 -259.244)"/>
      <path id="Path_215" data-name="Path 215" d="M35.792,368.76a1.659,1.659,0,1,1,1.659-1.659A1.661,1.661,0,0,1,35.792,368.76Zm0-2.5a.838.838,0,1,0,.838.838A.839.839,0,0,0,35.792,366.263Zm0,0" transform="translate(-31.795 -345.456)"/>
      <path id="Path_216" data-name="Path 216" d="M16.382,6.96A1.35,1.35,0,1,0,14.473,8.87l2.3,2.3a1.35,1.35,0,0,0,1.909,0L23.6,6.256a1.35,1.35,0,1,0-1.909-1.909l-.542.542a5.218,5.218,0,0,0-1.309-.73V3.544a1.352,1.352,0,0,0-1.35-1.35H14.253V1.726A1.727,1.727,0,0,0,12.528,0H7.807A1.727,1.727,0,0,0,6.082,1.726V3.675a.96.96,0,0,0,.959.959h6.254a.96.96,0,0,0,.959-.959V3.016h4.233a.529.529,0,0,1,.529.529v.378a5.217,5.217,0,1,0,0,10.229v12.5a.529.529,0,0,1-.529.528H1.849a.529.529,0,0,1-.528-.528V3.544a.529.529,0,0,1,.528-.529H4.579a.411.411,0,1,0,0-.822H1.849A1.352,1.352,0,0,0,.5,3.544V26.651A1.352,1.352,0,0,0,1.849,28H18.486a1.352,1.352,0,0,0,1.35-1.35V13.914a5.221,5.221,0,0,0,3.359-4.7.411.411,0,1,0-.821-.028,4.375,4.375,0,0,1-3.043,4.033.39.39,0,0,0-.069.022A4.4,4.4,0,1,1,17.98,4.64a4.389,4.389,0,0,1,2.578.835L17.728,8.306ZM13.432,3.675a.137.137,0,0,1-.137.137H7.04A.137.137,0,0,1,6.9,3.675V1.726a.9.9,0,0,1,.9-.9h4.721a.9.9,0,0,1,.9.9Zm8.836,1.253a.528.528,0,1,1,.747.747L18.1,10.589a.528.528,0,0,1-.747,0l-2.3-2.3a.528.528,0,1,1,.747-.747l1.636,1.636a.411.411,0,0,0,.581,0Zm0,0"/>
    </g>
  </g>
</svg>
