<svg id="shuttle" xmlns="http://www.w3.org/2000/svg" width="29.998" height="29.998" viewBox="0 0 29.998 29.998">
  <path id="Path_44" data-name="Path 44" d="M29.963,2.24a2.332,2.332,0,0,0-2.2-2.2A23.156,23.156,0,0,0,16.15,2.359,22.79,22.79,0,0,0,9.5,7.877l-.071.086L5.031,8.3a2.319,2.319,0,0,0-1.767,1.04l-3,4.533a1.606,1.606,0,0,0,1.094,2.473l3.7.573c-.013.072-.026.144-.038.216a2.33,2.33,0,0,0,.653,2.027l5.155,5.156a2.336,2.336,0,0,0,1.649.685,2.3,2.3,0,0,0,.378-.031l.216-.038.573,3.7a1.605,1.605,0,0,0,2.473,1.094l4.533-3a2.319,2.319,0,0,0,1.04-1.767l.339-4.393.086-.071a22.788,22.788,0,0,0,5.518-6.655A23.158,23.158,0,0,0,29.963,2.24ZM19.686,25.268,15.35,28.135l-.559-3.607a19.688,19.688,0,0,0,5.373-2.558l-.221,2.862a.573.573,0,0,1-.257.436Zm-7.611-2.19L6.92,17.922a.57.57,0,0,1-.163-.494,15.119,15.119,0,0,1,.686-2.611l7.736,7.736a15.183,15.183,0,0,1-2.609.688.57.57,0,0,1-.494-.163ZM5.167,10.055l2.862-.221A19.687,19.687,0,0,0,5.47,15.207l-3.607-.559L4.73,10.312A.573.573,0,0,1,5.167,10.055ZM21,19.153a20.15,20.15,0,0,1-4.068,2.661L8.184,13.071A20.5,20.5,0,0,1,10.845,9,20.974,20.974,0,0,1,16.958,3.92,21.378,21.378,0,0,1,27.663,1.79a.576.576,0,0,1,.545.545,21.376,21.376,0,0,1-2.13,10.705A20.974,20.974,0,0,1,21,19.153Z" transform="translate(0 0)" fill="#fff"/>
  <path id="Path_45" data-name="Path 45" d="M280.117,95.1a4.391,4.391,0,1,0-3.107-1.285A4.382,4.382,0,0,0,280.117,95.1Zm-1.864-6.256a2.636,2.636,0,1,1-.772,1.864A2.628,2.628,0,0,1,278.253,88.846Z" transform="translate(-259.568 -81.261)" fill="#fff"/>
  <path id="Path_46" data-name="Path 46" d="M1.18,347.592a.876.876,0,0,0,.621-.257l2.869-2.869a.879.879,0,0,0-1.243-1.243L.559,346.091a.879.879,0,0,0,.621,1.5Z" transform="translate(-0.284 -322.87)" fill="#fff"/>
  <path id="Path_47" data-name="Path 47" d="M7.017,388.1a.879.879,0,0,0-1.243,0L.258,393.619A.879.879,0,1,0,1.5,394.862l5.516-5.516A.879.879,0,0,0,7.017,388.1Z" transform="translate(0 -365.122)" fill="#fff"/>
  <path id="Path_48" data-name="Path 48" d="M93.189,432.984l-2.869,2.869a.879.879,0,1,0,1.243,1.243l2.869-2.869a.879.879,0,0,0-1.243-1.243Z" transform="translate(-84.786 -407.373)" fill="#fff"/>
</svg>
