<svg xmlns="http://www.w3.org/2000/svg" width="120.873" height="20" viewBox="0 0 120.873 20">
  <g id="Stars" transform="translate(-766 -4311)">
    <path id="Icon_metro-star-full" data-name="Icon metro-star-full" d="M23.6,10.322,16.335,9.267,13.085,2.683,9.836,9.267,2.571,10.322l5.257,5.125L6.587,22.683l6.5-3.416,6.5,3.416-1.241-7.236L23.6,10.322Z" transform="translate(763.429 4308.317)" fill="#ffc337"/>
    <path id="Icon_metro-star-full-2" data-name="Icon metro-star-full" d="M23.6,10.322,16.335,9.267,13.085,2.683,9.836,9.267,2.571,10.322l5.257,5.125L6.587,22.683l6.5-3.416,6.5,3.416-1.241-7.236L23.6,10.322Z" transform="translate(813.429 4308.317)" fill="#ffc337"/>
    <path id="Icon_metro-star-full-3" data-name="Icon metro-star-full" d="M23.6,10.322,16.335,9.267,13.085,2.683,9.836,9.267,2.571,10.322l5.257,5.125L6.587,22.683l6.5-3.416,6.5,3.416-1.241-7.236L23.6,10.322Z" transform="translate(788.429 4308.317)" fill="#ffc337"/>
    <path id="Icon_metro-star-full-4" data-name="Icon metro-star-full" d="M23.6,10.322,16.335,9.267,13.085,2.683,9.836,9.267,2.571,10.322l5.257,5.125L6.587,22.683l6.5-3.416,6.5,3.416-1.241-7.236L23.6,10.322Z" transform="translate(838.429 4308.317)" fill="#ffc337"/>
    <path id="Icon_metro-star-half" data-name="Icon metro-star-half" d="M23.6,10.322,16.335,9.267,13.085,2.683,9.836,9.267,2.571,10.322l5.257,5.125L6.587,22.683l6.5-3.416,6.5,3.416-1.241-7.236L23.6,10.322Zm-10.515,7.32-.019.01.019-11.722,2.295,4.649,5.131.746L16.8,14.945l.876,5.11-4.589-2.413Z" transform="translate(863.273 4308.317)" fill="#ffc337"/>
  </g>
</svg>
