<svg xmlns="http://www.w3.org/2000/svg" width="84.397" height="86.212" viewBox="0 0 84.397 86.212">
  <g id="success" transform="translate(-0.297 0)">
    <path id="Path_169" data-name="Path 169" d="M.3,80.483,1.414,83l40.1-16.628,6.986.839,2.515,7.685-3.353,3.214a4.028,4.028,0,0,0-.978,4.611l1.4,3.493L71.279,77.13l-1.257-3.353a3.95,3.95,0,0,0-3.912-2.655H61.5l-2.515-6.009,6.148-3.074a4.2,4.2,0,0,0,2.1-5.17L59.263,35.491a4.3,4.3,0,0,0-5.45-2.516.137.137,0,0,0-.139.14L47.805,35.63l-.839-2.1,3.214-3.772a16.444,16.444,0,0,0,4.052-8.943l4.052-4.891a7.338,7.338,0,0,0-.978-10.341A11.7,11.7,0,0,0,55.63,4.471a6.943,6.943,0,0,0-4.751-.419l-.42-1.258A4.041,4.041,0,0,0,45.15.279L15.667,10.9a4.089,4.089,0,0,0-2.515,5.309v.14l.7,1.816a7.742,7.742,0,0,0-4.053,9.5,7.947,7.947,0,0,0,6.428,5.17l6.568.7a18.2,18.2,0,0,0,9.082,3.493l4.611.42.839,2.1a4.161,4.161,0,0,0-1.956,2.795l-.978,4.751L.3,60.921l.978,2.655,19.562-7.824L25.588,70Zm66.93-5.868.28.838L49.621,82.579l-.419-.839a1.937,1.937,0,0,1,.28-1.536l4.751-4.472,6.008-1.956H65.83a1.4,1.4,0,0,1,1.4.839Zm-8.8-3.354-5.03,1.677-1.816-5.309a3.106,3.106,0,0,0,2.235-.42l2.376-1.118Zm-3.773-36.05a1.387,1.387,0,0,1,1.817.7l1.118,2.934L50.739,41.08l.839,2.655L58.425,41.5,60.1,45.971l-6.567,2.235.839,2.655,6.707-2.236L62.756,53.1l-6.428,2.1.839,2.655,6.567-2.236.7,1.816a1.233,1.233,0,0,1-.7,1.677L52.7,64.554a1.771,1.771,0,0,1-.839.14l-9.5-1.118-5.17-15.509.978-5.17A1.478,1.478,0,0,1,39,41.918Zm-.14-28.226a4.629,4.629,0,0,1,2.376,6.009,4.9,4.9,0,0,1-.7,1.118l-1.677,2.1a20.883,20.883,0,0,0-.838-4.052L51.857,6.706a5.584,5.584,0,0,1,2.655.279ZM12.593,26.967a4.813,4.813,0,0,1,2.376-6.009l1.956,4.751a20.243,20.243,0,0,0,2.795,4.751l-2.934-.28a4.674,4.674,0,0,1-4.192-3.214Zm19.842,7.405a15.27,15.27,0,0,1-12.855-9.641l-3.632-9.222a1.386,1.386,0,0,1,.7-1.816L46.128,3.073a1.543,1.543,0,0,1,1.118,0,1.432,1.432,0,0,1,.7.839l3.074,9.222a15.359,15.359,0,0,1-2.934,14.811l-4.332,5.03,1.257,3.353-5.03,2.1-1.4-3.493ZM23.492,54.633l3.214-1.257L30.2,64l2.655-.839-3.632-10.9,5.589-2.236,4.751,14.113L28.243,68.886Zm0,0" transform="translate(0 0)" fill="#48b774"/>
    <path id="Path_170" data-name="Path 170" d="M362.482,54.157v1.4h2.795v-1.4a6.919,6.919,0,0,1,6.986-6.986V44.376a6.919,6.919,0,0,1-6.986-6.986v-1.4h-2.795v1.4a6.918,6.918,0,0,1-6.987,6.986V47.17A6.919,6.919,0,0,1,362.482,54.157Zm1.4-11.737a9.629,9.629,0,0,0,3.353,3.353,9.637,9.637,0,0,0-3.353,3.354,9.637,9.637,0,0,0-3.353-3.354A9.629,9.629,0,0,0,363.88,42.42Zm0,0" transform="translate(-293.159 -29.705)" fill="#48b774"/>
    <path id="Path_171" data-name="Path 171" d="M10.483,214.157v1.4h2.795v-1.4a6.919,6.919,0,0,1,6.986-6.986v-2.795a6.919,6.919,0,0,1-6.986-6.986v-1.4H10.483v1.4A6.918,6.918,0,0,1,3.5,204.376v2.795A6.919,6.919,0,0,1,10.483,214.157Zm1.4-11.737a9.629,9.629,0,0,0,3.353,3.353,9.637,9.637,0,0,0-3.353,3.354,9.637,9.637,0,0,0-3.353-3.354,9.629,9.629,0,0,0,3.353-3.353Zm0,0" transform="translate(-2.64 -161.759)" fill="#48b774"/>
    <path id="Path_172" data-name="Path 172" d="M397.277,197.389v-1.4h-2.795v1.4a6.918,6.918,0,0,1-6.986,6.986v2.795a6.919,6.919,0,0,1,6.986,6.986v1.4h2.795v-1.4a6.919,6.919,0,0,1,6.986-6.986v-2.795A6.919,6.919,0,0,1,397.277,197.389Zm-1.4,11.738a9.637,9.637,0,0,0-3.353-3.354,9.629,9.629,0,0,0,3.353-3.353,9.629,9.629,0,0,0,3.353,3.353A9.637,9.637,0,0,0,395.88,209.127Zm0,0" transform="translate(-319.57 -161.759)" fill="#48b774"/>
    <path id="Path_173" data-name="Path 173" d="M236.576,57.878l1.956,1.956c7.685-7.685.559-19.422.14-19.842L236.3,41.529c.14,0,6.428,10.2.28,16.349Zm0,0" transform="translate(-194.779 -33.007)" fill="#48b774"/>
  </g>
</svg>
