<svg xmlns="http://www.w3.org/2000/svg" width="54" height="50.613" viewBox="0 0 54 50.613">
  <g id="Group_88" data-name="Group 88" transform="translate(-1052 -1324.635)">
    <path id="Path_66" data-name="Path 66" d="M47.306,30.231a2.653,2.653,0,1,0-2.653,2.653A2.656,2.656,0,0,0,47.306,30.231Zm-3.724,0A1.071,1.071,0,1,1,44.653,31.3,1.072,1.072,0,0,1,43.582,30.231Zm0,0" transform="translate(1014.43 1299.913)" fill="#fff"/>
    <path id="Path_67" data-name="Path 67" d="M104.414,32.884a2.653,2.653,0,1,0-2.653-2.653A2.656,2.656,0,0,0,104.414,32.884Zm0-3.724a1.071,1.071,0,1,1-1.071,1.071A1.072,1.072,0,0,1,104.414,29.16Zm0,0" transform="translate(960.971 1299.913)" fill="#fff"/>
    <path id="Path_68" data-name="Path 68" d="M164.173,32.884a2.653,2.653,0,1,0-2.653-2.653A2.656,2.656,0,0,0,164.173,32.884Zm0-3.724a1.071,1.071,0,1,1-1.071,1.071A1.072,1.072,0,0,1,164.173,29.16Zm0,0" transform="translate(907.516 1299.913)" fill="#fff"/>
    <path id="Path_69" data-name="Path 69" d="M262.959,46.813h19.265a.791.791,0,0,0,0-1.582H262.959a.791.791,0,0,0,0,1.582Zm0,0" transform="translate(817.482 1284.122)" fill="#fff"/>
    <path id="Path_70" data-name="Path 70" d="M50.7.5H3.3A3.307,3.307,0,0,0,0,3.8V47.81a3.307,3.307,0,0,0,3.3,3.3H50.7a3.307,3.307,0,0,0,3.3-3.3V3.8A3.307,3.307,0,0,0,50.7.5Zm0,49.031H3.3A1.723,1.723,0,0,1,1.583,47.81V11.517H5.992a.791.791,0,1,0,0-1.582H1.583V3.8A1.723,1.723,0,0,1,3.3,2.082H50.7A1.723,1.723,0,0,1,52.418,3.8V9.935H8.945a.791.791,0,1,0,0,1.582H52.418V47.81A1.723,1.723,0,0,1,50.7,49.531Zm0,0" transform="translate(1052 1324.135)" fill="#fff"/>
    <path id="Path_71" data-name="Path 71" d="M101.881,123.66H94.968a2.507,2.507,0,0,0-2.5,2.5v.957a2.634,2.634,0,0,0-1.709,1.711l-12.355.047a2.634,2.634,0,0,0-1.708-1.706v-.957a2.507,2.507,0,0,0-2.5-2.5H67.274a2.507,2.507,0,0,0-2.5,2.5v6.913a2.507,2.507,0,0,0,2.5,2.5h.957a2.633,2.633,0,0,0,1.709,1.709v3.232a3.028,3.028,0,0,0,3.024,3.024h7.451a2.634,2.634,0,0,0,1.709,1.708v1.011a2.453,2.453,0,0,0,2.45,2.45h1.072a2.632,2.632,0,0,0,1.583,1.725,1.384,1.384,0,0,1-1.236.765H77.543a2.632,2.632,0,0,0-1.767-1.925v-.957a2.507,2.507,0,0,0-2.5-2.5H66.359a2.507,2.507,0,0,0-2.5,2.5v6.913a2.507,2.507,0,0,0,2.5,2.5h6.913a2.507,2.507,0,0,0,2.5-2.5v-.957a2.635,2.635,0,0,0,1.629-1.492h8.587a2.97,2.97,0,0,0,2.883-2.271,2.633,2.633,0,0,0,1.811-1.8h.91a2.453,2.453,0,0,0,2.45-2.45v-2.081a.791.791,0,1,0-1.582,0v2.081a.869.869,0,0,1-.868.868h-.953a2.622,2.622,0,0,0-4.954,0H84.574a.869.869,0,0,1-.868-.868v-1.011a2.591,2.591,0,0,0,.484-.209,2.621,2.621,0,0,0-.484-4.79V139.3a.869.869,0,0,1,.868-.868H91.6a.869.869,0,0,1,.868.868v2.081a.791.791,0,0,0,1.582,0V139.3a2.453,2.453,0,0,0-2.45-2.45H84.574a2.453,2.453,0,0,0-2.45,2.45v1.011a2.634,2.634,0,0,0-1.709,1.708H72.964a1.444,1.444,0,0,1-1.443-1.442v-3.232a2.633,2.633,0,0,0,1.709-1.709h.957a2.507,2.507,0,0,0,2.5-2.5v-.957a2.632,2.632,0,0,0,1.709-1.711l12.355-.047a2.633,2.633,0,0,0,1.708,1.706v.957a2.507,2.507,0,0,0,2.5,2.5h6.913a2.507,2.507,0,0,0,2.5-2.5v-6.913a2.507,2.507,0,0,0-2.5-2.5Zm-26.9,29.212a1.039,1.039,0,1,1,1.039-1.039A1.04,1.04,0,0,1,74.985,152.872Zm-.791,2.417a.923.923,0,0,1-.922.922H66.359a.923.923,0,0,1-.922-.922v-6.913a.923.923,0,0,1,.922-.922h6.913a.923.923,0,0,1,.922.922v.957a2.622,2.622,0,0,0,0,5ZM89.2,148.05a1.039,1.039,0,0,1-2.078,0A1.04,1.04,0,1,1,89.2,148.05Zm-6.132-6.27a1.039,1.039,0,1,1-1.2,1.028A1.042,1.042,0,0,1,83.073,141.78ZM75.9,130.712a1.039,1.039,0,1,1,1.039-1.039A1.041,1.041,0,0,1,75.9,130.712Zm-5.17,5.17a1.039,1.039,0,1,1,1.039-1.04A1.04,1.04,0,0,1,70.731,135.882Zm4.379-2.753a.923.923,0,0,1-.922.922H73.23a2.622,2.622,0,0,0-5,0h-.957a.923.923,0,0,1-.922-.922v-6.913a.924.924,0,0,1,.922-.922h6.913a.923.923,0,0,1,.922.922v.957a2.622,2.622,0,0,0,0,5Zm18.145-4.548a1.039,1.039,0,1,1-1.039,1.039A1.041,1.041,0,0,1,93.254,128.582Zm9.549,4.5a.923.923,0,0,1-.922.922H94.968a.924.924,0,0,1-.922-.922v-.957a2.624,2.624,0,0,0,1.827-2.634h0a2.627,2.627,0,0,0-1.827-2.365v-.957a.923.923,0,0,1,.922-.922h6.913a.923.923,0,0,1,.922.922Zm0,0" transform="translate(994.88 1213.965)" fill="#fff"/>
  </g>
</svg>
