<svg xmlns="http://www.w3.org/2000/svg" width="16.108" height="16.104" viewBox="0 0 16.108 16.104">
  <g id="waving-hand" transform="translate(0 -0.07)">
    <path id="Path_1" data-name="Path 1" d="M21.293,20.917,18.77,22.7l-1.516,1.065a.617.617,0,0,1-.859-.15l-.547-.773a.6.6,0,0,0-.416-.255,3.971,3.971,0,0,1-2.357-1.541L8.807,14.985a.962.962,0,0,1,.145-1.3.929.929,0,0,1,1.339.188l-.268-.381L9.2,12.325,8.9,11.9a.926.926,0,0,1,.022-1.1,1.011,1.011,0,0,1,.2-.2.924.924,0,0,1,1.288.223L9.7,9.824a.926.926,0,1,1,1.514-1.065l.711,1.009A.926.926,0,1,1,13.442,8.7L14.564,10.3l2.255,3.2a3.754,3.754,0,0,0,.811.867.617.617,0,0,0,.958-.314v0c-.016-.5-.107-.939-.118-1.334-.029-1.114-.153-2.255.352-2.611s1.135.29,1.216,1.159a33.314,33.314,0,0,0,1.113,4.093,8.516,8.516,0,0,1-.08,3.207,1.848,1.848,0,0,0,.306,1.4l.065.094a.613.613,0,0,1-.148.859Zm0,0" transform="translate(-8.349 -7.968)" fill="#ffdf40"/>
    <path id="Path_2" data-name="Path 2" d="M117.093,14.858v0a.617.617,0,0,1-.958.314,3.751,3.751,0,0,1-.811-.867l-2.255-3.2-1.122-1.594a.922.922,0,0,0-.792-.395.936.936,0,0,1,.306-.368.923.923,0,0,1,1.291.225l1.122,1.594,2.255,3.2a3.749,3.749,0,0,0,.811.867.554.554,0,0,0,.148.078c0,.046,0,.094.005.142Zm0,0" transform="translate(-107.66 -8.245)" fill="#ffc02e"/>
    <path id="Path_3" data-name="Path 3" d="M282.514,73.368l-2.523,1.779-1.516,1.066a.669.669,0,0,1-.15.078l.862-.607,2.523-1.779a.613.613,0,0,0,.148-.859l-.064-.094a1.849,1.849,0,0,1-.306-1.4,8.516,8.516,0,0,0,.081-3.207,33.348,33.348,0,0,1-1.114-4.093,1.441,1.441,0,0,0-.706-1.213.826.826,0,0,1,.3-.483c.5-.354,1.135.29,1.216,1.159a33.359,33.359,0,0,0,1.114,4.093,8.516,8.516,0,0,1-.081,3.207,1.849,1.849,0,0,0,.306,1.4l.064.094a.613.613,0,0,1-.148.859Zm0,0" transform="translate(-269.57 -60.421)" fill="#ffc02e"/>
    <path id="Path_4" data-name="Path 4" d="M.434,5.524a1.225,1.225,0,0,0-.2,1.66L4.5,13.241a4.2,4.2,0,0,0,2.54,1.651.345.345,0,0,1,.234.144l.547.775a.886.886,0,0,0,1.235.215L13.1,13.18a.886.886,0,0,0,.215-1.235l-.065-.092a1.565,1.565,0,0,1-.262-1.2,8.618,8.618,0,0,0,.076-3.318c-.161-.675-.354-1.256-.541-1.817a9.941,9.941,0,0,1-.564-2.24,1.745,1.745,0,0,0-.841-1.424.776.776,0,0,0-.8.07c-.556.392-.52,1.363-.481,2.391.005.148.011.3.015.446.005.2.03.406.056.624s.051.429.062.657a.327.327,0,0,1-.2.2.354.354,0,0,1-.327-.049,3.525,3.525,0,0,1-.748-.8v0L5.312.59A1.194,1.194,0,0,0,3.223.841L3.087.647A1.194,1.194,0,1,0,1.134,2.023l.137.195A1.194,1.194,0,0,0,.331,4.1L1.15,5.263a1.2,1.2,0,0,0-.716.261Zm3.1,3.117a.268.268,0,1,0,.438-.309L.769,3.79a.653.653,0,0,1,.016-.778.657.657,0,0,1,1.059.021L4.867,7.323a.268.268,0,0,0,.439-.309l-3.733-5.3A.658.658,0,1,1,2.648.956l3.733,5.3a.264.264,0,0,0,.09.078l.033.013a.262.262,0,0,0,.077.018c.006,0,.012,0,.019,0l.038-.006.027,0a.265.265,0,0,0,.154-.413L3.8,1.656A.658.658,0,0,1,4.873.9L8.25,5.692v0a4.036,4.036,0,0,0,.872.929.9.9,0,0,0,.529.172.888.888,0,0,0,.286-.048v.007A3.559,3.559,0,0,1,9.67,7.4a2.31,2.31,0,0,0-.2,1.655.268.268,0,1,0,.52-.13,1.775,1.775,0,0,1,.154-1.271,3.8,3.8,0,0,0,.326-.827,5.494,5.494,0,0,0-.029-1.509c-.025-.2-.048-.4-.054-.573,0-.151-.01-.3-.015-.453-.03-.8-.064-1.709.254-1.932a.246.246,0,0,1,.265-.022,1.227,1.227,0,0,1,.529.987,10.513,10.513,0,0,0,.59,2.359c.184.551.374,1.12.529,1.771a8.362,8.362,0,0,1-.081,3.095,2.128,2.128,0,0,0,.349,1.609l.065.092a.349.349,0,0,1-.084.486L8.749,15.586a.35.35,0,0,1-.487-.085l-.544-.776a.883.883,0,0,0-.6-.367,3.725,3.725,0,0,1-2.174-1.428L.677,6.875a.7.7,0,0,1,.094-.932.659.659,0,0,1,.951.134Zm0,0" transform="translate(0 -0.013)"/>
    <path id="Path_5" data-name="Path 5" d="M129.666,320.1a.268.268,0,1,0,.439-.309l-1.067-1.516a.268.268,0,1,0-.439.309Zm0,0" transform="translate(-124.507 -308.082)"/>
    <path id="Path_6" data-name="Path 6" d="M185.866,399.224a.268.268,0,0,0,.092-.529.714.714,0,0,1-.437-.221.268.268,0,1,0-.436.313A1.21,1.21,0,0,0,185.866,399.224Zm0,0" transform="translate(-179.215 -385.765)"/>
    <path id="Path_7" data-name="Path 7" d="M356.552,380.909a.268.268,0,0,0,.154-.049l.253-.178a.268.268,0,0,0-.31-.438l-.253.178a.268.268,0,0,0,.155.488Zm0,0" transform="translate(-345.077 -368.168)"/>
    <path id="Path_8" data-name="Path 8" d="M268.309,410.221a.268.268,0,0,0,.154-.049l1.767-1.245a.269.269,0,1,0-.311-.439l-1.767,1.245a.268.268,0,0,0,.155.488Zm0,0" transform="translate(-259.608 -395.526)"/>
    <path id="Path_9" data-name="Path 9" d="M3.9,388.1a.268.268,0,1,0,0-.537,3.224,3.224,0,0,1-3.221-3.221.268.268,0,0,0-.537,0A3.762,3.762,0,0,0,3.9,388.1Zm0,0" transform="translate(-0.136 -371.923)"/>
    <path id="Path_10" data-name="Path 10" d="M34.81,375.8a.268.268,0,1,0-.537,0,2.956,2.956,0,0,0,2.952,2.952.268.268,0,0,0,0-.537A2.418,2.418,0,0,1,34.81,375.8Zm0,0" transform="translate(-33.196 -363.656)"/>
    <path id="Path_11" data-name="Path 11" d="M384.409.07a.268.268,0,0,0,0,.537,3.224,3.224,0,0,1,3.221,3.221.268.268,0,1,0,.537,0A3.762,3.762,0,0,0,384.409.07Zm0,0" transform="translate(-372.059)"/>
    <path id="Path_12" data-name="Path 12" d="M375.874,34.74a2.418,2.418,0,0,1,2.415,2.416.268.268,0,0,0,.537,0,2.956,2.956,0,0,0-2.952-2.952.268.268,0,1,0,0,.537Zm0,0" transform="translate(-363.792 -33.06)"/>
  </g>
</svg>
