<svg xmlns="http://www.w3.org/2000/svg" width="61.21" height="61.259" viewBox="0 0 61.21 61.259">
  <g id="landing-page" transform="translate(-0.205)">
    <g id="Group_47" data-name="Group 47" transform="translate(0.205)">
      <path id="Path_76" data-name="Path 76" d="M379.988,53.806a1.2,1.2,0,0,0-1.2-1.2h-.007a1.2,1.2,0,1,0,1.2,1.2Z" transform="translate(-332.439 -46.315)" fill="#fff"/>
      <path id="Path_77" data-name="Path 77" d="M433.929,53.806a1.2,1.2,0,0,0-1.2-1.2h-.007a1.2,1.2,0,1,0,1.2,1.2Z" transform="translate(-379.926 -46.315)" fill="#fff"/>
      <path id="Path_78" data-name="Path 78" d="M326.075,53.806a1.2,1.2,0,0,0-1.2-1.2h-.007a1.2,1.2,0,1,0,1.2,1.2Z" transform="translate(-284.977 -46.315)" fill="#fff"/>
      <path id="Path_79" data-name="Path 79" d="M60.438,53.806a1.2,1.2,0,0,0,1.2,1.2H79.6a1.2,1.2,0,0,0,0-2.393H61.634A1.2,1.2,0,0,0,60.438,53.806Z" transform="translate(-53.231 -46.315)" fill="#fff"/>
      <path id="Path_80" data-name="Path 80" d="M57.576,0H20.169a1.2,1.2,0,0,0,0,2.393H57.576a1.445,1.445,0,0,1,1.445,1.442v8.754H2.6V3.835A1.444,1.444,0,0,1,4.04,2.393H9.425A1.2,1.2,0,0,0,9.425,0H4.04A3.839,3.839,0,0,0,.2,3.835V57.42A3.841,3.841,0,0,0,4.04,61.259H57.576a3.843,3.843,0,0,0,3.838-3.838V3.835A3.841,3.841,0,0,0,57.576,0Zm0,58.866H4.04A1.445,1.445,0,0,1,2.6,57.42V14.982H59.022V57.42A1.447,1.447,0,0,1,57.576,58.866Z" transform="translate(-0.205)" fill="#fff"/>
      <path id="Path_81" data-name="Path 81" d="M56.976,382.613a4.983,4.983,0,1,0,4.981,4.985A4.99,4.99,0,0,0,56.976,382.613Zm0,7.573a2.59,2.59,0,1,1,2.588-2.588A2.593,2.593,0,0,1,56.976,390.186Z" transform="translate(-45.795 -336.835)" fill="#fff"/>
      <path id="Path_82" data-name="Path 82" d="M165.223,382.613A4.983,4.983,0,1,0,170.2,387.6,4.989,4.989,0,0,0,165.223,382.613Zm0,7.573a2.59,2.59,0,1,1,2.588-2.588A2.591,2.591,0,0,1,165.223,390.186Z" transform="translate(-141.094 -336.835)" fill="#fff"/>
      <path id="Path_83" data-name="Path 83" d="M273.445,382.613a4.983,4.983,0,1,0,4.985,4.985A4.989,4.989,0,0,0,273.445,382.613Zm0,7.573a2.59,2.59,0,1,1,2.592-2.588A2.591,2.591,0,0,1,273.445,390.186Z" transform="translate(-236.368 -336.835)" fill="#fff"/>
      <path id="Path_84" data-name="Path 84" d="M381.67,382.613a4.983,4.983,0,1,0,4.981,4.985A4.99,4.99,0,0,0,381.67,382.613Zm0,7.573a2.59,2.59,0,1,1,2.588-2.588A2.593,2.593,0,0,1,381.67,390.186Z" transform="translate(-331.641 -336.835)" fill="#fff"/>
      <path id="Path_85" data-name="Path 85" d="M52,175.449a1.206,1.206,0,0,0,1.194,1.112H79.968a1.209,1.209,0,0,0,1.2-1.2V155.114a1.2,1.2,0,0,0-1.2-1.2H53.188a1.2,1.2,0,0,0-1.2,1.2v20.25Zm19.835-1.28L69.6,170.655l2.982-4.7,5.21,8.21Zm-2.834,0H55.365l6.817-10.74Zm9.777-17.858v14.936l-5.18-8.162a1.2,1.2,0,0,0-2.02,0l-3.389,5.338-4.992-7.868a1.2,1.2,0,0,0-1.01-.556h0a1.2,1.2,0,0,0-1.01.555l-6.787,10.693V156.311Z" transform="translate(-45.796 -135.502)" fill="#fff"/>
      <path id="Path_86" data-name="Path 86" d="M329.241,156.311h13.345a1.2,1.2,0,0,0,0-2.393H329.241a1.2,1.2,0,1,0,0,2.393Z" transform="translate(-288.82 -135.502)" fill="#fff"/>
      <path id="Path_87" data-name="Path 87" d="M329.241,211.727h13.345a1.2,1.2,0,0,0,0-2.393H329.241a1.2,1.2,0,1,0,0,2.393Z" transform="translate(-288.82 -184.288)" fill="#fff"/>
      <path id="Path_88" data-name="Path 88" d="M329.241,267.116h13.345a1.2,1.2,0,0,0,0-2.393H329.241a1.2,1.2,0,1,0,0,2.393Z" transform="translate(-288.82 -233.05)" fill="#fff"/>
      <path id="Path_89" data-name="Path 89" d="M329.241,322.5h13.345a1.2,1.2,0,0,0,0-2.393H329.241a1.2,1.2,0,1,0,0,2.393Z" transform="translate(-288.82 -281.81)" fill="#fff"/>
      <path id="Path_90" data-name="Path 90" d="M113.365,2.393h.007a1.2,1.2,0,1,0-.007,0Z" transform="translate(-98.773)" fill="#fff"/>
    </g>
  </g>
</svg>
